<svg width="25" height="25" viewBox="0 0 25 25" fill="none" xmlns="http://www.w3.org/2000/svg">
<path d="M3 18.875V6.125H2V18.875H3ZM5 4.125H20V3.125H5V4.125ZM22 6.125V18.875H23V6.125H22ZM22 18.875C22 19.9796 21.1046 20.875 20 20.875V21.875C21.6569 21.875 23 20.5319 23 18.875H22ZM20 4.125C21.1046 4.125 22 5.02043 22 6.125H23C23 4.46815 21.6569 3.125 20 3.125V4.125ZM3 6.125C3 5.02043 3.89543 4.125 5 4.125V3.125C3.34315 3.125 2 4.46814 2 6.125H3ZM5 20.875C3.89543 20.875 3 19.9796 3 18.875H2C2 20.5319 3.34315 21.875 5 21.875V20.875ZM15.75 12.5001C15.75 14.295 14.2949 15.7501 12.5 15.7501V16.7501C14.8472 16.7501 16.75 14.8473 16.75 12.5001H15.75ZM12.5 15.7501C10.7051 15.7501 9.25 14.295 9.25 12.5001H8.25C8.25 14.8473 10.1528 16.7501 12.5 16.7501V15.7501ZM9.25 12.5001C9.25 10.7052 10.7051 9.25012 12.5 9.25012V8.25012C10.1528 8.25012 8.25 10.1529 8.25 12.5001H9.25ZM12.5 9.25012C14.2949 9.25012 15.75 10.7052 15.75 12.5001H16.75C16.75 10.1529 14.8472 8.25012 12.5 8.25012V9.25012ZM20 20.875H5V21.875H20V20.875Z" fill="white" fill-opacity="0.8"/>
</svg>
