<svg width="25" height="25" viewBox="0 0 25 25" fill="none" xmlns="http://www.w3.org/2000/svg">
<path d="M2.59668 13.9338C2.94297 16.3132 4.13434 18.4883 5.95284 20.0613C7.77134 21.6343 10.0954 22.5 12.4998 22.5C14.9042 22.5 17.2283 21.6343 19.0468 20.0613C20.8653 18.4883 22.0566 16.3132 22.4029 13.9338M12.5012 2.5C11.3641 2.5 10.2735 2.95174 9.46938 3.75583C8.66529 4.55993 8.21355 5.65052 8.21355 6.78769V12.5046C8.21355 13.6418 8.66529 14.7324 9.46938 15.5365C10.2735 16.3406 11.3641 16.7923 12.5012 16.7923C13.6384 16.7923 14.729 16.3406 15.5331 15.5365C16.3372 14.7324 16.7889 13.6418 16.7889 12.5046V6.78769C16.7889 5.65052 16.3372 4.55993 15.5331 3.75583C14.729 2.95174 13.6384 2.5 12.5012 2.5Z" stroke="white" stroke-opacity="0.8" stroke-linecap="round" stroke-linejoin="round"/>
</svg>
