<svg xmlns="http://www.w3.org/2000/svg" xmlns:xlink="http://www.w3.org/1999/xlink" width="300" zoomAndPan="magnify" viewBox="0 0 224.87999 225" height="300" preserveAspectRatio="xMidYMid meet" version="1.0"><defs><clipPath id="aab96b7ac1"><path d="M 42 41 L 191 41 L 191 190 L 42 190 Z M 42 41 " clip-rule="nonzero"/></clipPath><clipPath id="19e217865a"><path d="M -21.5 120.578125 L 126.230469 -21.027344 L 246.570312 104.515625 L 98.839844 246.125 Z M -21.5 120.578125 " clip-rule="nonzero"/></clipPath><clipPath id="6773b33aca"><path d="M -21.5 120.578125 L 126.230469 -21.027344 L 246.570312 104.515625 L 98.839844 246.125 Z M -21.5 120.578125 " clip-rule="nonzero"/></clipPath><clipPath id="1953335f51"><path d="M -21.5 120.578125 L 126.230469 -21.027344 L 246.570312 104.515625 L 98.839844 246.125 Z M -21.5 120.578125 " clip-rule="nonzero"/></clipPath><clipPath id="d1aeb324cc"><path d="M 78 79 L 94 79 L 94 96 L 78 96 Z M 78 79 " clip-rule="nonzero"/></clipPath><clipPath id="91c94626b6"><path d="M -21.5 120.578125 L 126.230469 -21.027344 L 246.570312 104.515625 L 98.839844 246.125 Z M -21.5 120.578125 " clip-rule="nonzero"/></clipPath><clipPath id="d05fcdff11"><path d="M -21.5 120.578125 L 126.230469 -21.027344 L 246.570312 104.515625 L 98.839844 246.125 Z M -21.5 120.578125 " clip-rule="nonzero"/></clipPath><clipPath id="3da180450f"><path d="M -21.5 120.578125 L 126.230469 -21.027344 L 246.570312 104.515625 L 98.839844 246.125 Z M -21.5 120.578125 " clip-rule="nonzero"/></clipPath><clipPath id="e30a0f8c76"><path d="M 78 79 L 92 79 L 92 93 L 78 93 Z M 78 79 " clip-rule="nonzero"/></clipPath><clipPath id="e83a7db339"><path d="M -21.5 120.578125 L 126.230469 -21.027344 L 246.570312 104.515625 L 98.839844 246.125 Z M -21.5 120.578125 " clip-rule="nonzero"/></clipPath><clipPath id="8720069cdb"><path d="M -21.5 120.578125 L 126.230469 -21.027344 L 246.570312 104.515625 L 98.839844 246.125 Z M -21.5 120.578125 " clip-rule="nonzero"/></clipPath><clipPath id="597184dc42"><path d="M -21.5 120.578125 L 126.230469 -21.027344 L 246.570312 104.515625 L 98.839844 246.125 Z M -21.5 120.578125 " clip-rule="nonzero"/></clipPath><clipPath id="38901405fd"><path d="M 38 40 L 186 40 L 186 188 L 38 188 Z M 38 40 " clip-rule="nonzero"/></clipPath><clipPath id="cd36708f33"><path d="M -21.5 120.578125 L 126.230469 -21.027344 L 246.570312 104.515625 L 98.839844 246.125 Z M -21.5 120.578125 " clip-rule="nonzero"/></clipPath><clipPath id="4b5a08c53c"><path d="M -21.5 120.578125 L 126.230469 -21.027344 L 246.570312 104.515625 L 98.839844 246.125 Z M -21.5 120.578125 " clip-rule="nonzero"/></clipPath><clipPath id="1de4334b29"><path d="M -21.5 120.578125 L 126.230469 -21.027344 L 246.570312 104.515625 L 98.839844 246.125 Z M -21.5 120.578125 " clip-rule="nonzero"/></clipPath><clipPath id="3db6691e00"><path d="M 148 109 L 151 109 L 151 113 L 148 113 Z M 148 109 " clip-rule="nonzero"/></clipPath><clipPath id="0803877731"><path d="M -21.5 120.578125 L 126.230469 -21.027344 L 246.570312 104.515625 L 98.839844 246.125 Z M -21.5 120.578125 " clip-rule="nonzero"/></clipPath><clipPath id="ea376139ab"><path d="M -21.5 120.578125 L 126.230469 -21.027344 L 246.570312 104.515625 L 98.839844 246.125 Z M -21.5 120.578125 " clip-rule="nonzero"/></clipPath><clipPath id="c398f2da2b"><path d="M -21.5 120.578125 L 126.230469 -21.027344 L 246.570312 104.515625 L 98.839844 246.125 Z M -21.5 120.578125 " clip-rule="nonzero"/></clipPath><clipPath id="79f50a726e"><path d="M 150 109 L 153 109 L 153 112 L 150 112 Z M 150 109 " clip-rule="nonzero"/></clipPath><clipPath id="82e7a6b505"><path d="M -21.5 120.578125 L 126.230469 -21.027344 L 246.570312 104.515625 L 98.839844 246.125 Z M -21.5 120.578125 " clip-rule="nonzero"/></clipPath><clipPath id="fc8d3db89c"><path d="M -21.5 120.578125 L 126.230469 -21.027344 L 246.570312 104.515625 L 98.839844 246.125 Z M -21.5 120.578125 " clip-rule="nonzero"/></clipPath><clipPath id="6a9877a4a6"><path d="M -21.5 120.578125 L 126.230469 -21.027344 L 246.570312 104.515625 L 98.839844 246.125 Z M -21.5 120.578125 " clip-rule="nonzero"/></clipPath><clipPath id="efda69b2c0"><path d="M 144 48 L 147 48 L 147 51 L 144 51 Z M 144 48 " clip-rule="nonzero"/></clipPath><clipPath id="37aad96e9d"><path d="M -21.5 120.578125 L 126.230469 -21.027344 L 246.570312 104.515625 L 98.839844 246.125 Z M -21.5 120.578125 " clip-rule="nonzero"/></clipPath><clipPath id="b500748649"><path d="M -21.5 120.578125 L 126.230469 -21.027344 L 246.570312 104.515625 L 98.839844 246.125 Z M -21.5 120.578125 " clip-rule="nonzero"/></clipPath><clipPath id="8e667cbaff"><path d="M -21.5 120.578125 L 126.230469 -21.027344 L 246.570312 104.515625 L 98.839844 246.125 Z M -21.5 120.578125 " clip-rule="nonzero"/></clipPath><clipPath id="d79447585e"><path d="M 141 48 L 144 48 L 144 51 L 141 51 Z M 141 48 " clip-rule="nonzero"/></clipPath><clipPath id="74e926c2a1"><path d="M -21.5 120.578125 L 126.230469 -21.027344 L 246.570312 104.515625 L 98.839844 246.125 Z M -21.5 120.578125 " clip-rule="nonzero"/></clipPath><clipPath id="35a1e9bc70"><path d="M -21.5 120.578125 L 126.230469 -21.027344 L 246.570312 104.515625 L 98.839844 246.125 Z M -21.5 120.578125 " clip-rule="nonzero"/></clipPath><clipPath id="5a19c1d19e"><path d="M -21.5 120.578125 L 126.230469 -21.027344 L 246.570312 104.515625 L 98.839844 246.125 Z M -21.5 120.578125 " clip-rule="nonzero"/></clipPath><clipPath id="f3b8d7bd51"><path d="M 89 109 L 92 109 L 92 112 L 89 112 Z M 89 109 " clip-rule="nonzero"/></clipPath><clipPath id="722cd85323"><path d="M -21.5 120.578125 L 126.230469 -21.027344 L 246.570312 104.515625 L 98.839844 246.125 Z M -21.5 120.578125 " clip-rule="nonzero"/></clipPath><clipPath id="7fd88bbf43"><path d="M -21.5 120.578125 L 126.230469 -21.027344 L 246.570312 104.515625 L 98.839844 246.125 Z M -21.5 120.578125 " clip-rule="nonzero"/></clipPath><clipPath id="28e6010263"><path d="M -21.5 120.578125 L 126.230469 -21.027344 L 246.570312 104.515625 L 98.839844 246.125 Z M -21.5 120.578125 " clip-rule="nonzero"/></clipPath><clipPath id="1104dca4fe"><path d="M 91 108 L 94 108 L 94 111 L 91 111 Z M 91 108 " clip-rule="nonzero"/></clipPath><clipPath id="1373298b74"><path d="M -21.5 120.578125 L 126.230469 -21.027344 L 246.570312 104.515625 L 98.839844 246.125 Z M -21.5 120.578125 " clip-rule="nonzero"/></clipPath><clipPath id="b613d96827"><path d="M -21.5 120.578125 L 126.230469 -21.027344 L 246.570312 104.515625 L 98.839844 246.125 Z M -21.5 120.578125 " clip-rule="nonzero"/></clipPath><clipPath id="1d82cf4476"><path d="M -21.5 120.578125 L 126.230469 -21.027344 L 246.570312 104.515625 L 98.839844 246.125 Z M -21.5 120.578125 " clip-rule="nonzero"/></clipPath><clipPath id="5922dfeee4"><path d="M 107 131 L 111 131 L 111 133 L 107 133 Z M 107 131 " clip-rule="nonzero"/></clipPath><clipPath id="eea5196c3c"><path d="M -21.5 120.578125 L 126.230469 -21.027344 L 246.570312 104.515625 L 98.839844 246.125 Z M -21.5 120.578125 " clip-rule="nonzero"/></clipPath><clipPath id="6565362f9a"><path d="M -21.5 120.578125 L 126.230469 -21.027344 L 246.570312 104.515625 L 98.839844 246.125 Z M -21.5 120.578125 " clip-rule="nonzero"/></clipPath><clipPath id="7a66c19c1b"><path d="M -21.5 120.578125 L 126.230469 -21.027344 L 246.570312 104.515625 L 98.839844 246.125 Z M -21.5 120.578125 " clip-rule="nonzero"/></clipPath><clipPath id="58590d9edb"><path d="M 109 128 L 111 128 L 111 131 L 109 131 Z M 109 128 " clip-rule="nonzero"/></clipPath><clipPath id="d7ac9932cf"><path d="M -21.5 120.578125 L 126.230469 -21.027344 L 246.570312 104.515625 L 98.839844 246.125 Z M -21.5 120.578125 " clip-rule="nonzero"/></clipPath><clipPath id="bc56cc367f"><path d="M -21.5 120.578125 L 126.230469 -21.027344 L 246.570312 104.515625 L 98.839844 246.125 Z M -21.5 120.578125 " clip-rule="nonzero"/></clipPath><clipPath id="572bbe7d41"><path d="M -21.5 120.578125 L 126.230469 -21.027344 L 246.570312 104.515625 L 98.839844 246.125 Z M -21.5 120.578125 " clip-rule="nonzero"/></clipPath><clipPath id="312a243b89"><path d="M 87 177 L 90 177 L 90 179 L 87 179 Z M 87 177 " clip-rule="nonzero"/></clipPath><clipPath id="94cb485172"><path d="M -21.5 120.578125 L 126.230469 -21.027344 L 246.570312 104.515625 L 98.839844 246.125 Z M -21.5 120.578125 " clip-rule="nonzero"/></clipPath><clipPath id="3708661d5a"><path d="M -21.5 120.578125 L 126.230469 -21.027344 L 246.570312 104.515625 L 98.839844 246.125 Z M -21.5 120.578125 " clip-rule="nonzero"/></clipPath><clipPath id="a794d45fba"><path d="M -21.5 120.578125 L 126.230469 -21.027344 L 246.570312 104.515625 L 98.839844 246.125 Z M -21.5 120.578125 " clip-rule="nonzero"/></clipPath><clipPath id="0455696640"><path d="M 85 178 L 88 178 L 88 181 L 85 181 Z M 85 178 " clip-rule="nonzero"/></clipPath><clipPath id="8d7ea9894f"><path d="M -21.5 120.578125 L 126.230469 -21.027344 L 246.570312 104.515625 L 98.839844 246.125 Z M -21.5 120.578125 " clip-rule="nonzero"/></clipPath><clipPath id="f25fc2a5c0"><path d="M -21.5 120.578125 L 126.230469 -21.027344 L 246.570312 104.515625 L 98.839844 246.125 Z M -21.5 120.578125 " clip-rule="nonzero"/></clipPath><clipPath id="3ab2945874"><path d="M -21.5 120.578125 L 126.230469 -21.027344 L 246.570312 104.515625 L 98.839844 246.125 Z M -21.5 120.578125 " clip-rule="nonzero"/></clipPath><clipPath id="a47d7562e0"><path d="M 44 143 L 48 143 L 48 146 L 44 146 Z M 44 143 " clip-rule="nonzero"/></clipPath><clipPath id="25a0f2bf54"><path d="M -21.5 120.578125 L 126.230469 -21.027344 L 246.570312 104.515625 L 98.839844 246.125 Z M -21.5 120.578125 " clip-rule="nonzero"/></clipPath><clipPath id="0f1397f609"><path d="M -21.5 120.578125 L 126.230469 -21.027344 L 246.570312 104.515625 L 98.839844 246.125 Z M -21.5 120.578125 " clip-rule="nonzero"/></clipPath><clipPath id="8f55ec7b6b"><path d="M -21.5 120.578125 L 126.230469 -21.027344 L 246.570312 104.515625 L 98.839844 246.125 Z M -21.5 120.578125 " clip-rule="nonzero"/></clipPath><clipPath id="863dc82e52"><path d="M 121 97 L 124 97 L 124 99 L 121 99 Z M 121 97 " clip-rule="nonzero"/></clipPath><clipPath id="30243be223"><path d="M -21.5 120.578125 L 126.230469 -21.027344 L 246.570312 104.515625 L 98.839844 246.125 Z M -21.5 120.578125 " clip-rule="nonzero"/></clipPath><clipPath id="817b19159b"><path d="M -21.5 120.578125 L 126.230469 -21.027344 L 246.570312 104.515625 L 98.839844 246.125 Z M -21.5 120.578125 " clip-rule="nonzero"/></clipPath><clipPath id="75f93d3047"><path d="M -21.5 120.578125 L 126.230469 -21.027344 L 246.570312 104.515625 L 98.839844 246.125 Z M -21.5 120.578125 " clip-rule="nonzero"/></clipPath><clipPath id="d6b6d5253d"><path d="M 102 115 L 112 115 L 112 124 L 102 124 Z M 102 115 " clip-rule="nonzero"/></clipPath><clipPath id="21c0949cb3"><path d="M -21.5 120.578125 L 126.230469 -21.027344 L 246.570312 104.515625 L 98.839844 246.125 Z M -21.5 120.578125 " clip-rule="nonzero"/></clipPath><clipPath id="f8c2d071ad"><path d="M -21.5 120.578125 L 126.230469 -21.027344 L 246.570312 104.515625 L 98.839844 246.125 Z M -21.5 120.578125 " clip-rule="nonzero"/></clipPath><clipPath id="5f0dbb2f4b"><path d="M -21.5 120.578125 L 126.230469 -21.027344 L 246.570312 104.515625 L 98.839844 246.125 Z M -21.5 120.578125 " clip-rule="nonzero"/></clipPath><clipPath id="5a1cd868ed"><path d="M 113 104 L 123 104 L 123 114 L 113 114 Z M 113 104 " clip-rule="nonzero"/></clipPath><clipPath id="138dda65e3"><path d="M -21.5 120.578125 L 126.230469 -21.027344 L 246.570312 104.515625 L 98.839844 246.125 Z M -21.5 120.578125 " clip-rule="nonzero"/></clipPath><clipPath id="d89b67d36a"><path d="M -21.5 120.578125 L 126.230469 -21.027344 L 246.570312 104.515625 L 98.839844 246.125 Z M -21.5 120.578125 " clip-rule="nonzero"/></clipPath><clipPath id="3a0b0e43d1"><path d="M -21.5 120.578125 L 126.230469 -21.027344 L 246.570312 104.515625 L 98.839844 246.125 Z M -21.5 120.578125 " clip-rule="nonzero"/></clipPath><clipPath id="621946c85e"><path d="M 49 123 L 103 123 L 103 176 L 49 176 Z M 49 123 " clip-rule="nonzero"/></clipPath><clipPath id="ab9914aa6a"><path d="M -21.5 120.578125 L 126.230469 -21.027344 L 246.570312 104.515625 L 98.839844 246.125 Z M -21.5 120.578125 " clip-rule="nonzero"/></clipPath><clipPath id="b5845b25f4"><path d="M -21.5 120.578125 L 126.230469 -21.027344 L 246.570312 104.515625 L 98.839844 246.125 Z M -21.5 120.578125 " clip-rule="nonzero"/></clipPath><clipPath id="cffc61d90d"><path d="M -21.5 120.578125 L 126.230469 -21.027344 L 246.570312 104.515625 L 98.839844 246.125 Z M -21.5 120.578125 " clip-rule="nonzero"/></clipPath><clipPath id="060e1a9e04"><path d="M 120 53 L 174 53 L 174 106 L 120 106 Z M 120 53 " clip-rule="nonzero"/></clipPath><clipPath id="2c93097ac8"><path d="M -21.5 120.578125 L 126.230469 -21.027344 L 246.570312 104.515625 L 98.839844 246.125 Z M -21.5 120.578125 " clip-rule="nonzero"/></clipPath><clipPath id="890c48a161"><path d="M -21.5 120.578125 L 126.230469 -21.027344 L 246.570312 104.515625 L 98.839844 246.125 Z M -21.5 120.578125 " clip-rule="nonzero"/></clipPath><clipPath id="3577f6f043"><path d="M -21.5 120.578125 L 126.230469 -21.027344 L 246.570312 104.515625 L 98.839844 246.125 Z M -21.5 120.578125 " clip-rule="nonzero"/></clipPath><clipPath id="2ea88bc7ba"><path d="M 59 132 L 75 132 L 75 148 L 59 148 Z M 59 132 " clip-rule="nonzero"/></clipPath><clipPath id="f3c0b71292"><path d="M -21.5 120.578125 L 126.230469 -21.027344 L 246.570312 104.515625 L 98.839844 246.125 Z M -21.5 120.578125 " clip-rule="nonzero"/></clipPath><clipPath id="2dbae2042a"><path d="M -21.5 120.578125 L 126.230469 -21.027344 L 246.570312 104.515625 L 98.839844 246.125 Z M -21.5 120.578125 " clip-rule="nonzero"/></clipPath><clipPath id="6ffc6d87e5"><path d="M -21.5 120.578125 L 126.230469 -21.027344 L 246.570312 104.515625 L 98.839844 246.125 Z M -21.5 120.578125 " clip-rule="nonzero"/></clipPath><clipPath id="5e8807a278"><path d="M 78 132 L 94 132 L 94 148 L 78 148 Z M 78 132 " clip-rule="nonzero"/></clipPath><clipPath id="cb47825ae3"><path d="M -21.5 120.578125 L 126.230469 -21.027344 L 246.570312 104.515625 L 98.839844 246.125 Z M -21.5 120.578125 " clip-rule="nonzero"/></clipPath><clipPath id="39d536a76b"><path d="M -21.5 120.578125 L 126.230469 -21.027344 L 246.570312 104.515625 L 98.839844 246.125 Z M -21.5 120.578125 " clip-rule="nonzero"/></clipPath><clipPath id="972d680a97"><path d="M -21.5 120.578125 L 126.230469 -21.027344 L 246.570312 104.515625 L 98.839844 246.125 Z M -21.5 120.578125 " clip-rule="nonzero"/></clipPath><clipPath id="8cef42439f"><path d="M 78 151 L 94 151 L 94 167 L 78 167 Z M 78 151 " clip-rule="nonzero"/></clipPath><clipPath id="a62f40e984"><path d="M -21.5 120.578125 L 126.230469 -21.027344 L 246.570312 104.515625 L 98.839844 246.125 Z M -21.5 120.578125 " clip-rule="nonzero"/></clipPath><clipPath id="1e11c7080b"><path d="M -21.5 120.578125 L 126.230469 -21.027344 L 246.570312 104.515625 L 98.839844 246.125 Z M -21.5 120.578125 " clip-rule="nonzero"/></clipPath><clipPath id="e98593b21c"><path d="M -21.5 120.578125 L 126.230469 -21.027344 L 246.570312 104.515625 L 98.839844 246.125 Z M -21.5 120.578125 " clip-rule="nonzero"/></clipPath><clipPath id="e4ecaa3770"><path d="M 59 151 L 75 151 L 75 167 L 59 167 Z M 59 151 " clip-rule="nonzero"/></clipPath><clipPath id="61aa640f48"><path d="M -21.5 120.578125 L 126.230469 -21.027344 L 246.570312 104.515625 L 98.839844 246.125 Z M -21.5 120.578125 " clip-rule="nonzero"/></clipPath><clipPath id="2d1d822d49"><path d="M -21.5 120.578125 L 126.230469 -21.027344 L 246.570312 104.515625 L 98.839844 246.125 Z M -21.5 120.578125 " clip-rule="nonzero"/></clipPath><clipPath id="6c7c590325"><path d="M -21.5 120.578125 L 126.230469 -21.027344 L 246.570312 104.515625 L 98.839844 246.125 Z M -21.5 120.578125 " clip-rule="nonzero"/></clipPath><clipPath id="b2e87030d3"><path d="M 130 62 L 146 62 L 146 78 L 130 78 Z M 130 62 " clip-rule="nonzero"/></clipPath><clipPath id="66b6157b3a"><path d="M -21.5 120.578125 L 126.230469 -21.027344 L 246.570312 104.515625 L 98.839844 246.125 Z M -21.5 120.578125 " clip-rule="nonzero"/></clipPath><clipPath id="6e5f80fb7b"><path d="M -21.5 120.578125 L 126.230469 -21.027344 L 246.570312 104.515625 L 98.839844 246.125 Z M -21.5 120.578125 " clip-rule="nonzero"/></clipPath><clipPath id="c950d63281"><path d="M -21.5 120.578125 L 126.230469 -21.027344 L 246.570312 104.515625 L 98.839844 246.125 Z M -21.5 120.578125 " clip-rule="nonzero"/></clipPath><clipPath id="4cc6d93c6e"><path d="M 149 62 L 165 62 L 165 78 L 149 78 Z M 149 62 " clip-rule="nonzero"/></clipPath><clipPath id="254242d552"><path d="M -21.5 120.578125 L 126.230469 -21.027344 L 246.570312 104.515625 L 98.839844 246.125 Z M -21.5 120.578125 " clip-rule="nonzero"/></clipPath><clipPath id="b7142d360d"><path d="M -21.5 120.578125 L 126.230469 -21.027344 L 246.570312 104.515625 L 98.839844 246.125 Z M -21.5 120.578125 " clip-rule="nonzero"/></clipPath><clipPath id="1ed2cfadad"><path d="M -21.5 120.578125 L 126.230469 -21.027344 L 246.570312 104.515625 L 98.839844 246.125 Z M -21.5 120.578125 " clip-rule="nonzero"/></clipPath><clipPath id="c5f042d6da"><path d="M 149 80 L 164 80 L 164 96 L 149 96 Z M 149 80 " clip-rule="nonzero"/></clipPath><clipPath id="688a01bc9e"><path d="M -21.5 120.578125 L 126.230469 -21.027344 L 246.570312 104.515625 L 98.839844 246.125 Z M -21.5 120.578125 " clip-rule="nonzero"/></clipPath><clipPath id="0b9f1f8207"><path d="M -21.5 120.578125 L 126.230469 -21.027344 L 246.570312 104.515625 L 98.839844 246.125 Z M -21.5 120.578125 " clip-rule="nonzero"/></clipPath><clipPath id="951c3b5341"><path d="M -21.5 120.578125 L 126.230469 -21.027344 L 246.570312 104.515625 L 98.839844 246.125 Z M -21.5 120.578125 " clip-rule="nonzero"/></clipPath><clipPath id="619c4c65ed"><path d="M 130 81 L 146 81 L 146 97 L 130 97 Z M 130 81 " clip-rule="nonzero"/></clipPath><clipPath id="7ba7c96281"><path d="M -21.5 120.578125 L 126.230469 -21.027344 L 246.570312 104.515625 L 98.839844 246.125 Z M -21.5 120.578125 " clip-rule="nonzero"/></clipPath><clipPath id="e1524882e1"><path d="M -21.5 120.578125 L 126.230469 -21.027344 L 246.570312 104.515625 L 98.839844 246.125 Z M -21.5 120.578125 " clip-rule="nonzero"/></clipPath><clipPath id="b7923a07f9"><path d="M -21.5 120.578125 L 126.230469 -21.027344 L 246.570312 104.515625 L 98.839844 246.125 Z M -21.5 120.578125 " clip-rule="nonzero"/></clipPath><clipPath id="7857414fba"><path d="M 97 55 L 134 55 L 134 108 L 97 108 Z M 97 55 " clip-rule="nonzero"/></clipPath><clipPath id="8c59a7fc1f"><path d="M -21.5 120.578125 L 126.230469 -21.027344 L 246.570312 104.515625 L 98.839844 246.125 Z M -21.5 120.578125 " clip-rule="nonzero"/></clipPath><clipPath id="0df674909a"><path d="M -21.5 120.578125 L 126.230469 -21.027344 L 246.570312 104.515625 L 98.839844 246.125 Z M -21.5 120.578125 " clip-rule="nonzero"/></clipPath><clipPath id="49bc1fe6e0"><path d="M -21.5 120.578125 L 126.230469 -21.027344 L 246.570312 104.515625 L 98.839844 246.125 Z M -21.5 120.578125 " clip-rule="nonzero"/></clipPath><clipPath id="9631fb13c8"><path d="M 45 99 L 98 99 L 98 137 L 45 137 Z M 45 99 " clip-rule="nonzero"/></clipPath><clipPath id="c55e6663c5"><path d="M -21.5 120.578125 L 126.230469 -21.027344 L 246.570312 104.515625 L 98.839844 246.125 Z M -21.5 120.578125 " clip-rule="nonzero"/></clipPath><clipPath id="5aeda40b77"><path d="M -21.5 120.578125 L 126.230469 -21.027344 L 246.570312 104.515625 L 98.839844 246.125 Z M -21.5 120.578125 " clip-rule="nonzero"/></clipPath><clipPath id="6222befac7"><path d="M -21.5 120.578125 L 126.230469 -21.027344 L 246.570312 104.515625 L 98.839844 246.125 Z M -21.5 120.578125 " clip-rule="nonzero"/></clipPath></defs><g clip-path="url(#aab96b7ac1)"><g clip-path="url(#19e217865a)"><g clip-path="url(#6773b33aca)"><g clip-path="url(#1953335f51)"><path fill="#608431" d="M 178.734375 106.234375 C 152.671875 129.828125 128.664062 153.675781 106.601562 177.828125 C 91.203125 192.984375 67.1875 193.46875 52.675781 179.003906 C 38.230469 164.367188 38.886719 140.285156 54.167969 125.183594 C 76.28125 105.628906 100.222656 81.949219 126.351562 53.703125 C 141.703125 38.433594 165.878906 38.003906 180.277344 52.527344 C 194.671875 67.046875 194.019531 91.128906 178.734375 106.234375 Z M 178.734375 106.234375 " fill-opacity="1" fill-rule="nonzero"/></g></g></g></g><g clip-path="url(#d1aeb324cc)"><g clip-path="url(#91c94626b6)"><g clip-path="url(#d05fcdff11)"><g clip-path="url(#3da180450f)"><path fill="#261947" d="M 93.53125 84.164062 L 82.65625 95.007812 L 79.820312 92.003906 C 77.652344 89.902344 77.8125 86.429688 80.023438 84.160156 L 82.765625 81.507812 C 84.980469 79.238281 88.570312 79.171875 90.625 81.324219 Z M 93.53125 84.164062 " fill-opacity="1" fill-rule="nonzero"/></g></g></g></g><g clip-path="url(#e30a0f8c76)"><g clip-path="url(#e83a7db339)"><g clip-path="url(#8720069cdb)"><g clip-path="url(#597184dc42)"><path fill="#5c4b99" d="M 90.25 80.144531 C 86.316406 83.902344 82.441406 87.683594 78.617188 91.484375 C 77.957031 92.203125 78.910156 93.109375 79.621094 92.503906 C 83.441406 88.703125 87.300781 84.886719 91.203125 81.050781 C 91.796875 80.5 90.796875 79.476562 90.25 80.144531 Z M 90.25 80.144531 " fill-opacity="1" fill-rule="nonzero"/></g></g></g></g><g clip-path="url(#38901405fd)"><g clip-path="url(#cd36708f33)"><g clip-path="url(#4b5a08c53c)"><g clip-path="url(#1de4334b29)"><path fill="#7daa48" d="M 174.082031 104.496094 C 148.199219 127.871094 124.375 151.492188 102.492188 175.421875 C 87.324219 190.472656 63.359375 191.070312 49.011719 176.660156 C 34.664062 162.25 35.367188 138.28125 50.535156 123.234375 C 72.46875 103.898438 96.226562 80.441406 122.125 52.304688 C 137.292969 37.257812 161.304688 36.773438 175.652344 51.183594 C 190 65.589844 189.25 89.445312 174.082031 104.496094 Z M 174.082031 104.496094 " fill-opacity="1" fill-rule="nonzero"/></g></g></g></g><g clip-path="url(#3db6691e00)"><g clip-path="url(#0803877731)"><g clip-path="url(#ea376139ab)"><g clip-path="url(#c398f2da2b)"><path fill="#608431" d="M 149.753906 110.015625 C 149.644531 109.980469 149.535156 109.941406 149.425781 109.902344 C 149.316406 109.863281 149.222656 109.863281 149.144531 109.898438 C 149.070312 109.933594 149.03125 109.953125 149.03125 109.953125 C 148.875 110.023438 148.777344 110.117188 148.734375 110.230469 C 148.6875 110.339844 148.667969 110.394531 148.667969 110.394531 C 148.621094 110.507812 148.632812 110.636719 148.699219 110.789062 L 148.761719 111.574219 C 148.792969 111.648438 148.828125 111.722656 148.859375 111.800781 C 148.925781 111.949219 149.011719 112.042969 149.121094 112.082031 C 149.15625 112.15625 149.210938 112.175781 149.285156 112.140625 C 149.394531 112.179688 149.488281 112.179688 149.566406 112.144531 C 149.644531 112.109375 149.722656 112.070312 149.796875 112.035156 C 149.875 112 149.972656 111.90625 150.09375 111.757812 C 150.0625 111.683594 150.085938 111.628906 150.160156 111.589844 C 150.207031 111.480469 150.195312 111.347656 150.128906 111.199219 C 150.109375 110.9375 150.085938 110.675781 150.066406 110.414062 C 150.035156 110.339844 150 110.261719 149.96875 110.1875 C 149.824219 110.074219 149.753906 110.015625 149.753906 110.015625 Z M 149.753906 110.015625 " fill-opacity="1" fill-rule="nonzero"/></g></g></g></g><g clip-path="url(#79f50a726e)"><g clip-path="url(#82e7a6b505)"><g clip-path="url(#fc8d3db89c)"><g clip-path="url(#6a9877a4a6)"><path fill="#608431" d="M 151.566406 109.703125 C 151.535156 109.628906 151.425781 109.589844 151.238281 109.589844 C 151.160156 109.625 151.085938 109.660156 151.007812 109.699219 C 150.929688 109.734375 150.851562 109.769531 150.777344 109.804688 C 150.65625 109.953125 150.589844 110.121094 150.578125 110.308594 C 150.566406 110.496094 150.632812 110.644531 150.773438 110.757812 C 150.980469 111.023438 151.171875 111.25 151.347656 111.4375 C 151.378906 111.511719 151.453125 111.570312 151.5625 111.609375 C 151.671875 111.648438 151.765625 111.648438 151.839844 111.613281 C 151.949219 111.652344 152.042969 111.652344 152.121094 111.617188 C 152.199219 111.578125 152.257812 111.503906 152.304688 111.394531 C 152.425781 111.246094 152.492188 111.078125 152.503906 110.890625 C 152.515625 110.707031 152.488281 110.539062 152.421875 110.386719 C 152.167969 110.234375 151.957031 110.0625 151.78125 109.875 C 151.714844 109.726562 151.644531 109.667969 151.566406 109.703125 Z M 151.566406 109.703125 " fill-opacity="1" fill-rule="nonzero"/></g></g></g></g><g clip-path="url(#efda69b2c0)"><g clip-path="url(#37aad96e9d)"><g clip-path="url(#b500748649)"><g clip-path="url(#8e667cbaff)"><path fill="#608431" d="M 145.71875 48.625 C 145.609375 48.585938 145.460938 48.5625 145.273438 48.5625 C 145.273438 48.5625 145.238281 48.578125 145.160156 48.617188 C 144.972656 48.613281 144.855469 48.667969 144.8125 48.78125 C 144.691406 48.929688 144.59375 49.019531 144.515625 49.054688 C 144.394531 49.203125 144.351562 49.316406 144.382812 49.390625 C 144.304688 49.425781 144.246094 49.5 144.199219 49.613281 C 144.234375 49.6875 144.265625 49.761719 144.300781 49.835938 C 144.363281 49.988281 144.414062 50.101562 144.445312 50.175781 C 144.523438 50.140625 144.578125 50.160156 144.609375 50.234375 C 144.71875 50.273438 144.828125 50.3125 144.941406 50.351562 C 145.015625 50.3125 145.09375 50.277344 145.171875 50.242188 C 145.28125 50.28125 145.355469 50.242188 145.402344 50.132812 C 145.523438 49.984375 145.644531 49.835938 145.765625 49.6875 C 145.84375 49.652344 145.902344 49.578125 145.945312 49.464844 C 146.023438 49.429688 146.03125 49.335938 145.964844 49.1875 C 146.007812 49.074219 146.015625 48.980469 145.980469 48.90625 C 145.949219 48.832031 145.878906 48.773438 145.769531 48.734375 C 145.734375 48.660156 145.71875 48.625 145.71875 48.625 Z M 145.71875 48.625 " fill-opacity="1" fill-rule="nonzero"/></g></g></g></g><g clip-path="url(#d79447585e)"><g clip-path="url(#74e926c2a1)"><g clip-path="url(#35a1e9bc70)"><g clip-path="url(#5a19c1d19e)"><path fill="#608431" d="M 142.921875 48.585938 C 142.886719 48.511719 142.816406 48.457031 142.707031 48.417969 C 142.628906 48.453125 142.535156 48.453125 142.425781 48.414062 C 142.347656 48.449219 142.273438 48.484375 142.195312 48.523438 C 142.117188 48.558594 142.042969 48.59375 141.964844 48.632812 C 141.921875 48.742188 141.875 48.855469 141.832031 48.964844 L 141.765625 49.132812 C 141.753906 49.320312 141.765625 49.449219 141.796875 49.527344 C 141.941406 49.640625 142.058594 49.808594 142.15625 50.035156 C 142.191406 50.109375 142.261719 50.167969 142.371094 50.207031 C 142.402344 50.28125 142.476562 50.335938 142.585938 50.375 C 142.660156 50.339844 142.753906 50.339844 142.863281 50.378906 C 142.941406 50.34375 143.019531 50.304688 143.097656 50.269531 C 143.171875 50.234375 143.234375 50.160156 143.277344 50.046875 C 143.355469 50.011719 143.414062 49.9375 143.460938 49.828125 L 143.527344 49.660156 C 143.460938 49.507812 143.410156 49.398438 143.378906 49.320312 C 143.28125 49.097656 143.199219 48.910156 143.132812 48.757812 C 143.101562 48.683594 143.03125 48.625 142.921875 48.585938 Z M 142.921875 48.585938 " fill-opacity="1" fill-rule="nonzero"/></g></g></g></g><g clip-path="url(#f3b8d7bd51)"><g clip-path="url(#722cd85323)"><g clip-path="url(#7fd88bbf43)"><g clip-path="url(#28e6010263)"><path fill="#608431" d="M 90.46875 109.109375 C 90.359375 109.070312 90.265625 109.070312 90.1875 109.105469 C 90.078125 109.066406 89.984375 109.066406 89.910156 109.101562 C 89.800781 109.066406 89.707031 109.0625 89.628906 109.101562 C 89.507812 109.246094 89.386719 109.394531 89.265625 109.542969 L 89.363281 109.769531 C 89.320312 109.878906 89.3125 109.972656 89.34375 110.046875 C 89.476562 110.347656 89.625 110.6875 89.785156 111.0625 C 89.820312 111.136719 89.890625 111.195312 90 111.234375 C 90.03125 111.308594 90.089844 111.328125 90.164062 111.292969 C 90.273438 111.328125 90.367188 111.332031 90.445312 111.292969 C 90.554688 111.332031 90.648438 111.335938 90.726562 111.296875 C 90.921875 111.113281 91.042969 110.964844 91.089844 110.855469 L 91.105469 110.574219 C 91.074219 110.5 91.039062 110.425781 91.007812 110.347656 C 90.878906 110.050781 90.730469 109.710938 90.566406 109.335938 C 90.535156 109.261719 90.5 109.183594 90.46875 109.109375 Z M 90.46875 109.109375 " fill-opacity="1" fill-rule="nonzero"/></g></g></g></g><g clip-path="url(#1104dca4fe)"><g clip-path="url(#1373298b74)"><g clip-path="url(#b613d96827)"><g clip-path="url(#1d82cf4476)"><path fill="#608431" d="M 92.726562 108.859375 C 92.617188 108.820312 92.523438 108.816406 92.445312 108.855469 C 92.335938 108.816406 92.242188 108.8125 92.164062 108.851562 C 92.054688 108.8125 91.964844 108.8125 91.886719 108.847656 C 91.808594 108.882812 91.75 108.957031 91.703125 109.070312 C 91.660156 109.179688 91.597656 109.253906 91.523438 109.289062 L 91.503906 109.570312 C 91.539062 109.644531 91.585938 109.757812 91.652344 109.910156 C 91.652344 109.910156 91.667969 109.945312 91.699219 110.019531 C 91.8125 110.058594 91.921875 110.097656 92.03125 110.136719 C 92.140625 110.175781 92.210938 110.234375 92.242188 110.308594 C 92.351562 110.347656 92.445312 110.347656 92.523438 110.3125 C 92.601562 110.273438 92.714844 110.21875 92.871094 110.148438 C 92.945312 110.113281 93.007812 110.039062 93.050781 109.925781 C 93.128906 109.890625 93.152344 109.832031 93.117188 109.757812 L 93.183594 109.589844 C 93.195312 109.40625 93.1875 109.273438 93.152344 109.199219 C 93.121094 109.125 93.066406 109.105469 92.988281 109.140625 C 92.921875 108.992188 92.835938 108.894531 92.726562 108.859375 Z M 92.726562 108.859375 " fill-opacity="1" fill-rule="nonzero"/></g></g></g></g><g clip-path="url(#5922dfeee4)"><g clip-path="url(#eea5196c3c)"><g clip-path="url(#6565362f9a)"><g clip-path="url(#7a66c19c1b)"><path fill="#608431" d="M 110.09375 131.484375 C 109.984375 131.445312 109.875 131.40625 109.765625 131.367188 C 109.390625 131.363281 109.074219 131.378906 108.808594 131.410156 C 108.699219 131.371094 108.605469 131.371094 108.527344 131.40625 C 108.375 131.480469 108.257812 131.535156 108.183594 131.570312 C 108.136719 131.683594 108.132812 131.777344 108.164062 131.851562 C 108.089844 131.886719 108.027344 131.960938 107.984375 132.074219 C 107.972656 132.261719 108.054688 132.449219 108.230469 132.636719 C 108.230469 132.636719 108.285156 132.65625 108.394531 132.695312 C 108.503906 132.734375 108.613281 132.773438 108.722656 132.8125 C 109.09375 132.816406 109.414062 132.800781 109.675781 132.765625 C 109.785156 132.804688 109.878906 132.808594 109.957031 132.769531 C 110.109375 132.699219 110.226562 132.644531 110.304688 132.605469 C 110.347656 132.496094 110.355469 132.402344 110.320312 132.328125 C 110.398438 132.289062 110.457031 132.214844 110.503906 132.105469 C 110.515625 131.917969 110.433594 131.730469 110.257812 131.542969 C 110.257812 131.542969 110.203125 131.523438 110.09375 131.484375 Z M 110.09375 131.484375 " fill-opacity="1" fill-rule="nonzero"/></g></g></g></g><g clip-path="url(#58590d9edb)"><g clip-path="url(#d7ac9932cf)"><g clip-path="url(#bc56cc367f)"><g clip-path="url(#572bbe7d41)"><path fill="#608431" d="M 110.53125 128.96875 C 110.421875 128.929688 110.3125 128.890625 110.199219 128.851562 L 110.085938 128.90625 C 109.933594 128.980469 109.816406 129.035156 109.738281 129.070312 L 109.441406 129.347656 C 109.398438 129.460938 109.351562 129.570312 109.308594 129.683594 C 109.230469 129.71875 109.171875 129.792969 109.128906 129.902344 C 109.160156 129.980469 109.191406 130.054688 109.226562 130.128906 C 109.289062 130.277344 109.339844 130.390625 109.371094 130.46875 C 109.449219 130.429688 109.503906 130.449219 109.535156 130.523438 C 109.648438 130.5625 109.757812 130.601562 109.867188 130.640625 L 110.097656 130.53125 C 110.175781 130.496094 110.289062 130.441406 110.441406 130.367188 L 110.742188 130.09375 C 110.785156 129.980469 110.84375 129.90625 110.921875 129.871094 C 110.890625 129.796875 110.894531 129.703125 110.941406 129.589844 C 110.90625 129.515625 110.875 129.441406 110.839844 129.363281 C 110.886719 129.253906 110.835938 129.140625 110.695312 129.027344 C 110.695312 129.027344 110.640625 129.007812 110.53125 128.96875 Z M 110.53125 128.96875 " fill-opacity="1" fill-rule="nonzero"/></g></g></g></g><g clip-path="url(#312a243b89)"><g clip-path="url(#94cb485172)"><g clip-path="url(#3708661d5a)"><g clip-path="url(#a794d45fba)"><path fill="#608431" d="M 89.308594 177.441406 C 89.058594 177.289062 88.820312 177.175781 88.601562 177.097656 C 88.570312 177.023438 88.515625 177.003906 88.4375 177.039062 C 88.328125 177 88.234375 177 88.15625 177.035156 C 88.082031 177.074219 87.964844 177.128906 87.8125 177.199219 C 87.734375 177.238281 87.675781 177.3125 87.628906 177.421875 L 87.5625 177.589844 C 87.519531 177.699219 87.53125 177.832031 87.59375 177.980469 C 87.59375 177.980469 87.609375 178.019531 87.644531 178.09375 C 87.710938 178.246094 87.796875 178.339844 87.90625 178.378906 C 88.125 178.457031 88.304688 178.550781 88.449219 178.664062 C 88.558594 178.703125 88.667969 178.742188 88.777344 178.78125 C 88.855469 178.746094 88.949219 178.746094 89.058594 178.785156 C 89.136719 178.746094 89.195312 178.675781 89.238281 178.5625 C 89.316406 178.527344 89.394531 178.488281 89.472656 178.453125 C 89.515625 178.34375 89.539062 178.285156 89.539062 178.285156 C 89.546875 178.097656 89.578125 177.949219 89.621094 177.839844 C 89.589844 177.765625 89.554688 177.6875 89.523438 177.613281 C 89.414062 177.574219 89.34375 177.519531 89.308594 177.441406 Z M 89.308594 177.441406 " fill-opacity="1" fill-rule="nonzero"/></g></g></g></g><g clip-path="url(#0455696640)"><g clip-path="url(#8d7ea9894f)"><g clip-path="url(#f25fc2a5c0)"><g clip-path="url(#3ab2945874)"><path fill="#608431" d="M 86.671875 178.417969 C 86.5625 178.378906 86.507812 178.359375 86.507812 178.359375 C 86.398438 178.320312 86.304688 178.320312 86.226562 178.355469 C 86.148438 178.394531 86.074219 178.429688 85.996094 178.464844 C 85.917969 178.503906 85.820312 178.59375 85.699219 178.742188 L 85.632812 178.910156 C 85.585938 179.023438 85.597656 179.152344 85.664062 179.300781 C 85.652344 179.488281 85.679688 179.65625 85.746094 179.808594 C 85.699219 179.917969 85.734375 179.996094 85.84375 180.03125 C 85.90625 180.183594 85.996094 180.277344 86.105469 180.316406 C 86.105469 180.316406 86.160156 180.335938 86.269531 180.375 C 86.378906 180.414062 86.472656 180.414062 86.550781 180.378906 L 86.78125 180.269531 C 86.855469 180.234375 86.917969 180.160156 86.960938 180.046875 L 87.144531 179.824219 C 87.109375 179.75 87.101562 179.621094 87.113281 179.433594 C 87.046875 179.28125 87.019531 179.113281 87.03125 178.925781 C 86.964844 178.777344 86.917969 178.664062 86.882812 178.589844 C 86.851562 178.515625 86.78125 178.457031 86.671875 178.417969 Z M 86.671875 178.417969 " fill-opacity="1" fill-rule="nonzero"/></g></g></g></g><g clip-path="url(#a47d7562e0)"><g clip-path="url(#25a0f2bf54)"><g clip-path="url(#0f1397f609)"><g clip-path="url(#8f55ec7b6b)"><path fill="#608431" d="M 46.632812 143.691406 C 46.300781 143.574219 45.988281 143.496094 45.691406 143.453125 C 45.507812 143.453125 45.335938 143.488281 45.183594 143.558594 C 45.105469 143.597656 45.027344 143.632812 44.953125 143.667969 C 44.90625 143.78125 44.863281 143.890625 44.820312 144.003906 C 44.808594 144.191406 44.832031 144.359375 44.898438 144.507812 C 44.964844 144.660156 45.105469 144.773438 45.328125 144.851562 C 45.621094 144.890625 45.917969 144.933594 46.214844 144.972656 C 46.433594 145.050781 46.621094 145.050781 46.773438 144.980469 C 46.851562 144.945312 46.914062 144.871094 46.957031 144.757812 C 47.035156 144.722656 47.09375 144.648438 47.140625 144.535156 C 47.152344 144.347656 47.125 144.179688 47.058594 144.03125 C 46.960938 143.804688 46.816406 143.691406 46.632812 143.691406 Z M 46.632812 143.691406 " fill-opacity="1" fill-rule="nonzero"/></g></g></g></g><g clip-path="url(#863dc82e52)"><g clip-path="url(#30243be223)"><g clip-path="url(#817b19159b)"><g clip-path="url(#75f93d3047)"><path fill="#608431" d="M 122.753906 97.242188 C 122.644531 97.207031 122.550781 97.203125 122.472656 97.242188 C 122.363281 97.203125 122.269531 97.199219 122.195312 97.238281 C 122.117188 97.273438 122.054688 97.347656 122.011719 97.460938 C 121.933594 97.496094 121.859375 97.53125 121.78125 97.566406 C 121.738281 97.679688 121.730469 97.773438 121.765625 97.847656 L 121.746094 98.128906 C 121.777344 98.203125 121.828125 98.316406 121.894531 98.464844 L 122.105469 98.636719 C 122.140625 98.710938 122.195312 98.730469 122.273438 98.695312 C 122.382812 98.734375 122.492188 98.773438 122.601562 98.8125 C 122.675781 98.773438 122.753906 98.738281 122.832031 98.703125 C 122.910156 98.664062 122.984375 98.628906 123.0625 98.59375 C 123.140625 98.554688 123.199219 98.480469 123.246094 98.371094 C 123.289062 98.257812 123.292969 98.164062 123.261719 98.089844 C 123.304688 97.980469 123.328125 97.921875 123.328125 97.921875 C 123.261719 97.773438 123.214844 97.660156 123.179688 97.585938 L 122.96875 97.414062 C 122.933594 97.339844 122.863281 97.28125 122.753906 97.242188 Z M 122.753906 97.242188 " fill-opacity="1" fill-rule="nonzero"/></g></g></g></g><g clip-path="url(#d6b6d5253d)"><g clip-path="url(#21c0949cb3)"><g clip-path="url(#f8c2d071ad)"><g clip-path="url(#5f0dbb2f4b)"><path fill="#e04154" d="M 110.691406 119.109375 L 106.695312 123.039062 C 105.734375 124.035156 104.222656 124.070312 103.269531 123.164062 C 102.316406 122.253906 102.421875 120.574219 103.429688 119.691406 L 107.3125 115.820312 C 108.269531 114.824219 109.785156 114.785156 110.738281 115.695312 C 111.6875 116.601562 111.699219 118.226562 110.691406 119.109375 Z M 110.691406 119.109375 " fill-opacity="1" fill-rule="nonzero"/></g></g></g></g><g clip-path="url(#5a1cd868ed)"><g clip-path="url(#138dda65e3)"><g clip-path="url(#d89b67d36a)"><g clip-path="url(#3a0b0e43d1)"><path fill="#e04154" d="M 121.5 108.433594 L 117.617188 112.304688 C 116.65625 113.300781 115.09375 113.226562 114.140625 112.320312 C 113.1875 111.410156 113.226562 109.898438 114.183594 108.902344 L 118.183594 104.972656 C 119.191406 104.089844 120.707031 104.054688 121.660156 104.960938 C 122.609375 105.871094 122.457031 107.4375 121.5 108.433594 Z M 121.5 108.433594 " fill-opacity="1" fill-rule="nonzero"/></g></g></g></g><g clip-path="url(#621946c85e)"><g clip-path="url(#ab9914aa6a)"><g clip-path="url(#b5845b25f4)"><g clip-path="url(#cffc61d90d)"><path fill="#8374d1" d="M 95.472656 130.515625 C 105.4375 140.613281 104.308594 157.855469 93.6875 168.308594 C 83.179688 178.710938 67.285156 178.34375 57.371094 168.359375 C 47.457031 158.378906 47.210938 142.464844 57.71875 132.0625 C 68.226562 121.660156 85.554688 120.53125 95.472656 130.515625 Z M 95.472656 130.515625 " fill-opacity="1" fill-rule="nonzero"/></g></g></g></g><g clip-path="url(#060e1a9e04)"><g clip-path="url(#2c93097ac8)"><g clip-path="url(#890c48a161)"><g clip-path="url(#3577f6f043)"><path fill="#e04154" d="M 166.398438 60.308594 C 176.316406 70.292969 175.191406 87.535156 164.679688 97.933594 C 154.058594 108.390625 138.167969 108.023438 128.25 98.039062 C 118.335938 88.058594 118.140625 72.257812 128.597656 61.742188 C 139.105469 51.339844 156.484375 50.324219 166.398438 60.308594 Z M 166.398438 60.308594 " fill-opacity="1" fill-rule="nonzero"/></g></g></g></g><g clip-path="url(#2ea88bc7ba)"><g clip-path="url(#f3c0b71292)"><g clip-path="url(#2dbae2042a)"><g clip-path="url(#6ffc6d87e5)"><path fill="#3d246c" d="M 73.792969 142.125 L 69.132812 146.769531 C 67.992188 147.988281 66.035156 147.964844 64.984375 146.832031 L 60.550781 142.40625 C 59.5 141.273438 59.554688 139.480469 60.695312 138.261719 L 65.40625 133.726562 C 66.546875 132.507812 68.339844 132.476562 69.507812 133.554688 L 73.9375 137.980469 C 74.988281 139.113281 74.984375 141.019531 73.792969 142.125 Z M 73.792969 142.125 " fill-opacity="1" fill-rule="nonzero"/></g></g></g></g><g clip-path="url(#5e8807a278)"><g clip-path="url(#cb47825ae3)"><g clip-path="url(#39d536a76b)"><g clip-path="url(#972d680a97)"><path fill="#3d246c" d="M 83.890625 146.453125 L 79.460938 142.027344 C 78.292969 140.949219 78.464844 139.101562 79.605469 137.882812 L 84.265625 133.234375 C 85.453125 132.128906 87.25 132.09375 88.414062 133.175781 L 92.730469 137.652344 C 93.898438 138.734375 93.890625 140.636719 92.703125 141.742188 L 88.042969 146.390625 C 86.851562 147.496094 84.941406 147.585938 83.890625 146.453125 Z M 83.890625 146.453125 " fill-opacity="1" fill-rule="nonzero"/></g></g></g></g><g clip-path="url(#8cef42439f)"><g clip-path="url(#a62f40e984)"><g clip-path="url(#1e11c7080b)"><g clip-path="url(#e98593b21c)"><path fill="#3d246c" d="M 79.050781 156.753906 L 83.710938 152.109375 C 84.898438 151.003906 86.695312 150.96875 87.859375 152.046875 L 92.292969 156.472656 C 93.34375 157.605469 93.289062 159.398438 92.148438 160.617188 L 87.488281 165.265625 C 86.296875 166.371094 84.386719 166.457031 83.335938 165.324219 L 78.90625 160.898438 C 77.855469 159.765625 77.910156 157.972656 79.050781 156.753906 Z M 79.050781 156.753906 " fill-opacity="1" fill-rule="nonzero"/></g></g></g></g><g clip-path="url(#e4ecaa3770)"><g clip-path="url(#61aa640f48)"><g clip-path="url(#2d1d822d49)"><g clip-path="url(#6c7c590325)"><path fill="#3d246c" d="M 68.953125 152.425781 L 73.382812 156.851562 C 74.433594 157.984375 74.429688 159.890625 73.238281 160.996094 L 68.578125 165.644531 C 67.390625 166.75 65.59375 166.785156 64.429688 165.703125 L 59.996094 161.28125 C 58.945312 160.144531 59 158.355469 60.140625 157.136719 L 64.800781 152.488281 C 65.992188 151.382812 67.785156 151.347656 68.953125 152.425781 Z M 68.953125 152.425781 " fill-opacity="1" fill-rule="nonzero"/></g></g></g></g><g clip-path="url(#b2e87030d3)"><g clip-path="url(#66b6157b3a)"><g clip-path="url(#6e5f80fb7b)"><g clip-path="url(#c950d63281)"><path fill="#e0752d" d="M 144.722656 71.917969 L 140.0625 76.5625 C 138.875 77.667969 137.078125 77.703125 135.914062 76.625 L 131.480469 72.199219 C 130.429688 71.066406 130.4375 69.160156 131.625 68.054688 L 136.285156 63.40625 C 137.472656 62.300781 139.269531 62.269531 140.433594 63.347656 L 144.867188 67.773438 C 145.917969 68.90625 145.863281 70.699219 144.722656 71.917969 Z M 144.722656 71.917969 " fill-opacity="1" fill-rule="nonzero"/></g></g></g></g><g clip-path="url(#4cc6d93c6e)"><g clip-path="url(#254242d552)"><g clip-path="url(#b7142d360d)"><g clip-path="url(#1ed2cfadad)"><path fill="#e0752d" d="M 154.820312 76.246094 L 150.339844 71.707031 C 149.289062 70.574219 149.34375 68.78125 150.535156 67.675781 L 155.191406 63.027344 C 156.332031 61.808594 158.128906 61.777344 159.292969 62.855469 L 163.777344 67.390625 C 164.828125 68.523438 164.769531 70.316406 163.582031 71.421875 L 158.921875 76.070312 C 157.78125 77.289062 155.871094 77.378906 154.820312 76.246094 Z M 154.820312 76.246094 " fill-opacity="1" fill-rule="nonzero"/></g></g></g></g><g clip-path="url(#c5f042d6da)"><g clip-path="url(#688a01bc9e)"><g clip-path="url(#0b9f1f8207)"><g clip-path="url(#951c3b5341)"><path fill="#e0752d" d="M 149.980469 86.546875 L 154.636719 81.898438 C 155.777344 80.679688 157.6875 80.59375 158.738281 81.726562 L 163.171875 86.152344 C 164.269531 87.398438 164.214844 89.191406 163.027344 90.296875 L 158.367188 94.945312 C 157.226562 96.160156 155.433594 96.195312 154.265625 95.117188 L 149.785156 90.578125 C 148.734375 89.445312 148.789062 87.652344 149.980469 86.546875 Z M 149.980469 86.546875 " fill-opacity="1" fill-rule="nonzero"/></g></g></g></g><g clip-path="url(#619c4c65ed)"><g clip-path="url(#7ba7c96281)"><g clip-path="url(#e1524882e1)"><g clip-path="url(#b7923a07f9)"><path fill="#e0752d" d="M 139.878906 82.21875 L 144.3125 86.644531 C 145.363281 87.777344 145.308594 89.570312 144.167969 90.789062 L 139.457031 95.324219 C 138.320312 96.542969 136.523438 96.574219 135.359375 95.496094 L 130.925781 91.070312 C 129.875 89.9375 129.878906 88.035156 131.070312 86.929688 L 135.730469 82.28125 C 136.871094 81.0625 138.828125 81.085938 139.878906 82.21875 Z M 139.878906 82.21875 " fill-opacity="1" fill-rule="nonzero"/></g></g></g></g><g clip-path="url(#7857414fba)"><g clip-path="url(#8c59a7fc1f)"><g clip-path="url(#0df674909a)"><g clip-path="url(#49bc1fe6e0)"><path stroke-linecap="round" transform="matrix(1.229775, -1.178785, 1.17981, 1.230844, -21.421765, 120.50178)" fill="none" stroke-linejoin="miter" d="M 77.211501 35.172067 C 74.007949 37.140569 71.691194 40.164645 70.726861 43.639758 " stroke="#261947" stroke-width="0.7" stroke-opacity="1" stroke-miterlimit="10"/></g></g></g></g><g clip-path="url(#9631fb13c8)"><g clip-path="url(#c55e6663c5)"><g clip-path="url(#5aeda40b77)"><g clip-path="url(#6222befac7)"><path stroke-linecap="round" transform="matrix(1.229775, -1.178785, 1.17981, 1.230844, -21.421765, 120.50178)" fill="none" stroke-linejoin="miter" d="M 35.760723 33.856405 C 37.637565 34.181299 39.386868 35.069552 40.868211 36.247046 C 42.279333 37.401718 43.492786 38.87169 44.444858 40.405526 " stroke="#261947" stroke-width="0.7" stroke-opacity="1" stroke-miterlimit="10"/></g></g></g></g></svg>