<svg xmlns="http://www.w3.org/2000/svg" xmlns:xlink="http://www.w3.org/1999/xlink" width="300" zoomAndPan="magnify" viewBox="0 0 224.87999 225" height="300" preserveAspectRatio="xMidYMid meet" version="1.0"><defs><clipPath id="9ed52591c1"><path d="M 43 99 L 98 99 L 98 153 L 43 153 Z M 43 99 " clip-rule="nonzero"/></clipPath><clipPath id="969c45a2fb"><path d="M -18.898438 82.847656 L 135.726562 -20.351562 L 243.917969 141.757812 L 89.292969 244.953125 Z M -18.898438 82.847656 " clip-rule="nonzero"/></clipPath><clipPath id="e1f2b412d6"><path d="M -18.898438 82.847656 L 135.726562 -20.351562 L 243.917969 141.757812 L 89.292969 244.953125 Z M -18.898438 82.847656 " clip-rule="nonzero"/></clipPath><clipPath id="710c70318a"><path d="M -18.898438 82.847656 L 135.726562 -20.351562 L 243.917969 141.757812 L 89.292969 244.953125 Z M -18.898438 82.847656 " clip-rule="nonzero"/></clipPath><clipPath id="72460d3f78"><path d="M 124 47 L 160 47 L 160 108 L 124 108 Z M 124 47 " clip-rule="nonzero"/></clipPath><clipPath id="7b97f269c1"><path d="M -18.898438 82.847656 L 135.726562 -20.351562 L 243.917969 141.757812 L 89.292969 244.953125 Z M -18.898438 82.847656 " clip-rule="nonzero"/></clipPath><clipPath id="9cd850a1bb"><path d="M -18.898438 82.847656 L 135.726562 -20.351562 L 243.917969 141.757812 L 89.292969 244.953125 Z M -18.898438 82.847656 " clip-rule="nonzero"/></clipPath><clipPath id="3fb325ccb3"><path d="M -18.898438 82.847656 L 135.726562 -20.351562 L 243.917969 141.757812 L 89.292969 244.953125 Z M -18.898438 82.847656 " clip-rule="nonzero"/></clipPath><clipPath id="5dced3d05b"><path d="M 64 94 L 194 94 L 194 190 L 64 190 Z M 64 94 " clip-rule="nonzero"/></clipPath><clipPath id="c74c2a8cd0"><path d="M -18.898438 82.847656 L 135.726562 -20.351562 L 243.917969 141.757812 L 89.292969 244.953125 Z M -18.898438 82.847656 " clip-rule="nonzero"/></clipPath><clipPath id="2faeab4573"><path d="M -18.898438 82.847656 L 135.726562 -20.351562 L 243.917969 141.757812 L 89.292969 244.953125 Z M -18.898438 82.847656 " clip-rule="nonzero"/></clipPath><clipPath id="cbfaa12868"><path d="M -18.898438 82.847656 L 135.726562 -20.351562 L 243.917969 141.757812 L 89.292969 244.953125 Z M -18.898438 82.847656 " clip-rule="nonzero"/></clipPath><clipPath id="b17f0c5897"><path d="M 21 34 L 182 34 L 182 172 L 21 172 Z M 21 34 " clip-rule="nonzero"/></clipPath><clipPath id="b05ec36803"><path d="M -18.898438 82.847656 L 135.726562 -20.351562 L 243.917969 141.757812 L 89.292969 244.953125 Z M -18.898438 82.847656 " clip-rule="nonzero"/></clipPath><clipPath id="45fd1ce721"><path d="M -18.898438 82.847656 L 135.726562 -20.351562 L 243.917969 141.757812 L 89.292969 244.953125 Z M -18.898438 82.847656 " clip-rule="nonzero"/></clipPath><clipPath id="898f6fa0b8"><path d="M -18.898438 82.847656 L 135.726562 -20.351562 L 243.917969 141.757812 L 89.292969 244.953125 Z M -18.898438 82.847656 " clip-rule="nonzero"/></clipPath><clipPath id="be26e8c71f"><path d="M 61 91 L 185 91 L 185 174 L 61 174 Z M 61 91 " clip-rule="nonzero"/></clipPath><clipPath id="0d0c09a759"><path d="M -18.898438 82.847656 L 135.726562 -20.351562 L 243.917969 141.757812 L 89.292969 244.953125 Z M -18.898438 82.847656 " clip-rule="nonzero"/></clipPath><clipPath id="49d161de9e"><path d="M -18.898438 82.847656 L 135.726562 -20.351562 L 243.917969 141.757812 L 89.292969 244.953125 Z M -18.898438 82.847656 " clip-rule="nonzero"/></clipPath><clipPath id="085611cb61"><path d="M -18.898438 82.847656 L 135.726562 -20.351562 L 243.917969 141.757812 L 89.292969 244.953125 Z M -18.898438 82.847656 " clip-rule="nonzero"/></clipPath><clipPath id="e12eb0b371"><path d="M 73 108 L 196 108 L 196 192 L 73 192 Z M 73 108 " clip-rule="nonzero"/></clipPath><clipPath id="313916cd2d"><path d="M -18.898438 82.847656 L 135.726562 -20.351562 L 243.917969 141.757812 L 89.292969 244.953125 Z M -18.898438 82.847656 " clip-rule="nonzero"/></clipPath><clipPath id="cc575b2ec0"><path d="M -18.898438 82.847656 L 135.726562 -20.351562 L 243.917969 141.757812 L 89.292969 244.953125 Z M -18.898438 82.847656 " clip-rule="nonzero"/></clipPath><clipPath id="cbe826d278"><path d="M -18.898438 82.847656 L 135.726562 -20.351562 L 243.917969 141.757812 L 89.292969 244.953125 Z M -18.898438 82.847656 " clip-rule="nonzero"/></clipPath><clipPath id="3ab4900f06"><path d="M 99 130 L 107 130 L 107 138 L 99 138 Z M 99 130 " clip-rule="nonzero"/></clipPath><clipPath id="76fa190f68"><path d="M -18.898438 82.847656 L 135.726562 -20.351562 L 243.917969 141.757812 L 89.292969 244.953125 Z M -18.898438 82.847656 " clip-rule="nonzero"/></clipPath><clipPath id="72fb1c7d73"><path d="M -18.898438 82.847656 L 135.726562 -20.351562 L 243.917969 141.757812 L 89.292969 244.953125 Z M -18.898438 82.847656 " clip-rule="nonzero"/></clipPath><clipPath id="df3e46ee22"><path d="M -18.898438 82.847656 L 135.726562 -20.351562 L 243.917969 141.757812 L 89.292969 244.953125 Z M -18.898438 82.847656 " clip-rule="nonzero"/></clipPath><clipPath id="9067d9d9ca"><path d="M 128 111 L 136 111 L 136 119 L 128 119 Z M 128 111 " clip-rule="nonzero"/></clipPath><clipPath id="9fc5ae1ffb"><path d="M -18.898438 82.847656 L 135.726562 -20.351562 L 243.917969 141.757812 L 89.292969 244.953125 Z M -18.898438 82.847656 " clip-rule="nonzero"/></clipPath><clipPath id="dd6998abf6"><path d="M -18.898438 82.847656 L 135.726562 -20.351562 L 243.917969 141.757812 L 89.292969 244.953125 Z M -18.898438 82.847656 " clip-rule="nonzero"/></clipPath><clipPath id="926f6d9063"><path d="M -18.898438 82.847656 L 135.726562 -20.351562 L 243.917969 141.757812 L 89.292969 244.953125 Z M -18.898438 82.847656 " clip-rule="nonzero"/></clipPath><clipPath id="39a3400ddf"><path d="M 109 115 L 123 115 L 123 129 L 109 129 Z M 109 115 " clip-rule="nonzero"/></clipPath><clipPath id="78a41671e8"><path d="M -18.898438 82.847656 L 135.726562 -20.351562 L 243.917969 141.757812 L 89.292969 244.953125 Z M -18.898438 82.847656 " clip-rule="nonzero"/></clipPath><clipPath id="e2fce0203a"><path d="M -18.898438 82.847656 L 135.726562 -20.351562 L 243.917969 141.757812 L 89.292969 244.953125 Z M -18.898438 82.847656 " clip-rule="nonzero"/></clipPath><clipPath id="c7b1823d77"><path d="M -18.898438 82.847656 L 135.726562 -20.351562 L 243.917969 141.757812 L 89.292969 244.953125 Z M -18.898438 82.847656 " clip-rule="nonzero"/></clipPath><clipPath id="571285ac2a"><path d="M 111 121 L 113 121 L 113 124 L 111 124 Z M 111 121 " clip-rule="nonzero"/></clipPath><clipPath id="48ac01f01a"><path d="M -18.898438 82.847656 L 135.726562 -20.351562 L 243.917969 141.757812 L 89.292969 244.953125 Z M -18.898438 82.847656 " clip-rule="nonzero"/></clipPath><clipPath id="8b3bc6f8ae"><path d="M -18.898438 82.847656 L 135.726562 -20.351562 L 243.917969 141.757812 L 89.292969 244.953125 Z M -18.898438 82.847656 " clip-rule="nonzero"/></clipPath><clipPath id="e4152fc1b6"><path d="M -18.898438 82.847656 L 135.726562 -20.351562 L 243.917969 141.757812 L 89.292969 244.953125 Z M -18.898438 82.847656 " clip-rule="nonzero"/></clipPath><clipPath id="5b084574f1"><path d="M 113 122 L 115 122 L 115 124 L 113 124 Z M 113 122 " clip-rule="nonzero"/></clipPath><clipPath id="03d311de34"><path d="M -18.898438 82.847656 L 135.726562 -20.351562 L 243.917969 141.757812 L 89.292969 244.953125 Z M -18.898438 82.847656 " clip-rule="nonzero"/></clipPath><clipPath id="00cbf9ee0c"><path d="M -18.898438 82.847656 L 135.726562 -20.351562 L 243.917969 141.757812 L 89.292969 244.953125 Z M -18.898438 82.847656 " clip-rule="nonzero"/></clipPath><clipPath id="c8691d0642"><path d="M -18.898438 82.847656 L 135.726562 -20.351562 L 243.917969 141.757812 L 89.292969 244.953125 Z M -18.898438 82.847656 " clip-rule="nonzero"/></clipPath><clipPath id="f321da8823"><path d="M 129 97 L 136 97 L 136 101 L 129 101 Z M 129 97 " clip-rule="nonzero"/></clipPath><clipPath id="5692101b80"><path d="M -18.898438 82.847656 L 135.726562 -20.351562 L 243.917969 141.757812 L 89.292969 244.953125 Z M -18.898438 82.847656 " clip-rule="nonzero"/></clipPath><clipPath id="64f84ddb18"><path d="M -18.898438 82.847656 L 135.726562 -20.351562 L 243.917969 141.757812 L 89.292969 244.953125 Z M -18.898438 82.847656 " clip-rule="nonzero"/></clipPath><clipPath id="a93c30bc33"><path d="M -18.898438 82.847656 L 135.726562 -20.351562 L 243.917969 141.757812 L 89.292969 244.953125 Z M -18.898438 82.847656 " clip-rule="nonzero"/></clipPath><clipPath id="aea22ac7b2"><path d="M 84 73 L 127 73 L 127 97 L 84 97 Z M 84 73 " clip-rule="nonzero"/></clipPath><clipPath id="8b37077295"><path d="M -18.898438 82.847656 L 135.726562 -20.351562 L 243.917969 141.757812 L 89.292969 244.953125 Z M -18.898438 82.847656 " clip-rule="nonzero"/></clipPath><clipPath id="06481be007"><path d="M -18.898438 82.847656 L 135.726562 -20.351562 L 243.917969 141.757812 L 89.292969 244.953125 Z M -18.898438 82.847656 " clip-rule="nonzero"/></clipPath><clipPath id="6ade6a3ceb"><path d="M -18.898438 82.847656 L 135.726562 -20.351562 L 243.917969 141.757812 L 89.292969 244.953125 Z M -18.898438 82.847656 " clip-rule="nonzero"/></clipPath><clipPath id="3454bcdb3c"><path d="M 155 54 L 157 54 L 157 75 L 155 75 Z M 155 54 " clip-rule="nonzero"/></clipPath><clipPath id="3383dc371b"><path d="M -18.898438 82.847656 L 135.726562 -20.351562 L 243.917969 141.757812 L 89.292969 244.953125 Z M -18.898438 82.847656 " clip-rule="nonzero"/></clipPath><clipPath id="6b3c14ddd8"><path d="M -18.898438 82.847656 L 135.726562 -20.351562 L 243.917969 141.757812 L 89.292969 244.953125 Z M -18.898438 82.847656 " clip-rule="nonzero"/></clipPath><clipPath id="b62b0978ed"><path d="M -18.898438 82.847656 L 135.726562 -20.351562 L 243.917969 141.757812 L 89.292969 244.953125 Z M -18.898438 82.847656 " clip-rule="nonzero"/></clipPath><clipPath id="2652e31a5d"><path d="M 156 78 L 158 78 L 158 88 L 156 88 Z M 156 78 " clip-rule="nonzero"/></clipPath><clipPath id="314cdeca10"><path d="M -18.898438 82.847656 L 135.726562 -20.351562 L 243.917969 141.757812 L 89.292969 244.953125 Z M -18.898438 82.847656 " clip-rule="nonzero"/></clipPath><clipPath id="3867dff387"><path d="M -18.898438 82.847656 L 135.726562 -20.351562 L 243.917969 141.757812 L 89.292969 244.953125 Z M -18.898438 82.847656 " clip-rule="nonzero"/></clipPath><clipPath id="88332172e5"><path d="M -18.898438 82.847656 L 135.726562 -20.351562 L 243.917969 141.757812 L 89.292969 244.953125 Z M -18.898438 82.847656 " clip-rule="nonzero"/></clipPath><clipPath id="606a2e086b"><path d="M 62 144 L 69 144 L 69 148 L 62 148 Z M 62 144 " clip-rule="nonzero"/></clipPath><clipPath id="ea7d4b46bc"><path d="M -18.898438 82.847656 L 135.726562 -20.351562 L 243.917969 141.757812 L 89.292969 244.953125 Z M -18.898438 82.847656 " clip-rule="nonzero"/></clipPath><clipPath id="e3b7abdb8f"><path d="M -18.898438 82.847656 L 135.726562 -20.351562 L 243.917969 141.757812 L 89.292969 244.953125 Z M -18.898438 82.847656 " clip-rule="nonzero"/></clipPath><clipPath id="14e63d8599"><path d="M -18.898438 82.847656 L 135.726562 -20.351562 L 243.917969 141.757812 L 89.292969 244.953125 Z M -18.898438 82.847656 " clip-rule="nonzero"/></clipPath><clipPath id="c2ab70166d"><path d="M 36 131 L 60 131 L 60 144 L 36 144 Z M 36 131 " clip-rule="nonzero"/></clipPath><clipPath id="85595a5acc"><path d="M -18.898438 82.847656 L 135.726562 -20.351562 L 243.917969 141.757812 L 89.292969 244.953125 Z M -18.898438 82.847656 " clip-rule="nonzero"/></clipPath><clipPath id="fdfbeda61c"><path d="M -18.898438 82.847656 L 135.726562 -20.351562 L 243.917969 141.757812 L 89.292969 244.953125 Z M -18.898438 82.847656 " clip-rule="nonzero"/></clipPath><clipPath id="06b4b04929"><path d="M -18.898438 82.847656 L 135.726562 -20.351562 L 243.917969 141.757812 L 89.292969 244.953125 Z M -18.898438 82.847656 " clip-rule="nonzero"/></clipPath><clipPath id="cc8d8c8f7d"><path d="M 65 159 L 67 159 L 67 162 L 65 162 Z M 65 159 " clip-rule="nonzero"/></clipPath><clipPath id="d53048620d"><path d="M -18.898438 82.847656 L 135.726562 -20.351562 L 243.917969 141.757812 L 89.292969 244.953125 Z M -18.898438 82.847656 " clip-rule="nonzero"/></clipPath><clipPath id="276e8a4876"><path d="M -18.898438 82.847656 L 135.726562 -20.351562 L 243.917969 141.757812 L 89.292969 244.953125 Z M -18.898438 82.847656 " clip-rule="nonzero"/></clipPath><clipPath id="cccb73443d"><path d="M -18.898438 82.847656 L 135.726562 -20.351562 L 243.917969 141.757812 L 89.292969 244.953125 Z M -18.898438 82.847656 " clip-rule="nonzero"/></clipPath><clipPath id="1bc5026234"><path d="M 67 159 L 70 159 L 70 163 L 67 163 Z M 67 159 " clip-rule="nonzero"/></clipPath><clipPath id="0106a2fc44"><path d="M -18.898438 82.847656 L 135.726562 -20.351562 L 243.917969 141.757812 L 89.292969 244.953125 Z M -18.898438 82.847656 " clip-rule="nonzero"/></clipPath><clipPath id="54c12c2b73"><path d="M -18.898438 82.847656 L 135.726562 -20.351562 L 243.917969 141.757812 L 89.292969 244.953125 Z M -18.898438 82.847656 " clip-rule="nonzero"/></clipPath><clipPath id="23fb11b476"><path d="M -18.898438 82.847656 L 135.726562 -20.351562 L 243.917969 141.757812 L 89.292969 244.953125 Z M -18.898438 82.847656 " clip-rule="nonzero"/></clipPath><clipPath id="292d7c2a76"><path d="M 88 128 L 90 128 L 90 130 L 88 130 Z M 88 128 " clip-rule="nonzero"/></clipPath><clipPath id="e77939346c"><path d="M -18.898438 82.847656 L 135.726562 -20.351562 L 243.917969 141.757812 L 89.292969 244.953125 Z M -18.898438 82.847656 " clip-rule="nonzero"/></clipPath><clipPath id="eb26a102ec"><path d="M -18.898438 82.847656 L 135.726562 -20.351562 L 243.917969 141.757812 L 89.292969 244.953125 Z M -18.898438 82.847656 " clip-rule="nonzero"/></clipPath><clipPath id="5bba740f23"><path d="M -18.898438 82.847656 L 135.726562 -20.351562 L 243.917969 141.757812 L 89.292969 244.953125 Z M -18.898438 82.847656 " clip-rule="nonzero"/></clipPath><clipPath id="5a2f14b7db"><path d="M 88 125 L 91 125 L 91 128 L 88 128 Z M 88 125 " clip-rule="nonzero"/></clipPath><clipPath id="3906180024"><path d="M -18.898438 82.847656 L 135.726562 -20.351562 L 243.917969 141.757812 L 89.292969 244.953125 Z M -18.898438 82.847656 " clip-rule="nonzero"/></clipPath><clipPath id="95e5dce30b"><path d="M -18.898438 82.847656 L 135.726562 -20.351562 L 243.917969 141.757812 L 89.292969 244.953125 Z M -18.898438 82.847656 " clip-rule="nonzero"/></clipPath><clipPath id="43a1a16e59"><path d="M -18.898438 82.847656 L 135.726562 -20.351562 L 243.917969 141.757812 L 89.292969 244.953125 Z M -18.898438 82.847656 " clip-rule="nonzero"/></clipPath><clipPath id="66f80cf70a"><path d="M 101 96 L 103 96 L 103 99 L 101 99 Z M 101 96 " clip-rule="nonzero"/></clipPath><clipPath id="948e20b5fd"><path d="M -18.898438 82.847656 L 135.726562 -20.351562 L 243.917969 141.757812 L 89.292969 244.953125 Z M -18.898438 82.847656 " clip-rule="nonzero"/></clipPath><clipPath id="e722b099cc"><path d="M -18.898438 82.847656 L 135.726562 -20.351562 L 243.917969 141.757812 L 89.292969 244.953125 Z M -18.898438 82.847656 " clip-rule="nonzero"/></clipPath><clipPath id="48ebc0e0e3"><path d="M -18.898438 82.847656 L 135.726562 -20.351562 L 243.917969 141.757812 L 89.292969 244.953125 Z M -18.898438 82.847656 " clip-rule="nonzero"/></clipPath><clipPath id="6be4d89e3e"><path d="M 108 97 L 110 97 L 110 100 L 108 100 Z M 108 97 " clip-rule="nonzero"/></clipPath><clipPath id="268144e0f4"><path d="M -18.898438 82.847656 L 135.726562 -20.351562 L 243.917969 141.757812 L 89.292969 244.953125 Z M -18.898438 82.847656 " clip-rule="nonzero"/></clipPath><clipPath id="158cfaebc1"><path d="M -18.898438 82.847656 L 135.726562 -20.351562 L 243.917969 141.757812 L 89.292969 244.953125 Z M -18.898438 82.847656 " clip-rule="nonzero"/></clipPath><clipPath id="eb884d1b9d"><path d="M -18.898438 82.847656 L 135.726562 -20.351562 L 243.917969 141.757812 L 89.292969 244.953125 Z M -18.898438 82.847656 " clip-rule="nonzero"/></clipPath><clipPath id="542e731aa2"><path d="M 110 96 L 113 96 L 113 99 L 110 99 Z M 110 96 " clip-rule="nonzero"/></clipPath><clipPath id="f1cd0e7f1d"><path d="M -18.898438 82.847656 L 135.726562 -20.351562 L 243.917969 141.757812 L 89.292969 244.953125 Z M -18.898438 82.847656 " clip-rule="nonzero"/></clipPath><clipPath id="642fb0f46a"><path d="M -18.898438 82.847656 L 135.726562 -20.351562 L 243.917969 141.757812 L 89.292969 244.953125 Z M -18.898438 82.847656 " clip-rule="nonzero"/></clipPath><clipPath id="3709963b1d"><path d="M -18.898438 82.847656 L 135.726562 -20.351562 L 243.917969 141.757812 L 89.292969 244.953125 Z M -18.898438 82.847656 " clip-rule="nonzero"/></clipPath><clipPath id="34d69597d7"><path d="M 84 84 L 86 84 L 86 86 L 84 86 Z M 84 84 " clip-rule="nonzero"/></clipPath><clipPath id="b6bcc4054d"><path d="M -18.898438 82.847656 L 135.726562 -20.351562 L 243.917969 141.757812 L 89.292969 244.953125 Z M -18.898438 82.847656 " clip-rule="nonzero"/></clipPath><clipPath id="5a11ce9718"><path d="M -18.898438 82.847656 L 135.726562 -20.351562 L 243.917969 141.757812 L 89.292969 244.953125 Z M -18.898438 82.847656 " clip-rule="nonzero"/></clipPath><clipPath id="1af6de6eb7"><path d="M -18.898438 82.847656 L 135.726562 -20.351562 L 243.917969 141.757812 L 89.292969 244.953125 Z M -18.898438 82.847656 " clip-rule="nonzero"/></clipPath><clipPath id="531e47a484"><path d="M 154 102 L 156 102 L 156 105 L 154 105 Z M 154 102 " clip-rule="nonzero"/></clipPath><clipPath id="0d0446a25b"><path d="M -18.898438 82.847656 L 135.726562 -20.351562 L 243.917969 141.757812 L 89.292969 244.953125 Z M -18.898438 82.847656 " clip-rule="nonzero"/></clipPath><clipPath id="f9eed30ccf"><path d="M -18.898438 82.847656 L 135.726562 -20.351562 L 243.917969 141.757812 L 89.292969 244.953125 Z M -18.898438 82.847656 " clip-rule="nonzero"/></clipPath><clipPath id="e4a0ac5483"><path d="M -18.898438 82.847656 L 135.726562 -20.351562 L 243.917969 141.757812 L 89.292969 244.953125 Z M -18.898438 82.847656 " clip-rule="nonzero"/></clipPath><clipPath id="a5838889e4"><path d="M 157 101 L 159 101 L 159 104 L 157 104 Z M 157 101 " clip-rule="nonzero"/></clipPath><clipPath id="44c37524c7"><path d="M -18.898438 82.847656 L 135.726562 -20.351562 L 243.917969 141.757812 L 89.292969 244.953125 Z M -18.898438 82.847656 " clip-rule="nonzero"/></clipPath><clipPath id="db6f78939d"><path d="M -18.898438 82.847656 L 135.726562 -20.351562 L 243.917969 141.757812 L 89.292969 244.953125 Z M -18.898438 82.847656 " clip-rule="nonzero"/></clipPath><clipPath id="1737416d62"><path d="M -18.898438 82.847656 L 135.726562 -20.351562 L 243.917969 141.757812 L 89.292969 244.953125 Z M -18.898438 82.847656 " clip-rule="nonzero"/></clipPath><clipPath id="b939b471dd"><path d="M 162 72 L 165 72 L 165 75 L 162 75 Z M 162 72 " clip-rule="nonzero"/></clipPath><clipPath id="91eb46e110"><path d="M -18.898438 82.847656 L 135.726562 -20.351562 L 243.917969 141.757812 L 89.292969 244.953125 Z M -18.898438 82.847656 " clip-rule="nonzero"/></clipPath><clipPath id="26bf92b809"><path d="M -18.898438 82.847656 L 135.726562 -20.351562 L 243.917969 141.757812 L 89.292969 244.953125 Z M -18.898438 82.847656 " clip-rule="nonzero"/></clipPath><clipPath id="756f797c28"><path d="M -18.898438 82.847656 L 135.726562 -20.351562 L 243.917969 141.757812 L 89.292969 244.953125 Z M -18.898438 82.847656 " clip-rule="nonzero"/></clipPath><clipPath id="f72f6b7851"><path d="M 181 106 L 183 106 L 183 109 L 181 109 Z M 181 106 " clip-rule="nonzero"/></clipPath><clipPath id="e3b907b4b9"><path d="M -18.898438 82.847656 L 135.726562 -20.351562 L 243.917969 141.757812 L 89.292969 244.953125 Z M -18.898438 82.847656 " clip-rule="nonzero"/></clipPath><clipPath id="18d4d64616"><path d="M -18.898438 82.847656 L 135.726562 -20.351562 L 243.917969 141.757812 L 89.292969 244.953125 Z M -18.898438 82.847656 " clip-rule="nonzero"/></clipPath><clipPath id="8325aefe21"><path d="M -18.898438 82.847656 L 135.726562 -20.351562 L 243.917969 141.757812 L 89.292969 244.953125 Z M -18.898438 82.847656 " clip-rule="nonzero"/></clipPath><clipPath id="554738a3f1"><path d="M 178 106 L 180 106 L 180 109 L 178 109 Z M 178 106 " clip-rule="nonzero"/></clipPath><clipPath id="9f09283cb8"><path d="M -18.898438 82.847656 L 135.726562 -20.351562 L 243.917969 141.757812 L 89.292969 244.953125 Z M -18.898438 82.847656 " clip-rule="nonzero"/></clipPath><clipPath id="f457c8f6ed"><path d="M -18.898438 82.847656 L 135.726562 -20.351562 L 243.917969 141.757812 L 89.292969 244.953125 Z M -18.898438 82.847656 " clip-rule="nonzero"/></clipPath><clipPath id="2d773e3a65"><path d="M -18.898438 82.847656 L 135.726562 -20.351562 L 243.917969 141.757812 L 89.292969 244.953125 Z M -18.898438 82.847656 " clip-rule="nonzero"/></clipPath><clipPath id="3a4698e54d"><path d="M 82 174 L 84 174 L 84 176 L 82 176 Z M 82 174 " clip-rule="nonzero"/></clipPath><clipPath id="b3e909402c"><path d="M -18.898438 82.847656 L 135.726562 -20.351562 L 243.917969 141.757812 L 89.292969 244.953125 Z M -18.898438 82.847656 " clip-rule="nonzero"/></clipPath><clipPath id="d7c6e6c159"><path d="M -18.898438 82.847656 L 135.726562 -20.351562 L 243.917969 141.757812 L 89.292969 244.953125 Z M -18.898438 82.847656 " clip-rule="nonzero"/></clipPath><clipPath id="549f7bde92"><path d="M -18.898438 82.847656 L 135.726562 -20.351562 L 243.917969 141.757812 L 89.292969 244.953125 Z M -18.898438 82.847656 " clip-rule="nonzero"/></clipPath><clipPath id="e528d83831"><path d="M 80 172 L 83 172 L 83 174 L 80 174 Z M 80 172 " clip-rule="nonzero"/></clipPath><clipPath id="d4dfededb8"><path d="M -18.898438 82.847656 L 135.726562 -20.351562 L 243.917969 141.757812 L 89.292969 244.953125 Z M -18.898438 82.847656 " clip-rule="nonzero"/></clipPath><clipPath id="e8e7c85763"><path d="M -18.898438 82.847656 L 135.726562 -20.351562 L 243.917969 141.757812 L 89.292969 244.953125 Z M -18.898438 82.847656 " clip-rule="nonzero"/></clipPath><clipPath id="e969946a04"><path d="M -18.898438 82.847656 L 135.726562 -20.351562 L 243.917969 141.757812 L 89.292969 244.953125 Z M -18.898438 82.847656 " clip-rule="nonzero"/></clipPath><clipPath id="4b2706346a"><path d="M 110 149 L 112 149 L 112 151 L 110 151 Z M 110 149 " clip-rule="nonzero"/></clipPath><clipPath id="9d37e2f07e"><path d="M -18.898438 82.847656 L 135.726562 -20.351562 L 243.917969 141.757812 L 89.292969 244.953125 Z M -18.898438 82.847656 " clip-rule="nonzero"/></clipPath><clipPath id="97ee442b12"><path d="M -18.898438 82.847656 L 135.726562 -20.351562 L 243.917969 141.757812 L 89.292969 244.953125 Z M -18.898438 82.847656 " clip-rule="nonzero"/></clipPath><clipPath id="cb1eef7118"><path d="M -18.898438 82.847656 L 135.726562 -20.351562 L 243.917969 141.757812 L 89.292969 244.953125 Z M -18.898438 82.847656 " clip-rule="nonzero"/></clipPath><clipPath id="7ba2094785"><path d="M 112 149 L 115 149 L 115 152 L 112 152 Z M 112 149 " clip-rule="nonzero"/></clipPath><clipPath id="415b95838f"><path d="M -18.898438 82.847656 L 135.726562 -20.351562 L 243.917969 141.757812 L 89.292969 244.953125 Z M -18.898438 82.847656 " clip-rule="nonzero"/></clipPath><clipPath id="3b537f6f3c"><path d="M -18.898438 82.847656 L 135.726562 -20.351562 L 243.917969 141.757812 L 89.292969 244.953125 Z M -18.898438 82.847656 " clip-rule="nonzero"/></clipPath><clipPath id="4957042ed9"><path d="M -18.898438 82.847656 L 135.726562 -20.351562 L 243.917969 141.757812 L 89.292969 244.953125 Z M -18.898438 82.847656 " clip-rule="nonzero"/></clipPath><clipPath id="e4c988c158"><path d="M 153 128 L 156 128 L 156 130 L 153 130 Z M 153 128 " clip-rule="nonzero"/></clipPath><clipPath id="1d6ae71140"><path d="M -18.898438 82.847656 L 135.726562 -20.351562 L 243.917969 141.757812 L 89.292969 244.953125 Z M -18.898438 82.847656 " clip-rule="nonzero"/></clipPath><clipPath id="2d987f4209"><path d="M -18.898438 82.847656 L 135.726562 -20.351562 L 243.917969 141.757812 L 89.292969 244.953125 Z M -18.898438 82.847656 " clip-rule="nonzero"/></clipPath><clipPath id="a2bc646ca5"><path d="M -18.898438 82.847656 L 135.726562 -20.351562 L 243.917969 141.757812 L 89.292969 244.953125 Z M -18.898438 82.847656 " clip-rule="nonzero"/></clipPath><clipPath id="39124639d2"><path d="M 43 139 L 45 139 L 45 141 L 43 141 Z M 43 139 " clip-rule="nonzero"/></clipPath><clipPath id="b63a476cb5"><path d="M -18.898438 82.847656 L 135.726562 -20.351562 L 243.917969 141.757812 L 89.292969 244.953125 Z M -18.898438 82.847656 " clip-rule="nonzero"/></clipPath><clipPath id="41c8068000"><path d="M -18.898438 82.847656 L 135.726562 -20.351562 L 243.917969 141.757812 L 89.292969 244.953125 Z M -18.898438 82.847656 " clip-rule="nonzero"/></clipPath><clipPath id="e0b863b709"><path d="M -18.898438 82.847656 L 135.726562 -20.351562 L 243.917969 141.757812 L 89.292969 244.953125 Z M -18.898438 82.847656 " clip-rule="nonzero"/></clipPath></defs><g clip-path="url(#9ed52591c1)"><g clip-path="url(#969c45a2fb)"><g clip-path="url(#e1f2b412d6)"><g clip-path="url(#710c70318a)"><path fill="#ff974a" d="M 76.34375 152.160156 C 68.097656 136.5 57.046875 118.734375 43.996094 99.996094 C 60.597656 110.398438 78.496094 120.109375 97.308594 128.742188 Z M 76.34375 152.160156 " fill-opacity="1" fill-rule="nonzero"/></g></g></g></g><g clip-path="url(#72460d3f78)"><g clip-path="url(#7b97f269c1)"><g clip-path="url(#9cd850a1bb)"><g clip-path="url(#3fb325ccb3)"><path fill="#ff974a" d="M 159.390625 98.101562 C 146.941406 81.703125 135.191406 64.898438 124.140625 47.6875 C 126.933594 66.855469 128.617188 86.910156 129.542969 107.859375 Z M 159.390625 98.101562 " fill-opacity="1" fill-rule="nonzero"/></g></g></g></g><g clip-path="url(#5dced3d05b)"><g clip-path="url(#c74c2a8cd0)"><g clip-path="url(#2faeab4573)"><g clip-path="url(#cbfaa12868)"><path fill="#ffca61" d="M 193.320312 113.058594 L 76.632812 189.242188 L 64.699219 171.269531 L 181.539062 94.90625 Z M 193.320312 113.058594 " fill-opacity="1" fill-rule="nonzero"/></g></g></g></g><g clip-path="url(#b17f0c5897)"><g clip-path="url(#b05ec36803)"><g clip-path="url(#45fd1ce721)"><g clip-path="url(#898f6fa0b8)"><path fill="#ffca61" d="M 150.550781 92.699219 L 143.839844 97.273438 C 123.121094 90.050781 101.269531 78.753906 78.871094 65.609375 C 81.476562 92.480469 82.996094 117.304688 81.964844 137.644531 L 75.253906 142.21875 C 59.339844 138.074219 40.914062 129.816406 21.292969 120.058594 L 64.699219 171.269531 L 123.214844 133.179688 L 181.539062 94.90625 C 170.523438 74.878906 160.59375 54.824219 151.75 34.742188 C 152.664062 54.039062 152.050781 73.472656 150.550781 92.699219 Z M 150.550781 92.699219 " fill-opacity="1" fill-rule="nonzero"/></g></g></g></g><g clip-path="url(#be26e8c71f)"><g clip-path="url(#0d0c09a759)"><g clip-path="url(#49d161de9e)"><g clip-path="url(#085611cb61)"><path fill="#e04154" d="M 179.988281 91.742188 C 141.910156 119.363281 102.761719 145.054688 62.539062 168.816406 C 59.792969 170.386719 63.074219 175.257812 65.824219 173.6875 C 106.246094 149.683594 145.34375 124.050781 183.121094 96.789062 C 186.019531 95.039062 182.738281 90.171875 179.988281 91.742188 Z M 179.988281 91.742188 " fill-opacity="1" fill-rule="nonzero"/></g></g></g></g><g clip-path="url(#e12eb0b371)"><g clip-path="url(#313916cd2d)"><g clip-path="url(#cc575b2ec0)"><g clip-path="url(#cbe826d278)"><path fill="#e04154" d="M 191.539062 109.335938 C 154.4375 135.945312 115.144531 161.390625 74.050781 186.046875 C 71.34375 187.984375 74.625 192.851562 77.179688 191.09375 C 118.773438 166.269531 158.0625 140.824219 194.820312 114.203125 C 197.375 112.445312 194.246094 107.398438 191.539062 109.335938 Z M 191.539062 109.335938 " fill-opacity="1" fill-rule="nonzero"/></g></g></g></g><g clip-path="url(#3ab4900f06)"><g clip-path="url(#76fa190f68)"><g clip-path="url(#72fb1c7d73)"><g clip-path="url(#df3e46ee22)"><path fill="#7daa48" d="M 105.597656 132.289062 C 106.640625 133.972656 106.539062 136.171875 104.9375 137.226562 C 103.332031 138.28125 101.183594 137.480469 100.140625 135.800781 C 98.753906 134.105469 99.007812 131.726562 100.609375 130.675781 C 102.210938 129.621094 104.359375 130.417969 105.597656 132.289062 Z M 105.597656 132.289062 " fill-opacity="1" fill-rule="nonzero"/></g></g></g></g><g clip-path="url(#9067d9d9ca)"><g clip-path="url(#9fc5ae1ffb)"><g clip-path="url(#dd6998abf6)"><g clip-path="url(#926f6d9063)"><path fill="#7daa48" d="M 129.132812 116.65625 C 130.367188 118.527344 132.667969 119.148438 134.269531 118.09375 C 135.871094 117.039062 135.976562 114.839844 134.738281 112.96875 C 133.695312 111.285156 131.546875 110.488281 129.945312 111.542969 C 128.34375 112.59375 128.089844 114.972656 129.132812 116.65625 Z M 129.132812 116.65625 " fill-opacity="1" fill-rule="nonzero"/></g></g></g></g><g clip-path="url(#39a3400ddf)"><g clip-path="url(#78a41671e8)"><g clip-path="url(#e2fce0203a)"><g clip-path="url(#c7b1823d77)"><path fill="#7daa48" d="M 120.757812 118.609375 C 122.996094 121.796875 122.40625 125.816406 119.507812 127.566406 C 116.800781 129.503906 112.886719 128.285156 110.648438 125.101562 C 108.5625 121.734375 109.152344 117.714844 111.859375 115.777344 C 114.605469 114.207031 118.671875 115.246094 120.757812 118.609375 Z M 120.757812 118.609375 " fill-opacity="1" fill-rule="nonzero"/></g></g></g></g><g clip-path="url(#571285ac2a)"><g clip-path="url(#48ac01f01a)"><g clip-path="url(#8b3bc6f8ae)"><g clip-path="url(#e4152fc1b6)"><path fill="#608431" d="M 112.160156 121.660156 C 112.03125 121.53125 111.96875 121.46875 111.96875 121.46875 C 111.738281 121.460938 111.625 121.457031 111.625 121.457031 C 111.625 121.457031 111.574219 121.519531 111.472656 121.636719 C 111.34375 121.511719 111.226562 121.507812 111.125 121.628906 C 111.125 121.628906 111.140625 121.75 111.167969 121.996094 C 111.066406 122.113281 111.027344 122.296875 111.054688 122.542969 C 111.054688 122.542969 111.070312 122.664062 111.097656 122.910156 C 111.097656 122.910156 111.160156 122.972656 111.289062 123.101562 C 111.289062 123.101562 111.351562 123.164062 111.480469 123.289062 C 111.480469 123.289062 111.542969 123.351562 111.671875 123.480469 L 111.824219 123.300781 C 111.953125 123.425781 112.070312 123.429688 112.171875 123.308594 C 112.171875 123.308594 112.222656 123.25 112.324219 123.132812 C 112.324219 123.132812 112.371094 123.070312 112.472656 122.953125 C 112.449219 122.707031 112.484375 122.523438 112.585938 122.40625 C 112.457031 122.277344 112.394531 122.214844 112.394531 122.214844 C 112.367188 121.96875 112.351562 121.847656 112.351562 121.847656 C 112.226562 121.722656 112.160156 121.660156 112.160156 121.660156 Z M 112.160156 121.660156 " fill-opacity="1" fill-rule="nonzero"/></g></g></g></g><g clip-path="url(#5b084574f1)"><g clip-path="url(#03d311de34)"><g clip-path="url(#00cbf9ee0c)"><g clip-path="url(#c8691d0642)"><path fill="#608431" d="M 113.578125 122.066406 C 112.777344 122.59375 113.78125 123.910156 114.238281 123.371094 C 115.039062 122.84375 114.226562 121.71875 113.578125 122.066406 Z M 113.578125 122.066406 " fill-opacity="1" fill-rule="nonzero"/></g></g></g></g><g clip-path="url(#f321da8823)"><g clip-path="url(#5692101b80)"><g clip-path="url(#64f84ddb18)"><g clip-path="url(#a93c30bc33)"><path stroke-linecap="round" transform="matrix(1.594085, -1.063897, 1.060615, 1.589167, -18.894023, 82.852867)" fill="none" stroke-linejoin="round" d="M 60.31662 49.891906 C 61.252564 51.383725 61.805552 52.250459 61.805552 52.250459 " stroke="#261947" stroke-width="0.4" stroke-opacity="1" stroke-miterlimit="4"/></g></g></g></g><g clip-path="url(#aea22ac7b2)"><g clip-path="url(#8b37077295)"><g clip-path="url(#06481be007)"><g clip-path="url(#6ade6a3ceb)"><path stroke-linecap="round" transform="matrix(1.594085, -1.063897, 1.060615, 1.589167, -18.894023, 82.852867)" fill="none" stroke-linejoin="round" d="M 47.753055 26.081317 C 51.008014 33.94342 55.939227 42.645045 58.975177 47.639467 " stroke="#261947" stroke-width="0.4" stroke-opacity="1" stroke-miterlimit="4"/></g></g></g></g><g clip-path="url(#3454bcdb3c)"><g clip-path="url(#3383dc371b)"><g clip-path="url(#6b3c14ddd8)"><g clip-path="url(#b62b0978ed)"><path stroke-linecap="round" transform="matrix(1.594085, -1.063897, 1.060615, 1.589167, -18.894023, 82.852867)" fill="none" stroke-linejoin="round" d="M 78.515495 47.322269 L 83.944551 38.587947 " stroke="#261947" stroke-width="0.4" stroke-opacity="1" stroke-miterlimit="4"/></g></g></g></g><g clip-path="url(#2652e31a5d)"><g clip-path="url(#314cdeca10)"><g clip-path="url(#3867dff387)"><g clip-path="url(#88332172e5)"><path stroke-linecap="round" transform="matrix(1.594085, -1.063897, 1.060615, 1.589167, -18.894023, 82.852867)" fill="none" stroke-linejoin="round" d="M 75.280897 52.791508 L 77.417269 49.249108 " stroke="#261947" stroke-width="0.4" stroke-opacity="1" stroke-miterlimit="4"/></g></g></g></g><g clip-path="url(#606a2e086b)"><g clip-path="url(#ea7d4b46bc)"><g clip-path="url(#e3b7abdb8f)"><g clip-path="url(#14e63d8599)"><path stroke-linecap="round" transform="matrix(1.594085, -1.063897, 1.060615, 1.589167, -18.894023, 82.852867)" fill="none" stroke-linejoin="round" d="M 17.408794 50.739258 L 18.926487 53.235052 " stroke="#261947" stroke-width="0.4" stroke-opacity="1" stroke-miterlimit="4"/></g></g></g></g><g clip-path="url(#c2ab70166d)"><g clip-path="url(#85595a5acc)"><g clip-path="url(#fdfbeda61c)"><g clip-path="url(#06b4b04929)"><path stroke-linecap="round" transform="matrix(1.594085, -1.063897, 1.060615, 1.589167, -18.894023, 82.852867)" fill="none" stroke-linejoin="round" d="M 9.941057 37.633197 L 16.41646 48.971258 " stroke="#261947" stroke-width="0.4" stroke-opacity="1" stroke-miterlimit="4"/></g></g></g></g><g clip-path="url(#cc8d8c8f7d)"><g clip-path="url(#d53048620d)"><g clip-path="url(#276e8a4876)"><g clip-path="url(#cccb73443d)"><path fill="#ffdea4" d="M 66.660156 159.398438 C 66.660156 159.398438 66.597656 159.335938 66.46875 159.207031 C 66.339844 159.082031 66.160156 159.015625 65.929688 159.007812 C 65.828125 159.128906 65.777344 159.1875 65.777344 159.1875 C 65.675781 159.308594 65.625 159.367188 65.625 159.367188 C 65.449219 159.851562 65.324219 160.277344 65.25 160.640625 C 65.25 160.640625 65.199219 160.699219 65.097656 160.820312 C 65.226562 160.945312 65.292969 161.007812 65.292969 161.007812 C 65.320312 161.253906 65.332031 161.378906 65.332031 161.378906 C 65.460938 161.503906 65.574219 161.507812 65.675781 161.386719 C 65.804688 161.515625 65.984375 161.582031 66.214844 161.585938 C 66.316406 161.46875 66.417969 161.347656 66.519531 161.230469 C 66.59375 160.863281 66.667969 160.5 66.742188 160.132812 C 66.84375 160.015625 66.894531 159.957031 66.894531 159.957031 C 66.894531 159.957031 66.878906 159.832031 66.851562 159.585938 C 66.851562 159.585938 66.789062 159.523438 66.660156 159.398438 Z M 66.660156 159.398438 " fill-opacity="1" fill-rule="nonzero"/></g></g></g></g><g clip-path="url(#1bc5026234)"><g clip-path="url(#0106a2fc44)"><g clip-path="url(#54c12c2b73)"><g clip-path="url(#23fb11b476)"><path fill="#ffdea4" d="M 68.808594 160.195312 C 68.679688 160.070312 68.617188 160.007812 68.617188 160.007812 C 68.488281 159.878906 68.371094 159.875 68.273438 159.996094 C 68.144531 159.871094 68.078125 159.804688 68.078125 159.804688 C 67.976562 159.925781 67.925781 159.984375 67.925781 159.984375 C 67.695312 159.980469 67.59375 160.097656 67.621094 160.34375 L 67.46875 160.523438 C 67.597656 160.648438 67.675781 160.835938 67.703125 161.082031 C 67.832031 161.207031 68.023438 161.394531 68.28125 161.648438 C 68.28125 161.648438 68.34375 161.710938 68.472656 161.835938 C 68.472656 161.835938 68.539062 161.898438 68.667969 162.027344 C 68.765625 161.90625 68.816406 161.847656 68.816406 161.847656 C 68.945312 161.972656 69.0625 161.976562 69.164062 161.859375 C 69.265625 161.738281 69.367188 161.617188 69.46875 161.5 L 69.425781 161.132812 C 69.425781 161.132812 69.363281 161.066406 69.234375 160.941406 C 69.078125 160.570312 68.9375 160.320312 68.808594 160.195312 Z M 68.808594 160.195312 " fill-opacity="1" fill-rule="nonzero"/></g></g></g></g><g clip-path="url(#292d7c2a76)"><g clip-path="url(#e77939346c)"><g clip-path="url(#eb26a102ec)"><g clip-path="url(#5bba740f23)"><path fill="#ffdea4" d="M 88.347656 128.476562 C 87.695312 128.824219 88.507812 129.949219 89.15625 129.601562 C 89.804688 129.253906 89.148438 127.949219 88.347656 128.476562 Z M 88.347656 128.476562 " fill-opacity="1" fill-rule="nonzero"/></g></g></g></g><g clip-path="url(#5a2f14b7db)"><g clip-path="url(#3906180024)"><g clip-path="url(#95e5dce30b)"><g clip-path="url(#43a1a16e59)"><path fill="#ffdea4" d="M 89.632812 126.128906 L 89.441406 125.9375 C 89.441406 125.9375 89.328125 125.933594 89.097656 125.929688 C 88.996094 126.046875 88.894531 126.167969 88.792969 126.285156 C 88.664062 126.160156 88.550781 126.15625 88.449219 126.277344 C 88.449219 126.277344 88.398438 126.335938 88.296875 126.453125 C 88.421875 126.582031 88.4375 126.703125 88.335938 126.824219 C 88.335938 126.824219 88.398438 126.886719 88.527344 127.011719 C 88.527344 127.011719 88.476562 127.070312 88.375 127.191406 C 88.503906 127.316406 88.683594 127.382812 88.914062 127.390625 C 89.042969 127.515625 89.15625 127.519531 89.257812 127.402344 C 89.488281 127.40625 89.601562 127.410156 89.601562 127.410156 C 89.703125 127.292969 89.753906 127.230469 89.753906 127.230469 C 89.984375 127.238281 90.035156 127.179688 89.90625 127.054688 C 90.007812 126.933594 90.058594 126.875 90.058594 126.875 C 90.160156 126.753906 90.148438 126.632812 90.019531 126.507812 C 90.019531 126.507812 89.953125 126.441406 89.828125 126.316406 C 89.828125 126.316406 89.761719 126.253906 89.632812 126.128906 Z M 89.632812 126.128906 " fill-opacity="1" fill-rule="nonzero"/></g></g></g></g><g clip-path="url(#66f80cf70a)"><g clip-path="url(#948e20b5fd)"><g clip-path="url(#e722b099cc)"><g clip-path="url(#48ebc0e0e3)"><path fill="#ffdea4" d="M 101.527344 96.75 C 100.726562 97.277344 101.535156 98.402344 102.335938 97.875 C 102.984375 97.527344 102.175781 96.402344 101.527344 96.75 Z M 101.527344 96.75 " fill-opacity="1" fill-rule="nonzero"/></g></g></g></g><g clip-path="url(#6be4d89e3e)"><g clip-path="url(#268144e0f4)"><g clip-path="url(#158cfaebc1)"><g clip-path="url(#eb884d1b9d)"><path fill="#ffdea4" d="M 109.535156 97.722656 C 109.40625 97.597656 109.339844 97.53125 109.339844 97.53125 C 109.113281 97.527344 108.996094 97.523438 108.996094 97.523438 C 108.996094 97.523438 108.945312 97.582031 108.84375 97.703125 C 108.714844 97.574219 108.601562 97.570312 108.5 97.691406 C 108.5 97.691406 108.511719 97.8125 108.539062 98.058594 C 108.539062 98.058594 108.488281 98.117188 108.386719 98.238281 C 108.515625 98.363281 108.582031 98.425781 108.582031 98.425781 L 108.773438 98.617188 C 108.800781 98.863281 108.863281 98.925781 108.964844 98.804688 C 109.09375 98.933594 109.160156 98.996094 109.160156 98.996094 C 109.285156 99.121094 109.402344 99.125 109.503906 99.003906 C 109.632812 99.132812 109.746094 99.136719 109.847656 99.015625 C 109.949219 98.898438 109.988281 98.714844 109.960938 98.46875 C 109.933594 98.222656 109.917969 98.101562 109.917969 98.101562 L 109.726562 97.910156 C 109.597656 97.785156 109.535156 97.722656 109.535156 97.722656 Z M 109.535156 97.722656 " fill-opacity="1" fill-rule="nonzero"/></g></g></g></g><g clip-path="url(#542e731aa2)"><g clip-path="url(#f1cd0e7f1d)"><g clip-path="url(#642fb0f46a)"><g clip-path="url(#3709963b1d)"><path fill="#ffdea4" d="M 112.445312 97.625 C 112.1875 97.371094 111.929688 97.121094 111.671875 96.867188 C 111.671875 96.867188 111.558594 96.863281 111.328125 96.855469 C 111.328125 96.855469 111.277344 96.917969 111.175781 97.035156 C 111.046875 96.910156 110.933594 96.90625 110.832031 97.027344 C 110.832031 97.027344 110.78125 97.085938 110.679688 97.203125 C 110.707031 97.449219 110.785156 97.636719 110.914062 97.761719 C 110.914062 97.761719 110.863281 97.820312 110.761719 97.941406 C 110.890625 98.066406 111.015625 98.195312 111.144531 98.320312 C 111.375 98.328125 111.617188 98.457031 111.875 98.707031 C 112.003906 98.835938 112.117188 98.839844 112.21875 98.71875 C 112.21875 98.71875 112.335938 98.722656 112.566406 98.730469 C 112.566406 98.730469 112.617188 98.667969 112.71875 98.550781 C 112.71875 98.550781 112.769531 98.492188 112.867188 98.371094 C 112.96875 98.25 112.957031 98.128906 112.828125 98.003906 C 112.699219 97.875 112.636719 97.8125 112.636719 97.8125 C 112.609375 97.566406 112.546875 97.503906 112.445312 97.625 Z M 112.445312 97.625 " fill-opacity="1" fill-rule="nonzero"/></g></g></g></g><g clip-path="url(#34d69597d7)"><g clip-path="url(#b6bcc4054d)"><g clip-path="url(#5a11ce9718)"><g clip-path="url(#1af6de6eb7)"><path fill="#ffdea4" d="M 84.875 84.324219 C 84.226562 84.671875 84.886719 85.976562 85.6875 85.449219 C 86.335938 85.101562 85.523438 83.976562 84.875 84.324219 Z M 84.875 84.324219 " fill-opacity="1" fill-rule="nonzero"/></g></g></g></g><g clip-path="url(#531e47a484)"><g clip-path="url(#0d0446a25b)"><g clip-path="url(#f9eed30ccf)"><g clip-path="url(#e4a0ac5483)"><path fill="#ffdea4" d="M 155.238281 102.566406 C 155.238281 102.566406 155.175781 102.503906 155.046875 102.378906 C 154.816406 102.371094 154.652344 102.429688 154.550781 102.546875 C 154.449219 102.667969 154.347656 102.785156 154.246094 102.90625 C 154.273438 103.152344 154.300781 103.394531 154.328125 103.640625 C 154.355469 103.886719 154.367188 104.011719 154.367188 104.011719 C 154.265625 104.128906 154.28125 104.253906 154.410156 104.378906 C 154.535156 104.503906 154.601562 104.566406 154.601562 104.566406 C 154.730469 104.695312 154.84375 104.695312 154.945312 104.578125 L 155.136719 104.765625 C 155.238281 104.648438 155.289062 104.589844 155.289062 104.589844 C 155.390625 104.46875 155.441406 104.410156 155.441406 104.410156 C 155.542969 104.289062 155.59375 104.230469 155.59375 104.230469 C 155.667969 103.863281 155.691406 103.558594 155.664062 103.316406 C 155.765625 103.195312 155.753906 103.074219 155.625 102.945312 C 155.625 102.945312 155.5625 102.882812 155.433594 102.757812 C 155.535156 102.636719 155.46875 102.574219 155.238281 102.566406 Z M 155.238281 102.566406 " fill-opacity="1" fill-rule="nonzero"/></g></g></g></g><g clip-path="url(#a5838889e4)"><g clip-path="url(#44c37524c7)"><g clip-path="url(#db6f78939d)"><g clip-path="url(#1737416d62)"><path fill="#ffdea4" d="M 158.261719 101.925781 C 158.132812 101.796875 158.070312 101.734375 158.070312 101.734375 L 157.878906 101.546875 C 157.777344 101.664062 157.726562 101.726562 157.726562 101.726562 C 157.597656 101.597656 157.480469 101.59375 157.378906 101.714844 C 157.277344 101.832031 157.230469 101.894531 157.230469 101.894531 C 157.128906 102.011719 157.078125 102.074219 157.078125 102.074219 C 157.203125 102.199219 157.21875 102.320312 157.117188 102.441406 C 157.117188 102.441406 157.179688 102.503906 157.308594 102.628906 C 157.308594 102.628906 157.375 102.691406 157.503906 102.820312 C 157.503906 102.820312 157.566406 102.882812 157.695312 103.007812 C 157.925781 103.015625 158.039062 103.019531 158.039062 103.019531 C 158.167969 103.144531 158.28125 103.148438 158.382812 103.027344 C 158.382812 103.027344 158.433594 102.96875 158.535156 102.851562 C 158.636719 102.730469 158.625 102.609375 158.496094 102.480469 C 158.496094 102.480469 158.546875 102.421875 158.648438 102.300781 C 158.519531 102.175781 158.457031 102.113281 158.457031 102.113281 C 158.328125 101.988281 158.261719 101.925781 158.261719 101.925781 Z M 158.261719 101.925781 " fill-opacity="1" fill-rule="nonzero"/></g></g></g></g><g clip-path="url(#b939b471dd)"><g clip-path="url(#91eb46e110)"><g clip-path="url(#26bf92b809)"><g clip-path="url(#756f797c28)"><path fill="#ffdea4" d="M 164.03125 73.097656 C 163.773438 72.84375 163.582031 72.65625 163.453125 72.53125 C 163.453125 72.53125 163.339844 72.527344 163.109375 72.519531 C 163.109375 72.519531 163.058594 72.578125 162.957031 72.699219 C 162.828125 72.574219 162.714844 72.570312 162.613281 72.6875 C 162.613281 72.6875 162.5625 72.75 162.460938 72.867188 C 162.589844 72.992188 162.652344 73.058594 162.652344 73.058594 C 162.550781 73.175781 162.566406 73.300781 162.691406 73.425781 C 162.691406 73.425781 162.640625 73.484375 162.539062 73.605469 C 162.667969 73.730469 162.847656 73.796875 163.078125 73.804688 C 163.207031 73.929688 163.335938 74.054688 163.464844 74.183594 C 163.589844 74.308594 163.707031 74.3125 163.808594 74.191406 C 163.9375 74.320312 164 74.382812 164 74.382812 C 164.101562 74.261719 164.203125 74.144531 164.304688 74.023438 C 164.304688 74.023438 164.355469 73.964844 164.457031 73.84375 C 164.429688 73.597656 164.417969 73.476562 164.417969 73.476562 C 164.289062 73.351562 164.222656 73.289062 164.222656 73.289062 C 164.195312 73.042969 164.132812 72.976562 164.03125 73.097656 Z M 164.03125 73.097656 " fill-opacity="1" fill-rule="nonzero"/></g></g></g></g><g clip-path="url(#f72f6b7851)"><g clip-path="url(#e3b907b4b9)"><g clip-path="url(#18d4d64616)"><g clip-path="url(#8325aefe21)"><path fill="#ffdea4" d="M 182.101562 106.304688 C 181.972656 106.175781 181.910156 106.113281 181.910156 106.113281 C 181.679688 106.105469 181.566406 106.105469 181.566406 106.105469 C 181.464844 106.222656 181.347656 106.21875 181.21875 106.09375 C 181.117188 106.210938 181.066406 106.273438 181.066406 106.273438 C 180.964844 106.390625 180.980469 106.515625 181.109375 106.640625 C 181.007812 106.761719 181.019531 106.882812 181.148438 107.007812 L 181.574219 107.753906 C 181.703125 107.882812 181.765625 107.945312 181.765625 107.945312 C 181.894531 108.070312 181.960938 108.132812 181.960938 108.132812 C 182.085938 108.261719 182.203125 108.265625 182.304688 108.144531 C 182.304688 108.144531 182.355469 108.085938 182.457031 107.964844 C 182.457031 107.964844 182.570312 107.96875 182.800781 107.976562 C 182.800781 107.976562 182.789062 107.851562 182.761719 107.605469 C 182.863281 107.488281 182.785156 107.300781 182.527344 107.050781 L 182.292969 106.492188 C 182.167969 106.367188 182.101562 106.304688 182.101562 106.304688 Z M 182.101562 106.304688 " fill-opacity="1" fill-rule="nonzero"/></g></g></g></g><g clip-path="url(#554738a3f1)"><g clip-path="url(#9f09283cb8)"><g clip-path="url(#f457c8f6ed)"><g clip-path="url(#2d773e3a65)"><path fill="#ffdea4" d="M 179.082031 106.945312 C 179.082031 106.945312 179.015625 106.882812 178.886719 106.757812 C 178.785156 106.875 178.671875 106.875 178.542969 106.746094 C 178.542969 106.746094 178.492188 106.808594 178.390625 106.925781 C 178.390625 106.925781 178.339844 106.984375 178.238281 107.105469 C 178.238281 107.105469 178.1875 107.164062 178.085938 107.285156 L 178.128906 107.652344 C 178.128906 107.652344 178.191406 107.714844 178.320312 107.839844 C 178.347656 108.085938 178.410156 108.148438 178.511719 108.03125 C 178.640625 108.15625 178.707031 108.21875 178.707031 108.21875 C 178.832031 108.347656 178.949219 108.351562 179.050781 108.230469 C 179.050781 108.230469 179.101562 108.171875 179.203125 108.050781 C 179.332031 108.179688 179.394531 108.242188 179.394531 108.242188 C 179.496094 108.121094 179.535156 107.9375 179.507812 107.695312 C 179.480469 107.449219 179.464844 107.324219 179.464844 107.324219 L 179.273438 107.136719 C 179.273438 107.136719 179.210938 107.074219 179.082031 106.945312 Z M 179.082031 106.945312 " fill-opacity="1" fill-rule="nonzero"/></g></g></g></g><g clip-path="url(#3a4698e54d)"><g clip-path="url(#b3e909402c)"><g clip-path="url(#d7c6e6c159)"><g clip-path="url(#549f7bde92)"><path fill="#ffdea4" d="M 82.597656 174.738281 C 81.949219 175.085938 82.609375 176.390625 83.410156 175.863281 C 84.058594 175.515625 83.402344 174.210938 82.597656 174.738281 Z M 82.597656 174.738281 " fill-opacity="1" fill-rule="nonzero"/></g></g></g></g><g clip-path="url(#e528d83831)"><g clip-path="url(#d4dfededb8)"><g clip-path="url(#e8e7c85763)"><g clip-path="url(#e969946a04)"><path fill="#ffdea4" d="M 82.507812 172.347656 C 82.382812 172.222656 82.316406 172.160156 82.316406 172.160156 C 82.085938 172.152344 81.921875 172.210938 81.820312 172.328125 L 81.171875 172.675781 C 81.171875 172.675781 81.121094 172.738281 81.019531 172.855469 C 81.019531 172.855469 80.96875 172.914062 80.867188 173.035156 C 80.867188 173.035156 80.929688 173.097656 81.058594 173.222656 C 80.957031 173.34375 80.972656 173.464844 81.101562 173.59375 C 81.101562 173.59375 81.164062 173.65625 81.292969 173.78125 C 81.292969 173.78125 81.355469 173.84375 81.484375 173.972656 C 81.714844 173.976562 81.878906 173.921875 81.980469 173.800781 L 82.628906 173.453125 C 82.628906 173.453125 82.679688 173.394531 82.78125 173.273438 C 82.78125 173.273438 82.832031 173.214844 82.933594 173.097656 C 82.808594 172.96875 82.792969 172.847656 82.894531 172.726562 C 82.765625 172.601562 82.703125 172.539062 82.703125 172.539062 C 82.703125 172.539062 82.636719 172.476562 82.507812 172.347656 Z M 82.507812 172.347656 " fill-opacity="1" fill-rule="nonzero"/></g></g></g></g><g clip-path="url(#4b2706346a)"><g clip-path="url(#9d37e2f07e)"><g clip-path="url(#97ee442b12)"><g clip-path="url(#cb1eef7118)"><path fill="#ffdea4" d="M 110.40625 149.503906 C 109.605469 150.03125 110.609375 151.34375 111.0625 150.808594 C 111.863281 150.28125 111.054688 149.15625 110.40625 149.503906 Z M 110.40625 149.503906 " fill-opacity="1" fill-rule="nonzero"/></g></g></g></g><g clip-path="url(#7ba2094785)"><g clip-path="url(#415b95838f)"><g clip-path="url(#3b537f6f3c)"><g clip-path="url(#4957042ed9)"><path fill="#ffdea4" d="M 113.742188 150.152344 C 113.613281 150.027344 113.546875 149.964844 113.546875 149.964844 C 113.320312 149.957031 113.203125 149.953125 113.203125 149.953125 C 113.101562 150.074219 112.988281 150.070312 112.859375 149.945312 C 112.757812 150.0625 112.707031 150.121094 112.707031 150.121094 C 112.605469 150.242188 112.617188 150.363281 112.746094 150.492188 C 112.644531 150.609375 112.59375 150.667969 112.59375 150.667969 C 112.722656 150.796875 112.789062 150.859375 112.789062 150.859375 L 113.019531 151.417969 C 113.019531 151.417969 113.085938 151.480469 113.214844 151.605469 C 113.214844 151.605469 113.277344 151.667969 113.40625 151.792969 C 113.507812 151.675781 113.621094 151.679688 113.75 151.804688 C 113.851562 151.6875 113.902344 151.625 113.902344 151.625 C 114.003906 151.507812 114.054688 151.449219 114.054688 151.449219 C 114.15625 151.328125 114.207031 151.269531 114.207031 151.269531 L 114.167969 150.898438 C 114.167969 150.898438 114.101562 150.835938 113.972656 150.710938 L 113.933594 150.34375 C 113.804688 150.214844 113.742188 150.152344 113.742188 150.152344 Z M 113.742188 150.152344 " fill-opacity="1" fill-rule="nonzero"/></g></g></g></g><g clip-path="url(#e4c988c158)"><g clip-path="url(#1d6ae71140)"><g clip-path="url(#2d987f4209)"><g clip-path="url(#a2bc646ca5)"><path fill="#ffdea4" d="M 154.316406 128.601562 C 153.515625 129.128906 154.328125 130.253906 154.976562 129.90625 C 155.777344 129.378906 154.964844 128.253906 154.316406 128.601562 Z M 154.316406 128.601562 " fill-opacity="1" fill-rule="nonzero"/></g></g></g></g><g clip-path="url(#39124639d2)"><g clip-path="url(#b63a476cb5)"><g clip-path="url(#41c8068000)"><g clip-path="url(#e0b863b709)"><path fill="#ffdea4" d="M 43.496094 139.253906 C 42.84375 139.601562 43.847656 140.917969 44.304688 140.378906 C 45.105469 139.855469 44.296875 138.726562 43.496094 139.253906 Z M 43.496094 139.253906 " fill-opacity="1" fill-rule="nonzero"/></g></g></g></g></svg>