<svg xmlns="http://www.w3.org/2000/svg" xmlns:xlink="http://www.w3.org/1999/xlink" width="300" zoomAndPan="magnify" viewBox="0 0 224.87999 225" height="300" preserveAspectRatio="xMidYMid meet" version="1.0"><defs><clipPath id="eb56d6e9d9"><path d="M 89 111 L 132 111 L 132 160 L 89 160 Z M 89 111 " clip-rule="nonzero"/></clipPath><clipPath id="7201912696"><path d="M 11.09375 -5.136719 L 226.929688 -9.648438 L 231.625 215.183594 L 15.789062 219.691406 Z M 11.09375 -5.136719 " clip-rule="nonzero"/></clipPath><clipPath id="b04539c399"><path d="M 11.1875 -0.640625 L 224.777344 -5.101562 L 229.378906 215.230469 L 15.789062 219.691406 Z M 11.1875 -0.640625 " clip-rule="nonzero"/></clipPath><clipPath id="52ce9342ee"><path d="M 11.09375 -5.136719 L 226.929688 -9.648438 L 231.625 215.183594 L 15.789062 219.691406 Z M 11.09375 -5.136719 " clip-rule="nonzero"/></clipPath><clipPath id="02af73f89c"><path d="M 91 151 L 112 151 L 112 153 L 91 153 Z M 91 151 " clip-rule="nonzero"/></clipPath><clipPath id="b09a60b881"><path d="M 11.09375 -5.136719 L 226.929688 -9.648438 L 231.625 215.183594 L 15.789062 219.691406 Z M 11.09375 -5.136719 " clip-rule="nonzero"/></clipPath><clipPath id="506941014b"><path d="M 11.1875 -0.640625 L 224.777344 -5.101562 L 229.378906 215.230469 L 15.789062 219.691406 Z M 11.1875 -0.640625 " clip-rule="nonzero"/></clipPath><clipPath id="a850f5385b"><path d="M 11.09375 -5.136719 L 226.929688 -9.648438 L 231.625 215.183594 L 15.789062 219.691406 Z M 11.09375 -5.136719 " clip-rule="nonzero"/></clipPath><clipPath id="fe669e7076"><path d="M 101 108 L 120 108 L 120 121 L 101 121 Z M 101 108 " clip-rule="nonzero"/></clipPath><clipPath id="e784fd7407"><path d="M 11.09375 -5.136719 L 226.929688 -9.648438 L 231.625 215.183594 L 15.789062 219.691406 Z M 11.09375 -5.136719 " clip-rule="nonzero"/></clipPath><clipPath id="9160596ab3"><path d="M 11.1875 -0.640625 L 224.777344 -5.101562 L 229.378906 215.230469 L 15.789062 219.691406 Z M 11.1875 -0.640625 " clip-rule="nonzero"/></clipPath><clipPath id="83eb2fd538"><path d="M 11.09375 -5.136719 L 226.929688 -9.648438 L 231.625 215.183594 L 15.789062 219.691406 Z M 11.09375 -5.136719 " clip-rule="nonzero"/></clipPath><clipPath id="d7cc901d25"><path d="M 63 35 L 158 35 L 158 116 L 63 116 Z M 63 35 " clip-rule="nonzero"/></clipPath><clipPath id="db4b8b7c01"><path d="M 11.09375 -5.136719 L 226.929688 -9.648438 L 231.625 215.183594 L 15.789062 219.691406 Z M 11.09375 -5.136719 " clip-rule="nonzero"/></clipPath><clipPath id="5dd69ede1e"><path d="M 11.1875 -0.640625 L 224.777344 -5.101562 L 229.378906 215.230469 L 15.789062 219.691406 Z M 11.1875 -0.640625 " clip-rule="nonzero"/></clipPath><clipPath id="f36446829e"><path d="M 11.09375 -5.136719 L 226.929688 -9.648438 L 231.625 215.183594 L 15.789062 219.691406 Z M 11.09375 -5.136719 " clip-rule="nonzero"/></clipPath><clipPath id="1b8f371e30"><path d="M 80 154 L 140 154 L 140 196 L 80 196 Z M 80 154 " clip-rule="nonzero"/></clipPath><clipPath id="a0fd776576"><path d="M 11.09375 -5.136719 L 226.929688 -9.648438 L 231.625 215.183594 L 15.789062 219.691406 Z M 11.09375 -5.136719 " clip-rule="nonzero"/></clipPath><clipPath id="c3699d789c"><path d="M 11.1875 -0.640625 L 224.777344 -5.101562 L 229.378906 215.230469 L 15.789062 219.691406 Z M 11.1875 -0.640625 " clip-rule="nonzero"/></clipPath><clipPath id="20bfd58534"><path d="M 11.09375 -5.136719 L 226.929688 -9.648438 L 231.625 215.183594 L 15.789062 219.691406 Z M 11.09375 -5.136719 " clip-rule="nonzero"/></clipPath><clipPath id="16dc1080f3"><path d="M 88 161 L 133 161 L 133 189 L 88 189 Z M 88 161 " clip-rule="nonzero"/></clipPath><clipPath id="49b4dd576b"><path d="M 11.09375 -5.136719 L 226.929688 -9.648438 L 231.625 215.183594 L 15.789062 219.691406 Z M 11.09375 -5.136719 " clip-rule="nonzero"/></clipPath><clipPath id="0cc2c27b78"><path d="M 11.1875 -0.640625 L 224.777344 -5.101562 L 229.378906 215.230469 L 15.789062 219.691406 Z M 11.1875 -0.640625 " clip-rule="nonzero"/></clipPath><clipPath id="07c3c7b599"><path d="M 11.09375 -5.136719 L 226.929688 -9.648438 L 231.625 215.183594 L 15.789062 219.691406 Z M 11.09375 -5.136719 " clip-rule="nonzero"/></clipPath><clipPath id="28a8890b7d"><path d="M 38 46 L 86 46 L 86 117 L 38 117 Z M 38 46 " clip-rule="nonzero"/></clipPath><clipPath id="e4ab49a291"><path d="M 11.09375 -5.136719 L 226.929688 -9.648438 L 231.625 215.183594 L 15.789062 219.691406 Z M 11.09375 -5.136719 " clip-rule="nonzero"/></clipPath><clipPath id="5a1c256264"><path d="M 11.1875 -0.640625 L 224.777344 -5.101562 L 229.378906 215.230469 L 15.789062 219.691406 Z M 11.1875 -0.640625 " clip-rule="nonzero"/></clipPath><clipPath id="d4d4eeea61"><path d="M 11.09375 -5.136719 L 226.929688 -9.648438 L 231.625 215.183594 L 15.789062 219.691406 Z M 11.09375 -5.136719 " clip-rule="nonzero"/></clipPath><clipPath id="6c9f8495da"><path d="M 136 47 L 184 47 L 184 118 L 136 118 Z M 136 47 " clip-rule="nonzero"/></clipPath><clipPath id="77a128a7f7"><path d="M 11.09375 -5.136719 L 226.929688 -9.648438 L 231.625 215.183594 L 15.789062 219.691406 Z M 11.09375 -5.136719 " clip-rule="nonzero"/></clipPath><clipPath id="879e516931"><path d="M 11.1875 -0.640625 L 224.777344 -5.101562 L 229.378906 215.230469 L 15.789062 219.691406 Z M 11.1875 -0.640625 " clip-rule="nonzero"/></clipPath><clipPath id="1b1f6c0be5"><path d="M 11.09375 -5.136719 L 226.929688 -9.648438 L 231.625 215.183594 L 15.789062 219.691406 Z M 11.09375 -5.136719 " clip-rule="nonzero"/></clipPath><clipPath id="5f67ec916b"><path d="M 68 43 L 123 43 L 123 45 L 68 45 Z M 68 43 " clip-rule="nonzero"/></clipPath><clipPath id="b8bece61eb"><path d="M 11.09375 -5.136719 L 226.929688 -9.648438 L 231.625 215.183594 L 15.789062 219.691406 Z M 11.09375 -5.136719 " clip-rule="nonzero"/></clipPath><clipPath id="b4009baa50"><path d="M 11.1875 -0.640625 L 224.777344 -5.101562 L 229.378906 215.230469 L 15.789062 219.691406 Z M 11.1875 -0.640625 " clip-rule="nonzero"/></clipPath><clipPath id="86683231fc"><path d="M 11.09375 -5.136719 L 226.929688 -9.648438 L 231.625 215.183594 L 15.789062 219.691406 Z M 11.09375 -5.136719 " clip-rule="nonzero"/></clipPath><clipPath id="acf71fd785"><path d="M 124 43 L 135 43 L 135 45 L 124 45 Z M 124 43 " clip-rule="nonzero"/></clipPath><clipPath id="736eb8391a"><path d="M 11.09375 -5.136719 L 226.929688 -9.648438 L 231.625 215.183594 L 15.789062 219.691406 Z M 11.09375 -5.136719 " clip-rule="nonzero"/></clipPath><clipPath id="6464552132"><path d="M 11.1875 -0.640625 L 224.777344 -5.101562 L 229.378906 215.230469 L 15.789062 219.691406 Z M 11.1875 -0.640625 " clip-rule="nonzero"/></clipPath><clipPath id="2d39fb7bd6"><path d="M 11.09375 -5.136719 L 226.929688 -9.648438 L 231.625 215.183594 L 15.789062 219.691406 Z M 11.09375 -5.136719 " clip-rule="nonzero"/></clipPath><clipPath id="b6e83eb3d0"><path d="M 84 89 L 88 89 L 88 93 L 84 93 Z M 84 89 " clip-rule="nonzero"/></clipPath><clipPath id="e5b60f35ef"><path d="M 11.09375 -5.136719 L 226.929688 -9.648438 L 231.625 215.183594 L 15.789062 219.691406 Z M 11.09375 -5.136719 " clip-rule="nonzero"/></clipPath><clipPath id="c1539793e8"><path d="M 11.1875 -0.640625 L 224.777344 -5.101562 L 229.378906 215.230469 L 15.789062 219.691406 Z M 11.1875 -0.640625 " clip-rule="nonzero"/></clipPath><clipPath id="637b6f7e59"><path d="M 11.09375 -5.136719 L 226.929688 -9.648438 L 231.625 215.183594 L 15.789062 219.691406 Z M 11.09375 -5.136719 " clip-rule="nonzero"/></clipPath><clipPath id="f6424cc470"><path d="M 87 87 L 91 87 L 91 91 L 87 91 Z M 87 87 " clip-rule="nonzero"/></clipPath><clipPath id="eed0b7f0ed"><path d="M 11.09375 -5.136719 L 226.929688 -9.648438 L 231.625 215.183594 L 15.789062 219.691406 Z M 11.09375 -5.136719 " clip-rule="nonzero"/></clipPath><clipPath id="9fb1eb3324"><path d="M 11.1875 -0.640625 L 224.777344 -5.101562 L 229.378906 215.230469 L 15.789062 219.691406 Z M 11.1875 -0.640625 " clip-rule="nonzero"/></clipPath><clipPath id="ffb5bc3db5"><path d="M 11.09375 -5.136719 L 226.929688 -9.648438 L 231.625 215.183594 L 15.789062 219.691406 Z M 11.09375 -5.136719 " clip-rule="nonzero"/></clipPath><clipPath id="e89b60ed28"><path d="M 134 52 L 136 52 L 136 55 L 134 55 Z M 134 52 " clip-rule="nonzero"/></clipPath><clipPath id="351ed53115"><path d="M 11.09375 -5.136719 L 226.929688 -9.648438 L 231.625 215.183594 L 15.789062 219.691406 Z M 11.09375 -5.136719 " clip-rule="nonzero"/></clipPath><clipPath id="3679deadf5"><path d="M 11.1875 -0.640625 L 224.777344 -5.101562 L 229.378906 215.230469 L 15.789062 219.691406 Z M 11.1875 -0.640625 " clip-rule="nonzero"/></clipPath><clipPath id="66a85d8d7f"><path d="M 11.09375 -5.136719 L 226.929688 -9.648438 L 231.625 215.183594 L 15.789062 219.691406 Z M 11.09375 -5.136719 " clip-rule="nonzero"/></clipPath><clipPath id="6782495437"><path d="M 131 55 L 134 55 L 134 59 L 131 59 Z M 131 55 " clip-rule="nonzero"/></clipPath><clipPath id="1029e629a4"><path d="M 11.09375 -5.136719 L 226.929688 -9.648438 L 231.625 215.183594 L 15.789062 219.691406 Z M 11.09375 -5.136719 " clip-rule="nonzero"/></clipPath><clipPath id="a2d8eaccb8"><path d="M 11.1875 -0.640625 L 224.777344 -5.101562 L 229.378906 215.230469 L 15.789062 219.691406 Z M 11.1875 -0.640625 " clip-rule="nonzero"/></clipPath><clipPath id="00c2931c8c"><path d="M 11.09375 -5.136719 L 226.929688 -9.648438 L 231.625 215.183594 L 15.789062 219.691406 Z M 11.09375 -5.136719 " clip-rule="nonzero"/></clipPath><clipPath id="517224a4c7"><path d="M 125 100 L 128 100 L 128 103 L 125 103 Z M 125 100 " clip-rule="nonzero"/></clipPath><clipPath id="ae8176224b"><path d="M 11.09375 -5.136719 L 226.929688 -9.648438 L 231.625 215.183594 L 15.789062 219.691406 Z M 11.09375 -5.136719 " clip-rule="nonzero"/></clipPath><clipPath id="1b555b0338"><path d="M 11.1875 -0.640625 L 224.777344 -5.101562 L 229.378906 215.230469 L 15.789062 219.691406 Z M 11.1875 -0.640625 " clip-rule="nonzero"/></clipPath><clipPath id="b8d6f63160"><path d="M 11.09375 -5.136719 L 226.929688 -9.648438 L 231.625 215.183594 L 15.789062 219.691406 Z M 11.09375 -5.136719 " clip-rule="nonzero"/></clipPath><clipPath id="31635c3fbb"><path d="M 122 99 L 125 99 L 125 103 L 122 103 Z M 122 99 " clip-rule="nonzero"/></clipPath><clipPath id="fb78767075"><path d="M 11.09375 -5.136719 L 226.929688 -9.648438 L 231.625 215.183594 L 15.789062 219.691406 Z M 11.09375 -5.136719 " clip-rule="nonzero"/></clipPath><clipPath id="6e391ec490"><path d="M 11.1875 -0.640625 L 224.777344 -5.101562 L 229.378906 215.230469 L 15.789062 219.691406 Z M 11.1875 -0.640625 " clip-rule="nonzero"/></clipPath><clipPath id="17d86600a8"><path d="M 11.09375 -5.136719 L 226.929688 -9.648438 L 231.625 215.183594 L 15.789062 219.691406 Z M 11.09375 -5.136719 " clip-rule="nonzero"/></clipPath><clipPath id="f90b279ce9"><path d="M 105 144 L 108 144 L 108 147 L 105 147 Z M 105 144 " clip-rule="nonzero"/></clipPath><clipPath id="78456ca9e2"><path d="M 11.09375 -5.136719 L 226.929688 -9.648438 L 231.625 215.183594 L 15.789062 219.691406 Z M 11.09375 -5.136719 " clip-rule="nonzero"/></clipPath><clipPath id="248ca8742a"><path d="M 11.1875 -0.640625 L 224.777344 -5.101562 L 229.378906 215.230469 L 15.789062 219.691406 Z M 11.1875 -0.640625 " clip-rule="nonzero"/></clipPath><clipPath id="8ef55e7541"><path d="M 11.09375 -5.136719 L 226.929688 -9.648438 L 231.625 215.183594 L 15.789062 219.691406 Z M 11.09375 -5.136719 " clip-rule="nonzero"/></clipPath><clipPath id="951b38f4be"><path d="M 102 143 L 106 143 L 106 146 L 102 146 Z M 102 143 " clip-rule="nonzero"/></clipPath><clipPath id="198c1c12aa"><path d="M 11.09375 -5.136719 L 226.929688 -9.648438 L 231.625 215.183594 L 15.789062 219.691406 Z M 11.09375 -5.136719 " clip-rule="nonzero"/></clipPath><clipPath id="6b58eff027"><path d="M 11.1875 -0.640625 L 224.777344 -5.101562 L 229.378906 215.230469 L 15.789062 219.691406 Z M 11.1875 -0.640625 " clip-rule="nonzero"/></clipPath><clipPath id="36fd76aef7"><path d="M 11.09375 -5.136719 L 226.929688 -9.648438 L 231.625 215.183594 L 15.789062 219.691406 Z M 11.09375 -5.136719 " clip-rule="nonzero"/></clipPath><clipPath id="ba16d44642"><path d="M 112 126 L 115 126 L 115 129 L 112 129 Z M 112 126 " clip-rule="nonzero"/></clipPath><clipPath id="b1cb69ef2b"><path d="M 11.09375 -5.136719 L 226.929688 -9.648438 L 231.625 215.183594 L 15.789062 219.691406 Z M 11.09375 -5.136719 " clip-rule="nonzero"/></clipPath><clipPath id="6fd8c69308"><path d="M 11.1875 -0.640625 L 224.777344 -5.101562 L 229.378906 215.230469 L 15.789062 219.691406 Z M 11.1875 -0.640625 " clip-rule="nonzero"/></clipPath><clipPath id="f2499ec0f6"><path d="M 11.09375 -5.136719 L 226.929688 -9.648438 L 231.625 215.183594 L 15.789062 219.691406 Z M 11.09375 -5.136719 " clip-rule="nonzero"/></clipPath></defs><g clip-path="url(#eb56d6e9d9)"><g clip-path="url(#7201912696)"><g clip-path="url(#b04539c399)"><g clip-path="url(#52ce9342ee)"><path fill="#ffca61" d="M 116.496094 111.699219 L 110.671875 111.652344 L 104.601562 111.527344 C 104.601562 111.527344 106.316406 139.621094 89.648438 150.863281 L 89.652344 159.144531 L 110.398438 159.21875 L 130.984375 159.378906 L 131.144531 151.011719 C 114.597656 139.617188 116.496094 111.699219 116.496094 111.699219 Z M 116.496094 111.699219 " fill-opacity="1" fill-rule="nonzero"/></g></g></g></g><g clip-path="url(#02af73f89c)"><g clip-path="url(#b09a60b881)"><g clip-path="url(#506941014b)"><g clip-path="url(#a850f5385b)"><path stroke-linecap="round" transform="matrix(2.202425, -0.0460049, 0.0460049, 2.202425, 11.094263, -5.046373)" fill="none" stroke-linejoin="round" d="M 35.066544 71.800919 L 44.110682 72.032403 " stroke="#261947" stroke-width="0.4" stroke-opacity="1" stroke-miterlimit="4"/></g></g></g></g><g clip-path="url(#fe669e7076)"><g clip-path="url(#e784fd7407)"><g clip-path="url(#9160596ab3)"><g clip-path="url(#83eb2fd538)"><path fill="#ff974a" d="M 119.414062 114.101562 C 119.320312 117.464844 115.433594 119.921875 110.515625 120.019531 C 105.671875 119.871094 101.851562 117.324219 101.785156 114.046875 C 101.71875 110.765625 105.765625 108.226562 110.523438 108.210938 C 115.527344 108.273438 119.351562 110.820312 119.414062 114.101562 Z M 119.414062 114.101562 " fill-opacity="1" fill-rule="nonzero"/></g></g></g></g><g clip-path="url(#d7cc901d25)"><g clip-path="url(#db4b8b7c01)"><g clip-path="url(#5dd69ede1e)"><g clip-path="url(#f36446829e)"><path fill="#ffca61" d="M 63.964844 35.753906 L 64.027344 42.96875 C 76.925781 48.203125 71.183594 97.195312 96.578125 112.019531 C 105.207031 117.011719 115.945312 116.957031 124.539062 112.03125 C 150.078125 97.574219 144.746094 48.398438 157.847656 43.378906 L 157.882812 37.144531 C 125.203125 37.75 93.898438 37.285156 63.964844 35.753906 Z M 63.964844 35.753906 " fill-opacity="1" fill-rule="nonzero"/></g></g></g></g><g clip-path="url(#1b8f371e30)"><g clip-path="url(#a0fd776576)"><g clip-path="url(#c3699d789c)"><g clip-path="url(#20bfd58534)"><path fill="#5c4b99" d="M 137.117188 195.089844 L 83.316406 194.777344 C 81.925781 194.890625 80.832031 193.597656 80.96875 192.285156 C 81.636719 181.992188 81.675781 170.375 81.089844 157.429688 C 80.980469 156.039062 82.183594 154.785156 83.5 154.921875 C 101.445312 155.710938 119.296875 155.789062 137.050781 155.15625 C 138.441406 155.046875 139.695312 156.253906 139.644531 157.730469 C 138.714844 168.574219 138.675781 180.191406 139.527344 192.582031 C 139.550781 193.8125 138.347656 195.066406 137.117188 195.089844 Z M 137.117188 195.089844 " fill-opacity="1" fill-rule="nonzero"/></g></g></g></g><g clip-path="url(#16dc1080f3)"><g clip-path="url(#49b4dd576b)"><g clip-path="url(#0cc2c27b78)"><g clip-path="url(#07c3c7b599)"><path fill="#8374d1" d="M 127.960938 188.304688 L 92.449219 188.117188 C 92.398438 185.660156 90.554688 183.726562 88.097656 183.777344 L 88.230469 165.898438 C 90.6875 165.847656 92.621094 164.003906 92.570312 161.546875 L 128.082031 161.734375 C 128.128906 164.191406 129.972656 166.125 132.433594 166.074219 L 132.300781 183.953125 C 129.839844 184.003906 127.910156 185.847656 127.960938 188.304688 Z M 127.960938 188.304688 " fill-opacity="1" fill-rule="nonzero"/></g></g></g></g><g clip-path="url(#28a8890b7d)"><g clip-path="url(#e4ab49a291)"><g clip-path="url(#5a1c256264)"><g clip-path="url(#d4d4eeea61)"><path fill="#ff974a" d="M 79.417969 94.730469 C 75.246094 91.125 70.363281 88.925781 65.480469 86.730469 C 61.007812 84.523438 55.878906 82.25 52.292969 79.367188 C 50.707031 77.925781 48.949219 76.15625 47.773438 74.703125 C 46.425781 72.925781 45.488281 71.140625 44.957031 69.347656 C 44.6875 68.042969 44.507812 67.308594 44.40625 66.324219 C 44.453125 65.886719 44.46875 65.394531 44.457031 64.847656 C 44.507812 64.683594 44.507812 64.546875 44.449219 64.4375 L 44.519531 63.78125 C 44.964844 61.476562 45.597656 60.316406 46.871094 58.402344 C 46.980469 58.347656 47.03125 58.316406 47.03125 58.316406 C 47.03125 58.316406 47.058594 58.234375 47.109375 58.070312 C 47.328125 57.957031 47.515625 57.789062 47.671875 57.566406 C 47.992188 57.125 48.316406 56.816406 48.640625 56.644531 C 49.605469 55.722656 49.84375 55.390625 50.980469 54.792969 C 51.414062 54.566406 51.847656 54.339844 52.277344 54.113281 C 52.277344 54.113281 52.601562 53.941406 52.765625 53.855469 C 52.875 53.800781 53.011719 53.796875 53.175781 53.847656 C 53.714844 53.5625 54.261719 53.417969 54.804688 53.40625 C 55.023438 53.292969 55.183594 53.207031 55.292969 53.148438 L 55.949219 53.21875 C 56.441406 53.097656 56.933594 53.117188 57.429688 53.269531 C 57.699219 53.265625 57.972656 53.257812 58.246094 53.253906 C 58.355469 53.195312 58.410156 53.167969 58.410156 53.167969 C 58.90625 53.324219 59.398438 53.476562 59.894531 53.628906 C 60.167969 53.625 60.414062 53.703125 60.636719 53.863281 C 60.800781 53.777344 61.378906 54.09375 61.378906 54.09375 C 63.285156 54.957031 64.613281 55.914062 66.039062 57.445312 C 68.726562 60.585938 70.039062 64.660156 68.808594 68.621094 C 68.699219 68.679688 68.644531 68.707031 68.644531 68.707031 C 68.644531 68.707031 68.617188 68.789062 68.566406 68.957031 C 68.40625 69.175781 68.277344 69.453125 68.175781 69.78125 C 68.011719 69.867188 67.933594 70.117188 67.773438 70.199219 C 67.613281 70.421875 67.425781 70.589844 67.207031 70.703125 C 67.695312 70.449219 66.398438 71.128906 66.722656 70.960938 C 66.613281 71.015625 66.453125 71.101562 66.234375 71.214844 C 66.125 71.273438 66.074219 71.300781 66.074219 71.300781 C 65.800781 71.308594 65.582031 71.285156 65.414062 71.234375 C 65.25 71.179688 65.167969 71.15625 65.167969 71.15625 C 65.003906 71.105469 64.835938 71.050781 64.671875 71 C 64.671875 71 64.339844 70.761719 64.175781 70.847656 C 64.09375 70.683594 64.007812 70.523438 64.007812 70.523438 C 63.949219 70.414062 63.921875 70.359375 63.921875 70.359375 C 63.835938 70.199219 63.664062 69.875 63.582031 69.710938 C 63.300781 67.996094 61.3125 66.96875 59.679688 67.410156 C 57.886719 67.941406 57.183594 69.757812 57.464844 71.472656 C 58.230469 76.871094 65.078125 78.867188 69.628906 76.886719 C 74.746094 74.40625 76.175781 68.0625 75.582031 62.992188 C 74.0625 52.609375 63.410156 44.949219 53.121094 47.042969 C 42.667969 49.222656 35.921875 60.425781 38.589844 70.625 C 41.601562 81.878906 52.460938 87.566406 62.148438 92.207031 C 65.125 93.542969 68.191406 95.039062 70.929688 96.707031 C 73.25 97.972656 75.582031 99.648438 77.097656 101.75 C 77.78125 103.046875 78.207031 103.859375 78.480469 105.164062 C 78.394531 105.003906 78.488281 105.574219 78.574219 105.738281 C 78.472656 106.066406 78.449219 106.421875 78.511719 106.804688 L 78.523438 107.214844 C 78.363281 107.4375 78.285156 107.683594 78.289062 107.957031 C 78.183594 108.015625 78.128906 108.042969 78.128906 108.042969 L 77.8125 108.621094 C 77.761719 108.789062 77.734375 108.871094 77.734375 108.871094 C 77.734375 108.871094 77.679688 108.898438 77.574219 108.957031 C 77.304688 109.234375 77.089844 109.484375 76.929688 109.707031 C 76.847656 109.542969 76.445312 109.960938 76.445312 109.960938 C 76.335938 110.019531 76.28125 110.046875 76.28125 110.046875 C 76.28125 110.046875 76.226562 110.074219 76.121094 110.132812 C 75.847656 110.136719 75.546875 110.226562 75.222656 110.398438 C 75.167969 110.289062 75.085938 110.261719 74.976562 110.320312 C 74.8125 110.269531 74.726562 110.242188 74.726562 110.242188 C 74.5625 110.191406 74.398438 110.140625 74.234375 110.089844 C 72.585938 109.710938 70.636719 110.734375 70.261719 112.382812 C 69.722656 114.117188 70.820312 115.816406 72.554688 116.355469 C 77.753906 117.972656 83.09375 114.339844 84.632812 109.386719 C 86.082031 103.863281 83.34375 98.261719 79.417969 94.730469 Z M 79.417969 94.730469 " fill-opacity="1" fill-rule="nonzero"/></g></g></g></g><g clip-path="url(#6c9f8495da)"><g clip-path="url(#77a128a7f7)"><g clip-path="url(#879e516931)"><g clip-path="url(#1b1f6c0be5)"><path fill="#ff974a" d="M 136.710938 109.570312 C 137.960938 114.710938 143.363281 118.292969 148.582031 116.796875 C 150.375 116.265625 151.324219 114.527344 150.878906 112.894531 C 150.351562 111.101562 148.527344 109.988281 146.980469 110.59375 C 146.816406 110.542969 146.625 110.574219 146.40625 110.6875 C 146.40625 110.6875 146.324219 110.664062 146.160156 110.613281 C 146.050781 110.667969 145.996094 110.695312 145.996094 110.695312 C 145.667969 110.59375 145.335938 110.492188 145.007812 110.390625 C 144.949219 110.28125 144.867188 110.253906 144.761719 110.3125 L 144.34375 109.910156 C 144.121094 109.75 143.898438 109.589844 143.675781 109.429688 C 143.621094 109.324219 143.5625 109.214844 143.503906 109.105469 C 143.503906 109.105469 143.476562 109.050781 143.421875 108.945312 L 143.164062 108.457031 C 143.109375 108.347656 143.078125 108.296875 143.078125 108.296875 C 142.964844 108.078125 142.90625 107.835938 142.902344 107.5625 C 142.816406 107.398438 142.730469 107.238281 142.730469 107.238281 C 142.777344 106.796875 142.769531 106.386719 142.707031 106.007812 L 142.773438 105.347656 C 142.996094 104.195312 143.390625 103.367188 144.1875 102.121094 C 145.535156 99.964844 148.046875 98.4375 150.398438 96.996094 C 153.316406 95.460938 156.164062 94.171875 159.167969 92.800781 C 169 88.257812 179.875 82.542969 183.089844 71.328125 C 185.839844 61.1875 179.050781 49.84375 168.753906 47.589844 C 158.460938 45.335938 147.703125 52.851562 146.109375 63.214844 C 145.3125 68.398438 146.835938 74.84375 152.050781 77.28125 C 156.4375 79.324219 163.285156 77.382812 164.160156 71.953125 C 164.453125 70.144531 163.761719 68.4375 161.867188 67.980469 C 160.382812 67.519531 158.1875 68.464844 157.894531 70.277344 L 157.742188 70.769531 C 157.632812 70.828125 157.609375 70.910156 157.664062 71.019531 C 157.664062 71.019531 157.503906 71.105469 157.339844 71.1875 C 157.175781 71.273438 156.851562 71.445312 156.851562 71.445312 C 156.746094 71.503906 156.636719 71.558594 156.527344 71.617188 C 156.421875 71.671875 156.285156 71.675781 156.117188 71.625 C 155.953125 71.574219 155.761719 71.605469 155.546875 71.71875 C 155.488281 71.609375 155.40625 71.582031 155.300781 71.640625 C 155.132812 71.589844 154.96875 71.539062 154.804688 71.484375 C 155.214844 71.476562 154.054688 70.84375 154.386719 71.085938 C 154.164062 70.925781 153.941406 70.765625 153.71875 70.605469 C 153.71875 70.605469 153.550781 70.28125 153.464844 70.121094 C 153.351562 69.902344 153.207031 69.632812 153.039062 69.308594 C 152.980469 69.199219 152.953125 69.144531 152.953125 69.144531 C 152.953125 69.144531 152.925781 69.089844 152.867188 68.984375 C 151.640625 65.070312 152.949219 60.863281 155.761719 57.9375 C 157.207031 56.347656 158.417969 55.503906 160.453125 54.644531 C 160.289062 54.730469 160.9375 54.386719 161.101562 54.304688 C 161.316406 54.1875 161.5625 54.128906 161.835938 54.125 C 162.324219 54.003906 162.8125 53.886719 163.304688 53.765625 C 163.304688 53.765625 163.359375 53.738281 163.464844 53.679688 C 163.738281 53.675781 164.011719 53.671875 164.285156 53.664062 C 164.832031 53.652344 165.324219 53.671875 165.761719 53.71875 L 166.421875 53.785156 C 166.585938 53.835938 166.75 53.890625 166.914062 53.941406 C 167.519531 54.039062 168.066406 54.164062 168.5625 54.316406 C 168.726562 54.367188 168.894531 54.417969 169.058594 54.472656 L 169.390625 54.710938 C 169.886719 54.863281 170.355469 55.101562 170.800781 55.421875 C 171.960938 56.054688 172.292969 56.292969 173.128906 57.09375 C 173.464844 57.472656 173.773438 57.792969 174.050781 58.0625 C 174.164062 58.277344 174.359375 58.519531 174.640625 58.785156 C 174.695312 58.894531 174.753906 59.003906 174.808594 59.113281 C 175.996094 60.972656 176.59375 62.109375 177.128906 64.3125 C 177.050781 64.5625 177.058594 64.96875 177.144531 65.132812 C 177.203125 65.242188 177.203125 65.378906 177.152344 65.542969 C 177.164062 66.089844 177.148438 66.582031 177.101562 67.019531 C 177.203125 68 176.972656 68.746094 176.585938 69.980469 C 176.046875 71.714844 175.097656 73.457031 173.738281 75.207031 C 172.707031 76.785156 170.773438 78.628906 169.160156 79.890625 C 165.527344 82.832031 160.488281 85.066406 155.9375 87.042969 C 151.144531 89.355469 146.105469 91.589844 141.910156 95.035156 C 137.964844 98.558594 135.125 104.191406 136.710938 109.570312 Z M 136.710938 109.570312 " fill-opacity="1" fill-rule="nonzero"/></g></g></g></g><g clip-path="url(#5f67ec916b)"><g clip-path="url(#b8bece61eb)"><g clip-path="url(#b4009baa50)"><g clip-path="url(#86683231fc)"><path stroke-linecap="round" transform="matrix(2.202425, -0.0460049, 0.0460049, 2.202425, 11.094263, -5.046373)" fill="none" stroke-linejoin="round" d="M 25.911519 22.705859 L 50.028702 23.31959 " stroke="#261947" stroke-width="0.4" stroke-opacity="1" stroke-miterlimit="4"/></g></g></g></g><g clip-path="url(#acf71fd785)"><g clip-path="url(#736eb8391a)"><g clip-path="url(#6464552132)"><g clip-path="url(#2d39fb7bd6)"><path stroke-linecap="round" transform="matrix(2.202425, -0.0460049, 0.0460049, 2.202425, 11.094263, -5.046373)" fill="none" stroke-linejoin="round" d="M 51.146072 23.319873 L 55.387921 23.435082 " stroke="#261947" stroke-width="0.4" stroke-opacity="1" stroke-miterlimit="4"/></g></g></g></g><g clip-path="url(#b6e83eb3d0)"><g clip-path="url(#e5b60f35ef)"><g clip-path="url(#c1539793e8)"><g clip-path="url(#637b6f7e59)"><path fill="#ffdea4" d="M 87.039062 90.3125 C 86.867188 89.988281 86.621094 89.914062 86.371094 89.835938 C 86.207031 89.785156 85.960938 89.84375 85.636719 90.015625 C 85.636719 90.015625 85.582031 90.042969 85.476562 90.101562 C 85.367188 90.15625 85.289062 90.269531 85.238281 90.433594 C 85.078125 90.65625 85 90.902344 85.003906 91.175781 C 84.84375 91.261719 85.011719 91.585938 85.097656 91.746094 C 85.269531 92.070312 85.355469 92.234375 85.601562 92.3125 C 85.933594 92.414062 86.175781 92.355469 86.335938 92.132812 C 86.445312 92.074219 86.5 92.046875 86.5 92.046875 C 86.714844 91.933594 86.847656 91.792969 86.902344 91.628906 C 86.953125 91.464844 87.003906 91.300781 87.054688 91.132812 C 87.132812 90.886719 87.125 90.476562 87.039062 90.3125 Z M 87.039062 90.3125 " fill-opacity="1" fill-rule="nonzero"/></g></g></g></g><g clip-path="url(#f6424cc470)"><g clip-path="url(#eed0b7f0ed)"><g clip-path="url(#9fb1eb3324)"><g clip-path="url(#ffb5bc3db5)"><path fill="#ffdea4" d="M 90.199219 88.445312 C 89.921875 88.179688 89.585938 87.941406 89.199219 87.730469 C 88.621094 87.414062 88.046875 87.503906 87.730469 88.085938 C 87.578125 88.582031 87.671875 89.152344 88.167969 89.308594 C 88.554688 89.519531 88.941406 89.730469 89.328125 89.941406 C 89.660156 90.179688 90.230469 90.085938 90.632812 89.667969 C 90.789062 89.171875 90.695312 88.601562 90.199219 88.445312 Z M 90.199219 88.445312 " fill-opacity="1" fill-rule="nonzero"/></g></g></g></g><g clip-path="url(#e89b60ed28)"><g clip-path="url(#351ed53115)"><g clip-path="url(#3679deadf5)"><g clip-path="url(#66a85d8d7f)"><path fill="#ffdea4" d="M 134.980469 52.285156 C 133.753906 52.308594 133.707031 54.195312 134.9375 54.171875 C 136.167969 54.148438 136.210938 52.261719 134.980469 52.285156 Z M 134.980469 52.285156 " fill-opacity="1" fill-rule="nonzero"/></g></g></g></g><g clip-path="url(#6782495437)"><g clip-path="url(#1029e629a4)"><g clip-path="url(#a2d8eaccb8)"><g clip-path="url(#00c2931c8c)"><path fill="#ffdea4" d="M 133.433594 56.824219 C 133.429688 56.554688 133.398438 56.363281 133.339844 56.253906 C 133.332031 55.84375 133.085938 55.765625 133 55.605469 C 132.75 55.527344 132.417969 55.289062 132.09375 55.457031 C 131.878906 55.574219 131.691406 55.742188 131.53125 55.960938 C 131.480469 56.128906 131.457031 56.347656 131.460938 56.621094 C 131.46875 56.894531 131.527344 57.136719 131.640625 57.355469 C 131.5625 57.601562 131.894531 57.839844 131.980469 58.003906 C 132.230469 58.078125 132.476562 58.15625 132.800781 57.988281 C 133.074219 57.980469 133.289062 57.867188 133.449219 57.644531 C 133.445312 57.371094 133.4375 57.097656 133.433594 56.824219 Z M 133.433594 56.824219 " fill-opacity="1" fill-rule="nonzero"/></g></g></g></g><g clip-path="url(#517224a4c7)"><g clip-path="url(#ae8176224b)"><g clip-path="url(#1b555b0338)"><g clip-path="url(#b8d6f63160)"><path fill="#ffdea4" d="M 126.777344 100.914062 C 125.546875 100.9375 125.503906 102.824219 126.734375 102.800781 C 128.046875 102.9375 128.007812 100.890625 126.777344 100.914062 Z M 126.777344 100.914062 " fill-opacity="1" fill-rule="nonzero"/></g></g></g></g><g clip-path="url(#31635c3fbb)"><g clip-path="url(#fb78767075)"><g clip-path="url(#6e391ec490)"><g clip-path="url(#17d86600a8)"><path fill="#ffdea4" d="M 124.25 101.621094 C 124.128906 101.128906 124.09375 100.667969 124.140625 100.230469 C 123.882812 99.742188 123.300781 99.425781 122.976562 99.597656 C 122.40625 99.6875 122.089844 100.269531 122.183594 100.84375 C 122.246094 101.222656 122.335938 101.660156 122.457031 102.148438 C 122.464844 102.558594 123.128906 103.035156 123.617188 102.78125 C 124.1875 102.6875 124.34375 102.191406 124.25 101.621094 Z M 124.25 101.621094 " fill-opacity="1" fill-rule="nonzero"/></g></g></g></g><g clip-path="url(#f90b279ce9)"><g clip-path="url(#78456ca9e2)"><g clip-path="url(#248ca8742a)"><g clip-path="url(#8ef55e7541)"><path fill="#ffdea4" d="M 106.832031 144.941406 C 105.679688 144.71875 105.722656 146.765625 106.949219 146.742188 C 108.179688 146.71875 108.0625 144.914062 106.832031 144.941406 Z M 106.832031 144.941406 " fill-opacity="1" fill-rule="nonzero"/></g></g></g></g><g clip-path="url(#951b38f4be)"><g clip-path="url(#198c1c12aa)"><g clip-path="url(#6b58eff027)"><g clip-path="url(#36fd76aef7)"><path fill="#ffdea4" d="M 105.253906 143.90625 C 105.082031 143.582031 105 143.417969 104.75 143.34375 C 104.527344 143.183594 104.28125 143.105469 104.007812 143.109375 C 104.007812 143.109375 103.953125 143.140625 103.847656 143.195312 C 103.628906 143.308594 103.496094 143.449219 103.445312 143.613281 C 103.394531 143.78125 103.257812 143.917969 103.042969 144.03125 C 102.964844 144.28125 102.972656 144.691406 103.058594 144.851562 C 103.144531 145.015625 103.316406 145.339844 103.5625 145.417969 C 103.726562 145.46875 103.945312 145.492188 104.21875 145.484375 C 104.328125 145.429688 104.382812 145.398438 104.382812 145.398438 C 104.597656 145.285156 104.734375 145.148438 104.785156 144.980469 C 104.890625 144.925781 105.027344 144.785156 105.183594 144.5625 C 105.261719 144.316406 105.339844 144.066406 105.253906 143.90625 Z M 105.253906 143.90625 " fill-opacity="1" fill-rule="nonzero"/></g></g></g></g><g clip-path="url(#ba16d44642)"><g clip-path="url(#b1cb69ef2b)"><g clip-path="url(#6fd8c69308)"><g clip-path="url(#f2499ec0f6)"><path fill="#ffdea4" d="M 113.523438 126.929688 C 112.292969 126.953125 112.25 128.839844 113.480469 128.816406 C 114.707031 128.792969 114.753906 126.90625 113.523438 126.929688 Z M 113.523438 126.929688 " fill-opacity="1" fill-rule="nonzero"/></g></g></g></g></svg>