<svg xmlns="http://www.w3.org/2000/svg" xmlns:xlink="http://www.w3.org/1999/xlink" width="300" zoomAndPan="magnify" viewBox="0 0 224.87999 225" height="300" preserveAspectRatio="xMidYMid meet" version="1.0"><path fill="#e0752d" d="M 105.519531 33.820312 L 57.488281 106.933594 C 56.554688 108.644531 57.136719 110.242188 58.304688 111.496094 L 85.960938 131.367188 C 87.59375 132.738281 88.058594 134.792969 86.65625 136.390625 L 40.511719 184.742188 C 38.292969 187.59375 40.742188 191.589844 44.480469 190.5625 L 169.308594 144.996094 C 171.992188 144.199219 172.695312 141.460938 170.710938 139.519531 L 140.730469 107.4375 C 139.679688 105.726562 139.679688 103.785156 141.082031 102.191406 L 172.621094 77.90625 C 174.488281 76.421875 174.257812 73.457031 172.503906 72.542969 L 110.304688 32.566406 C 109.023438 31.769531 106.453125 32.109375 105.519531 33.820312 Z M 105.519531 33.820312 " fill-opacity="1" fill-rule="nonzero"/><path fill="#e0752d" d="M 167.804688 123.773438 L 36.203125 170.59375 C 36.898438 177.554688 40.042969 188.507812 40.042969 188.507812 L 171.644531 141.691406 C 171.066406 134.273438 167.804688 123.773438 167.804688 123.773438 Z M 167.804688 123.773438 " fill-opacity="1" fill-rule="nonzero"/><path fill="#e0752d" d="M 170.414062 57.480469 L 53.414062 91.871094 C 53.992188 99.285156 56.90625 109.214844 56.90625 109.214844 L 173.90625 74.824219 C 172.742188 65.8125 170.414062 57.480469 170.414062 57.480469 Z M 170.414062 57.480469 " fill-opacity="1" fill-rule="nonzero"/><path fill="#ffca61" d="M 101.910156 16.929688 L 53.882812 90.042969 C 52.945312 91.753906 53.0625 93.238281 54.695312 94.609375 L 82.351562 114.480469 C 83.984375 115.851562 84.449219 117.902344 83.046875 119.5 L 36.902344 167.855469 C 34.683594 170.707031 37.132812 174.699219 40.402344 173.5625 L 165.699219 128.109375 C 167.917969 127.195312 168.621094 124.457031 167.105469 122.632812 L 137.121094 90.550781 C 135.605469 88.722656 136.070312 86.898438 137.472656 85.300781 L 169.011719 61.015625 C 170.878906 59.535156 170.648438 56.566406 168.898438 55.652344 L 106.695312 15.679688 C 104.945312 14.765625 102.84375 15.21875 101.910156 16.929688 Z M 101.910156 16.929688 " fill-opacity="1" fill-rule="nonzero"/></svg>