<svg width="21" height="21" viewBox="0 0 21 21" fill="none" xmlns="http://www.w3.org/2000/svg">
<path d="M0 20.4999C-3.1054e-05 20.7761 0.223801 21 0.499944 21C0.776086 21 0.999969 20.7762 1 20.5001L0 20.4999ZM0.500422 16.7496L1.00042 16.7496L0.500422 16.7496ZM11.125 13.5C11.4011 13.5 11.625 13.2761 11.625 13C11.625 12.7239 11.4011 12.5 11.125 12.5V13.5ZM20.5 14.75C20.7761 14.75 21 14.5261 21 14.25C21 13.9739 20.7761 13.75 20.5 13.75V14.75ZM14.875 13.75C14.5989 13.75 14.375 13.9739 14.375 14.25C14.375 14.5261 14.5989 14.75 14.875 14.75V13.75ZM17.1875 17.0624C17.1875 17.3385 17.4114 17.5624 17.6875 17.5624C17.9636 17.5624 18.1875 17.3385 18.1875 17.0624H17.1875ZM18.1875 11.4374C18.1875 11.1612 17.9636 10.9374 17.6875 10.9374C17.4114 10.9374 17.1875 11.1612 17.1875 11.4374H18.1875ZM12.5 4.25C12.5 6.04492 11.0449 7.5 9.25 7.5V8.5C11.5972 8.5 13.5 6.59721 13.5 4.25H12.5ZM9.25 7.5C7.45507 7.5 6 6.04492 6 4.25H5C5 6.59721 6.90279 8.5 9.25 8.5V7.5ZM6 4.25C6 2.45507 7.45507 1 9.25 1V0C6.90279 0 5 1.90279 5 4.25H6ZM9.25 1C11.0449 1 12.5 2.45507 12.5 4.25H13.5C13.5 1.90279 11.5972 0 9.25 0V1ZM1 20.5001L1.00042 16.7496L0.000421584 16.7495L0 20.4999L1 20.5001ZM4.25042 12.5C1.9034 12.5 0.000685424 14.4025 0.000421584 16.7495L1.00042 16.7496C1.00062 14.9548 2.45564 13.5 4.25042 13.5V12.5ZM4.25042 13.5H11.125V12.5H4.25042V13.5ZM20.5 13.75H17.6875V14.75H20.5V13.75ZM17.6875 13.75H14.875V14.75H17.6875V13.75ZM18.1875 17.0624V14.25H17.1875V17.0624H18.1875ZM18.1875 14.25V11.4374H17.1875V14.25H18.1875Z" fill="white"/>
</svg>
