<svg width="32" height="32" viewBox="0 0 32 32" fill="none" xmlns="http://www.w3.org/2000/svg">
<path d="M2.7002 28.7999C2.70016 29.076 2.924 29.2999 3.20014 29.2999C3.47628 29.3 3.70016 29.0761 3.7002 28.8L2.7002 28.7999ZM3.20073 23.9994L3.70073 23.9995L3.20073 23.9994ZM16.8002 19.6999C17.0763 19.6999 17.3002 19.4761 17.3002 19.1999C17.3002 18.9238 17.0763 18.6999 16.8002 18.6999V19.6999ZM28.8002 21.2999C29.0763 21.2999 29.3002 21.0761 29.3002 20.7999C29.3002 20.5238 29.0763 20.2999 28.8002 20.2999V21.2999ZM21.6002 20.2999C21.3241 20.2999 21.1002 20.5238 21.1002 20.7999C21.1002 21.0761 21.3241 21.2999 21.6002 21.2999V20.2999ZM24.7002 24.3998C24.7002 24.6759 24.924 24.8998 25.2002 24.8998C25.4763 24.8998 25.7002 24.6759 25.7002 24.3998H24.7002ZM25.7002 17.1998C25.7002 16.9236 25.4763 16.6998 25.2002 16.6998C24.924 16.6998 24.7002 16.9236 24.7002 17.1998H25.7002ZM18.7002 7.99995C18.7002 10.3748 16.775 12.2999 14.4002 12.2999V13.2999C17.3273 13.2999 19.7002 10.9271 19.7002 7.99995H18.7002ZM14.4002 12.2999C12.0254 12.2999 10.1002 10.3748 10.1002 7.99995H9.10019C9.10019 10.9271 11.4731 13.2999 14.4002 13.2999V12.2999ZM10.1002 7.99995C10.1002 5.62513 12.0254 3.69995 14.4002 3.69995V2.69995C11.4731 2.69995 9.10019 5.07284 9.10019 7.99995H10.1002ZM14.4002 3.69995C16.775 3.69995 18.7002 5.62513 18.7002 7.99995H19.7002C19.7002 5.07284 17.3273 2.69995 14.4002 2.69995V3.69995ZM3.7002 28.8L3.70073 23.9995L2.70073 23.9994L2.7002 28.7999L3.7002 28.8ZM8.00073 18.6999C5.07386 18.6999 2.70106 21.0725 2.70073 23.9994L3.70073 23.9995C3.701 21.6248 5.6261 19.6999 8.00073 19.6999V18.6999ZM8.00073 19.6999H16.8002V18.6999H8.00073V19.6999ZM28.8002 20.2999H25.2002V21.2999H28.8002V20.2999ZM25.2002 20.2999H21.6002V21.2999H25.2002V20.2999ZM25.7002 24.3998V20.7999H24.7002V24.3998H25.7002ZM25.7002 20.7999V17.1998H24.7002V20.7999H25.7002Z" fill="#EEEEEE"/>
</svg>
