<svg width="81" height="36" viewBox="0 0 81 36" fill="none" xmlns="http://www.w3.org/2000/svg">
<rect x="0.5" y="0.5" width="36.3017" height="35" rx="6.5" stroke="#FFF6F9"/>
<path d="M12.6027 25L18.1627 11.36H19.0027L24.5427 25H23.3827L18.3627 12.44H18.7827L13.7227 25H12.6027ZM15.0227 20.98V20.04H22.1227V20.98H15.0227Z" fill="#FFF6F9"/>
<rect x="44.1992" y="0.5" width="36.3017" height="35" rx="6.5" stroke="#FFF6F9"/>
<path d="M56.7784 25V24.02H61.0184C62.1651 24.02 63.1717 23.7733 64.0384 23.28C64.9184 22.7733 65.6051 22.08 66.0984 21.2C66.5917 20.32 66.8384 19.3067 66.8384 18.16C66.8384 17.0267 66.5917 16.02 66.0984 15.14C65.6051 14.26 64.9184 13.5733 64.0384 13.08C63.1584 12.5867 62.1517 12.34 61.0184 12.34H56.8384V11.36H61.0384C62.0384 11.36 62.9584 11.5333 63.7984 11.88C64.6384 12.2133 65.3651 12.6867 65.9784 13.3C66.6051 13.9 67.0851 14.62 67.4184 15.46C67.7651 16.2867 67.9384 17.1933 67.9384 18.18C67.9384 19.1533 67.7651 20.06 67.4184 20.9C67.0851 21.7267 66.6117 22.4467 65.9984 23.06C65.3851 23.6733 64.6584 24.1533 63.8184 24.5C62.9784 24.8333 62.0651 25 61.0784 25H56.7784ZM56.2184 25V11.36H57.2784V25H56.2184Z" fill="#FFF6F9"/>
</svg>
