<svg width="32" height="32" viewBox="0 0 32 32" fill="none" xmlns="http://www.w3.org/2000/svg">
<path d="M2.7002 28.8C2.70016 29.0761 2.924 29.3 3.20014 29.3C3.47628 29.3 3.70016 29.0762 3.7002 28.8001L2.7002 28.8ZM3.20073 23.9995L3.70073 23.9995L3.20073 23.9995ZM16.8002 19.7C17.0763 19.7 17.3002 19.4762 17.3002 19.2C17.3002 18.9239 17.0763 18.7 16.8002 18.7V19.7ZM28.8002 21.3C29.0763 21.3 29.3002 21.0762 29.3002 20.8C29.3002 20.5239 29.0763 20.3 28.8002 20.3V21.3ZM21.6002 20.3C21.3241 20.3 21.1002 20.5239 21.1002 20.8C21.1002 21.0762 21.3241 21.3 21.6002 21.3V20.3ZM24.7002 24.3998C24.7002 24.676 24.924 24.8998 25.2002 24.8998C25.4763 24.8998 25.7002 24.676 25.7002 24.3998H24.7002ZM25.7002 17.1998C25.7002 16.9237 25.4763 16.6998 25.2002 16.6998C24.924 16.6998 24.7002 16.9237 24.7002 17.1998H25.7002ZM18.7002 8.00001C18.7002 10.3748 16.775 12.3 14.4002 12.3V13.3C17.3273 13.3 19.7002 10.9271 19.7002 8.00001H18.7002ZM14.4002 12.3C12.0254 12.3 10.1002 10.3748 10.1002 8.00001H9.10019C9.10019 10.9271 11.4731 13.3 14.4002 13.3V12.3ZM10.1002 8.00001C10.1002 5.62519 12.0254 3.70001 14.4002 3.70001V2.70001C11.4731 2.70001 9.10019 5.0729 9.10019 8.00001H10.1002ZM14.4002 3.70001C16.775 3.70001 18.7002 5.62519 18.7002 8.00001H19.7002C19.7002 5.0729 17.3273 2.70001 14.4002 2.70001V3.70001ZM3.7002 28.8001L3.70073 23.9995L2.70073 23.9994L2.7002 28.8L3.7002 28.8001ZM8.00073 18.7C5.07386 18.7 2.70106 21.0725 2.70073 23.9994L3.70073 23.9995C3.701 21.6249 5.6261 19.7 8.00073 19.7V18.7ZM8.00073 19.7H16.8002V18.7H8.00073V19.7ZM28.8002 20.3H25.2002V21.3H28.8002V20.3ZM25.2002 20.3H21.6002V21.3H25.2002V20.3ZM25.7002 24.3998V20.8H24.7002V24.3998H25.7002ZM25.7002 20.8V17.1998H24.7002V20.8H25.7002Z" fill="#EEEEEE"/>
</svg>
