<svg width="300" height="300" viewBox="0 0 300 300" fill="none" xmlns="http://www.w3.org/2000/svg">
<mask id="mask0_1203_459" style="mask-type:luminance" maskUnits="userSpaceOnUse" x="97" y="45" width="41" height="57">
<path d="M97.4131 45.3333H137.413V101.333H97.4131V45.3333Z" fill="white"/>
</mask>
<g mask="url(#mask0_1203_459)">
<mask id="mask1_1203_459" style="mask-type:luminance" maskUnits="userSpaceOnUse" x="-22" y="-39" width="335" height="322">
<path d="M-21.8008 89.5833L200.605 -38.9271L312.111 154.057L89.7044 282.562L-21.8008 89.5833Z" fill="white"/>
</mask>
<g mask="url(#mask1_1203_459)">
<mask id="mask2_1203_459" style="mask-type:luminance" maskUnits="userSpaceOnUse" x="-22" y="-39" width="335" height="322">
<path d="M-21.8008 89.5833L200.605 -38.9271L312.111 154.057L89.7044 282.562L-21.8008 89.5833Z" fill="white"/>
</mask>
<g mask="url(#mask2_1203_459)">
<mask id="mask3_1203_459" style="mask-type:luminance" maskUnits="userSpaceOnUse" x="-22" y="-39" width="335" height="322">
<path d="M-21.8008 89.5833L200.605 -38.9271L312.111 154.057L89.7044 282.562L-21.8008 89.5833Z" fill="white"/>
</mask>
<g mask="url(#mask3_1203_459)">
<path d="M132.288 99.552C131.803 99.8333 131.293 100.062 130.762 100.245C130.23 100.427 129.684 100.552 129.126 100.625C128.569 100.698 128.012 100.719 127.449 100.682C126.887 100.641 126.335 100.552 125.793 100.406C125.251 100.26 124.725 100.062 124.22 99.8124C123.715 99.5624 123.241 99.2708 122.793 98.927C122.35 98.5833 121.939 98.1979 121.569 97.776C121.199 97.3541 120.871 96.901 120.59 96.4114L99.1471 59.2968C98.8659 58.8124 98.6315 58.302 98.4544 57.7708C98.2721 57.2343 98.1419 56.6926 98.069 56.1354C97.9961 55.5729 97.9753 55.0156 98.0117 54.4531C98.0482 53.8906 98.1419 53.3385 98.2825 52.7968C98.4284 52.2551 98.6263 51.7291 98.8763 51.2239C99.1211 50.7187 99.418 50.2447 99.7565 49.7968C100.1 49.3541 100.48 48.9426 100.902 48.5729C101.329 48.2031 101.783 47.8749 102.267 47.5937C102.757 47.3124 103.262 47.0833 103.798 46.901C104.329 46.7239 104.871 46.5937 105.428 46.5208C105.986 46.4479 106.548 46.4322 107.105 46.4687C107.668 46.5051 108.22 46.5937 108.762 46.7395C109.309 46.8854 109.829 47.0833 110.335 47.3333C110.84 47.5833 111.314 47.8801 111.762 48.2239C112.21 48.5624 112.616 48.9479 112.986 49.3697C113.361 49.7916 113.684 50.2499 113.965 50.7343L135.408 87.8489C135.689 88.3333 135.923 88.8437 136.105 89.3801C136.288 89.9114 136.413 90.4583 136.486 91.0156C136.559 91.5729 136.579 92.1301 136.543 92.6926C136.507 93.2551 136.418 93.8072 136.272 94.3489C136.126 94.8958 135.928 95.4166 135.684 95.9218C135.434 96.427 135.142 96.901 134.798 97.3489C134.454 97.7968 134.074 98.2031 133.652 98.5729C133.23 98.9426 132.777 99.2708 132.288 99.552Z" fill="#F9D648"/>
</g>
</g>
</g>
</g>
<mask id="mask4_1203_459" style="mask-type:luminance" maskUnits="userSpaceOnUse" x="76" y="21" width="53" height="53">
<path d="M76.0801 21.3333H128.08V73.3333H76.0801V21.3333Z" fill="white"/>
</mask>
<g mask="url(#mask4_1203_459)">
<mask id="mask5_1203_459" style="mask-type:luminance" maskUnits="userSpaceOnUse" x="-22" y="-39" width="335" height="322">
<path d="M-21.7998 89.5833L200.606 -38.9271L312.112 154.057L89.7054 282.562L-21.7998 89.5833Z" fill="white"/>
</mask>
<g mask="url(#mask5_1203_459)">
<mask id="mask6_1203_459" style="mask-type:luminance" maskUnits="userSpaceOnUse" x="-22" y="-39" width="335" height="322">
<path d="M-21.7998 89.5833L200.606 -38.9271L312.112 154.057L89.7054 282.562L-21.7998 89.5833Z" fill="white"/>
</mask>
<g mask="url(#mask6_1203_459)">
<mask id="mask7_1203_459" style="mask-type:luminance" maskUnits="userSpaceOnUse" x="-22" y="-39" width="335" height="322">
<path d="M-21.7998 89.5833L200.606 -38.9271L312.112 154.057L89.7054 282.562L-21.7998 89.5833Z" fill="white"/>
</mask>
<g mask="url(#mask7_1203_459)">
<path d="M124.497 34.7499C124.919 35.4791 125.304 36.2291 125.653 36.9947C126.002 37.7604 126.309 38.5468 126.58 39.3437C126.851 40.1406 127.085 40.9479 127.278 41.7656C127.466 42.5885 127.617 43.4166 127.731 44.2499C127.841 45.0833 127.908 45.9218 127.94 46.7656C127.966 47.6041 127.955 48.4479 127.898 49.2864C127.846 50.1249 127.752 50.9635 127.617 51.7916C127.476 52.6249 127.304 53.4426 127.085 54.2604C126.867 55.0729 126.611 55.8697 126.315 56.6614C126.023 57.4479 125.69 58.2187 125.315 58.9739C124.945 59.7291 124.538 60.4635 124.096 61.177C123.653 61.8958 123.174 62.5833 122.663 63.2499C122.153 63.9218 121.606 64.5624 121.033 65.177C120.46 65.7916 119.856 66.3749 119.226 66.927C118.591 67.4843 117.934 68.0051 117.252 68.4947C116.57 68.9843 115.861 69.4426 115.132 69.8645C114.408 70.2812 113.658 70.6666 112.893 71.0156C112.127 71.3593 111.346 71.6718 110.549 71.9426C109.752 72.2083 108.945 72.4426 108.127 72.6301C107.309 72.8229 106.481 72.9739 105.648 73.0833C104.815 73.1926 103.976 73.2604 103.137 73.2864C102.294 73.3176 101.455 73.302 100.617 73.2447C99.7781 73.1926 98.9395 73.0937 98.1114 72.9583C97.2833 72.8176 96.4604 72.6406 95.6479 72.4218C94.8354 72.2031 94.0333 71.9479 93.2468 71.651C92.4604 71.3541 91.6895 71.0208 90.9343 70.6458C90.1791 70.2708 89.4447 69.8645 88.7312 69.4218C88.0125 68.9739 87.325 68.4947 86.6531 67.9843C85.9864 67.4687 85.3458 66.927 84.7312 66.3489C84.1166 65.776 83.5333 65.1718 82.976 64.5364C82.4187 63.9062 81.8979 63.2447 81.4083 62.5624C80.9187 61.8749 80.4604 61.1666 80.0385 60.4374C79.6166 59.7083 79.2312 58.9635 78.8822 58.1926C78.5385 57.427 78.226 56.6458 77.9552 55.8489C77.6843 55.052 77.4552 54.2447 77.2625 53.4218C77.0697 52.6041 76.9187 51.776 76.8093 50.9426C76.6947 50.1041 76.627 49.2656 76.601 48.427C76.5697 47.5833 76.5854 46.7447 76.6375 45.9062C76.6895 45.0624 76.7885 44.2291 76.9239 43.3958C77.0593 42.5676 77.2364 41.7447 77.45 40.9322C77.6687 40.1197 77.9239 39.3176 78.2208 38.5312C78.5177 37.7447 78.851 36.9739 79.2208 36.2187C79.5906 35.4635 79.9968 34.7291 80.4447 34.0104C80.8875 33.2968 81.3614 32.6041 81.877 31.9374C82.3875 31.2708 82.9291 30.6301 83.502 30.0156C84.0802 29.401 84.6791 28.8176 85.3145 28.2604C85.9447 27.7083 86.601 27.1822 87.2833 26.6926C87.9708 26.2031 88.6739 25.7499 89.4031 25.3281C90.1322 24.9062 90.877 24.526 91.6427 24.177C92.4083 23.8281 93.1895 23.5208 93.9864 23.2499C94.7833 22.9791 95.5906 22.7499 96.4083 22.5572C97.226 22.3697 98.0541 22.2187 98.8875 22.1093C99.7208 21.9999 100.559 21.9322 101.403 21.901C102.242 21.8749 103.08 21.8906 103.919 21.9426C104.762 21.9999 105.596 22.0989 106.424 22.2343C107.257 22.3697 108.075 22.5468 108.887 22.7656C109.7 22.9843 110.502 23.2447 111.288 23.5416C112.08 23.8385 112.851 24.1718 113.606 24.5468C114.356 24.9166 115.096 25.3281 115.809 25.7708C116.523 26.2135 117.216 26.6926 117.882 27.2083C118.549 27.7187 119.19 28.2656 119.804 28.8385C120.419 29.4166 121.007 30.0208 121.559 30.6562C122.117 31.2864 122.637 31.9479 123.132 32.6301C123.622 33.3124 124.075 34.0208 124.497 34.7499Z" fill="#F9D648"/>
</g>
</g>
</g>
</g>
<mask id="mask8_1203_459" style="mask-type:luminance" maskUnits="userSpaceOnUse" x="234" y="45" width="59" height="86">
<path d="M234.747 45.3333H292.08V130.667H234.747V45.3333Z" fill="white"/>
</mask>
<g mask="url(#mask8_1203_459)">
<mask id="mask9_1203_459" style="mask-type:luminance" maskUnits="userSpaceOnUse" x="-22" y="-39" width="335" height="322">
<path d="M-21.7998 89.5833L200.606 -38.9271L312.112 154.057L89.7054 282.562L-21.7998 89.5833Z" fill="white"/>
</mask>
<g mask="url(#mask9_1203_459)">
<mask id="mask10_1203_459" style="mask-type:luminance" maskUnits="userSpaceOnUse" x="-22" y="-39" width="335" height="322">
<path d="M-21.7998 89.5833L200.606 -38.9271L312.112 154.057L89.7054 282.562L-21.7998 89.5833Z" fill="white"/>
</mask>
<g mask="url(#mask10_1203_459)">
<mask id="mask11_1203_459" style="mask-type:luminance" maskUnits="userSpaceOnUse" x="-22" y="-39" width="335" height="322">
<path d="M-21.7998 89.5833L200.606 -38.9271L312.112 154.057L89.7054 282.562L-21.7998 89.5833Z" fill="white"/>
</mask>
<g mask="url(#mask11_1203_459)">
<path d="M287.492 128.682C287.007 128.963 286.497 129.193 285.966 129.375C285.435 129.557 284.888 129.682 284.33 129.755C283.773 129.828 283.216 129.849 282.653 129.807C282.091 129.771 281.539 129.682 280.997 129.536C280.455 129.391 279.929 129.193 279.424 128.943C278.919 128.693 278.445 128.396 277.997 128.057C277.554 127.713 277.143 127.328 276.773 126.906C276.403 126.484 276.075 126.026 275.794 125.542L237.195 58.7395C236.914 58.2499 236.685 57.7395 236.502 57.2083C236.32 56.677 236.195 56.1301 236.117 55.5729C236.044 55.0156 236.023 54.4531 236.06 53.8906C236.096 53.3333 236.19 52.7812 236.336 52.2343C236.476 51.6926 236.674 51.1666 236.924 50.6614C237.169 50.1614 237.466 49.6822 237.81 49.2395C238.148 48.7916 238.534 48.3854 238.955 48.0104C239.377 47.6406 239.83 47.3176 240.315 47.0364C240.804 46.7551 241.315 46.5208 241.846 46.3437C242.377 46.1614 242.924 46.0364 243.481 45.9583C244.039 45.8854 244.596 45.8697 245.159 45.9062C245.716 45.9426 246.268 46.0364 246.815 46.1822C247.356 46.3281 247.877 46.526 248.382 46.7708C248.888 47.0208 249.362 47.3176 249.81 47.6614C250.257 48.0051 250.664 48.3854 251.039 48.8072C251.409 49.2343 251.731 49.6874 252.018 50.177L290.612 116.979C290.893 117.463 291.127 117.974 291.31 118.505C291.492 119.042 291.617 119.583 291.69 120.146C291.768 120.703 291.784 121.26 291.747 121.823C291.711 122.385 291.622 122.937 291.476 123.479C291.33 124.021 291.138 124.547 290.888 125.052C290.638 125.557 290.346 126.031 290.002 126.479C289.659 126.922 289.278 127.333 288.856 127.703C288.435 128.073 287.981 128.401 287.492 128.682Z" fill="#F9D648"/>
</g>
</g>
</g>
</g>
<mask id="mask12_1203_459" style="mask-type:luminance" maskUnits="userSpaceOnUse" x="28" y="165" width="58" height="86">
<path d="M28.0801 165.333H85.4134V250.667H28.0801V165.333Z" fill="white"/>
</mask>
<g mask="url(#mask12_1203_459)">
<mask id="mask13_1203_459" style="mask-type:luminance" maskUnits="userSpaceOnUse" x="-22" y="-39" width="335" height="322">
<path d="M-21.7998 89.5834L200.606 -38.9271L312.112 154.057L89.7054 282.563L-21.7998 89.5834Z" fill="white"/>
</mask>
<g mask="url(#mask13_1203_459)">
<mask id="mask14_1203_459" style="mask-type:luminance" maskUnits="userSpaceOnUse" x="-22" y="-39" width="335" height="322">
<path d="M-21.7998 89.5834L200.606 -38.9271L312.112 154.057L89.7054 282.563L-21.7998 89.5834Z" fill="white"/>
</mask>
<g mask="url(#mask14_1203_459)">
<mask id="mask15_1203_459" style="mask-type:luminance" maskUnits="userSpaceOnUse" x="-22" y="-39" width="335" height="322">
<path d="M-21.7998 89.5834L200.606 -38.9271L312.112 154.057L89.7054 282.563L-21.7998 89.5834Z" fill="white"/>
</mask>
<g mask="url(#mask15_1203_459)">
<path d="M80.0132 248.563C79.5288 248.844 79.0184 249.073 78.4871 249.255C77.9559 249.438 77.409 249.563 76.8517 249.635C76.2944 249.708 75.7371 249.724 75.1746 249.688C74.6174 249.651 74.0653 249.563 73.5184 249.417C72.9767 249.271 72.4507 249.073 71.9507 248.823C71.4455 248.573 70.9663 248.276 70.5236 247.938C70.0757 247.594 69.6694 247.208 69.2944 246.786C68.9246 246.365 68.5965 245.906 68.3153 245.422L29.7163 178.62C29.4351 178.13 29.2059 177.62 29.0236 177.089C28.8413 176.557 28.7163 176.01 28.6434 175.453C28.5653 174.896 28.5496 174.333 28.5861 173.776C28.6226 173.214 28.7111 172.661 28.8569 172.115C29.0028 171.573 29.1955 171.047 29.4455 170.547C29.6955 170.042 29.9871 169.563 30.3309 169.12C30.6746 168.672 31.0548 168.266 31.4767 167.891C31.8986 167.521 32.3517 167.198 32.8413 166.917C33.3257 166.635 33.8361 166.401 34.3673 166.224C34.8986 166.042 35.4455 165.917 36.0028 165.844C36.5601 165.771 37.1173 165.75 37.6798 165.786C38.2423 165.823 38.7944 165.917 39.3361 166.063C39.8778 166.208 40.4038 166.406 40.909 166.656C41.4142 166.901 41.8882 167.198 42.3309 167.542C42.7788 167.885 43.1903 168.266 43.5601 168.693C43.9298 169.115 44.258 169.568 44.5392 170.057L83.1382 236.859C83.4194 237.344 83.6486 237.854 83.8309 238.391C84.0132 238.922 84.1382 239.469 84.2163 240.026C84.2892 240.583 84.3049 241.141 84.2684 241.703C84.2371 242.266 84.1434 242.818 83.9976 243.359C83.8517 243.906 83.659 244.427 83.409 244.932C83.159 245.438 82.8674 245.911 82.5236 246.359C82.1851 246.802 81.7996 247.214 81.3778 247.583C80.9559 247.953 80.5028 248.281 80.0132 248.563Z" fill="#F9D648"/>
</g>
</g>
</g>
</g>
<mask id="mask16_1203_459" style="mask-type:luminance" maskUnits="userSpaceOnUse" x="44" y="40" width="237" height="223">
<path d="M44.0801 40H280.08V262.667H44.0801V40Z" fill="white"/>
</mask>
<g mask="url(#mask16_1203_459)">
<mask id="mask17_1203_459" style="mask-type:luminance" maskUnits="userSpaceOnUse" x="-22" y="-39" width="335" height="322">
<path d="M-21.7998 89.5834L200.606 -38.9271L312.112 154.057L89.7054 282.563L-21.7998 89.5834Z" fill="white"/>
</mask>
<g mask="url(#mask17_1203_459)">
<mask id="mask18_1203_459" style="mask-type:luminance" maskUnits="userSpaceOnUse" x="-22" y="-39" width="335" height="322">
<path d="M-21.7998 89.5834L200.606 -38.9271L312.112 154.057L89.7054 282.563L-21.7998 89.5834Z" fill="white"/>
</mask>
<g mask="url(#mask18_1203_459)">
<mask id="mask19_1203_459" style="mask-type:luminance" maskUnits="userSpaceOnUse" x="-22" y="-39" width="335" height="322">
<path d="M-21.7998 89.5834L200.606 -38.9271L312.112 154.057L89.7054 282.563L-21.7998 89.5834Z" fill="white"/>
</mask>
<g mask="url(#mask19_1203_459)">
<path d="M49.6116 127.521L197.81 41.8906C198.299 41.6094 198.81 41.3802 199.341 41.1979C199.872 41.0208 200.414 40.8906 200.971 40.8177C201.528 40.7448 202.091 40.7292 202.648 40.7656C203.211 40.8021 203.763 40.8958 204.304 41.0417C204.851 41.1875 205.372 41.3802 205.877 41.6302C206.382 41.8802 206.856 42.1771 207.304 42.5208C207.752 42.8646 208.159 43.2448 208.528 43.6667C208.903 44.0938 209.226 44.5469 209.507 45.0313L278.127 163.792C278.409 164.281 278.643 164.792 278.825 165.323C279.002 165.854 279.132 166.401 279.205 166.958C279.278 167.516 279.299 168.078 279.263 168.635C279.226 169.198 279.138 169.75 278.992 170.297C278.846 170.839 278.648 171.365 278.403 171.865C278.153 172.37 277.856 172.849 277.518 173.292C277.174 173.74 276.794 174.146 276.372 174.521C275.95 174.891 275.492 175.214 275.007 175.495L126.81 261.125C126.325 261.406 125.815 261.635 125.284 261.818C124.747 262 124.205 262.125 123.648 262.198C123.091 262.271 122.534 262.292 121.971 262.255C121.409 262.219 120.856 262.125 120.315 261.979C119.773 261.833 119.247 261.635 118.742 261.385C118.237 261.135 117.763 260.844 117.315 260.5C116.872 260.156 116.461 259.776 116.091 259.349C115.721 258.927 115.393 258.474 115.112 257.984L46.4919 139.224C46.2106 138.74 45.9814 138.229 45.7991 137.698C45.6169 137.161 45.4866 136.62 45.4137 136.057C45.3408 135.5 45.32 134.943 45.3564 134.38C45.3929 133.818 45.4866 133.266 45.6273 132.724C45.7731 132.182 45.971 131.656 46.221 131.151C46.4658 130.646 46.7627 130.172 47.1064 129.724C47.445 129.281 47.8252 128.87 48.2523 128.5C48.6741 128.13 49.1273 127.802 49.6116 127.521Z" fill="#F9D648"/>
</g>
</g>
</g>
</g>
<mask id="mask20_1203_459" style="mask-type:luminance" maskUnits="userSpaceOnUse" x="96" y="133" width="41" height="31">
<path d="M96.0801 133.333H136.08V164H96.0801V133.333Z" fill="white"/>
</mask>
<g mask="url(#mask20_1203_459)">
<mask id="mask21_1203_459" style="mask-type:luminance" maskUnits="userSpaceOnUse" x="-22" y="-39" width="335" height="322">
<path d="M-21.7998 89.5834L200.606 -38.9271L312.112 154.057L89.7054 282.563L-21.7998 89.5834Z" fill="white"/>
</mask>
<g mask="url(#mask21_1203_459)">
<mask id="mask22_1203_459" style="mask-type:luminance" maskUnits="userSpaceOnUse" x="-22" y="-39" width="335" height="322">
<path d="M-21.7998 89.5834L200.606 -38.9271L312.112 154.057L89.7054 282.563L-21.7998 89.5834Z" fill="white"/>
</mask>
<g mask="url(#mask22_1203_459)">
<mask id="mask23_1203_459" style="mask-type:luminance" maskUnits="userSpaceOnUse" x="-22" y="-39" width="335" height="322">
<path d="M-21.7998 89.5834L200.606 -38.9271L312.112 154.057L89.7054 282.563L-21.7998 89.5834Z" fill="white"/>
</mask>
<g mask="url(#mask23_1203_459)">
<path d="M131.502 149.51L109.273 162.354C108.788 162.635 108.278 162.865 107.747 163.047C107.215 163.224 106.669 163.354 106.111 163.427C105.554 163.5 104.997 163.516 104.434 163.479C103.872 163.443 103.32 163.354 102.778 163.208C102.236 163.063 101.71 162.865 101.205 162.615C100.7 162.365 100.226 162.068 99.778 161.729C99.3353 161.385 98.9238 161 98.554 160.578C98.1842 160.156 97.8561 159.698 97.5749 159.214C97.2936 158.724 97.0592 158.214 96.8822 157.682C96.6999 157.151 96.5697 156.604 96.4967 156.047C96.4238 155.49 96.403 154.927 96.4394 154.365C96.4759 153.807 96.5697 153.255 96.7103 152.708C96.8561 152.167 97.054 151.641 97.304 151.135C97.5488 150.635 97.8457 150.156 98.1842 149.714C98.528 149.266 98.9082 148.859 99.3301 148.484C99.7572 148.115 100.21 147.792 100.695 147.51L122.924 134.662C123.413 134.38 123.924 134.151 124.455 133.969C124.986 133.792 125.528 133.662 126.085 133.589C126.643 133.516 127.205 133.5 127.768 133.537C128.325 133.573 128.877 133.667 129.424 133.813C129.965 133.958 130.486 134.156 130.992 134.401C131.497 134.651 131.971 134.948 132.419 135.292C132.867 135.635 133.273 136.016 133.643 136.438C134.018 136.865 134.34 137.318 134.622 137.807C134.908 138.292 135.137 138.802 135.32 139.333C135.502 139.87 135.627 140.412 135.7 140.969C135.773 141.531 135.794 142.089 135.757 142.651C135.721 143.214 135.632 143.766 135.486 144.307C135.34 144.849 135.143 145.375 134.898 145.88C134.648 146.385 134.356 146.859 134.012 147.307C133.669 147.75 133.288 148.162 132.867 148.531C132.445 148.901 131.992 149.229 131.502 149.51Z" fill="white"/>
</g>
</g>
</g>
</g>
<mask id="mask24_1203_459" style="mask-type:luminance" maskUnits="userSpaceOnUse" x="162" y="94" width="41" height="32">
<path d="M162.747 94.6667H202.747V125.333H162.747V94.6667Z" fill="white"/>
</mask>
<g mask="url(#mask24_1203_459)">
<mask id="mask25_1203_459" style="mask-type:luminance" maskUnits="userSpaceOnUse" x="-22" y="-39" width="335" height="322">
<path d="M-21.7998 89.5834L200.606 -38.9271L312.112 154.057L89.7054 282.563L-21.7998 89.5834Z" fill="white"/>
</mask>
<g mask="url(#mask25_1203_459)">
<mask id="mask26_1203_459" style="mask-type:luminance" maskUnits="userSpaceOnUse" x="-22" y="-39" width="335" height="322">
<path d="M-21.7998 89.5834L200.606 -38.9271L312.112 154.057L89.7054 282.563L-21.7998 89.5834Z" fill="white"/>
</mask>
<g mask="url(#mask26_1203_459)">
<mask id="mask27_1203_459" style="mask-type:luminance" maskUnits="userSpaceOnUse" x="-22" y="-39" width="335" height="322">
<path d="M-21.7998 89.5834L200.606 -38.9271L312.112 154.057L89.7054 282.563L-21.7998 89.5834Z" fill="white"/>
</mask>
<g mask="url(#mask27_1203_459)">
<path d="M198.195 110.974L175.96 123.818C175.476 124.099 174.966 124.333 174.434 124.51C173.903 124.693 173.356 124.818 172.799 124.896C172.242 124.969 171.684 124.984 171.122 124.948C170.564 124.911 170.012 124.818 169.466 124.672C168.924 124.526 168.398 124.328 167.898 124.083C167.393 123.833 166.913 123.536 166.471 123.193C166.023 122.849 165.617 122.469 165.242 122.047C164.872 121.62 164.544 121.167 164.262 120.677C163.981 120.193 163.752 119.682 163.57 119.151C163.387 118.615 163.262 118.073 163.184 117.51C163.111 116.953 163.096 116.396 163.132 115.833C163.169 115.271 163.257 114.719 163.403 114.177C163.549 113.635 163.742 113.109 163.992 112.604C164.242 112.099 164.533 111.625 164.877 111.177C165.216 110.734 165.601 110.323 166.023 109.953C166.445 109.583 166.898 109.255 167.387 108.974L189.617 96.1302C190.101 95.849 190.611 95.6198 191.143 95.4375C191.674 95.2552 192.221 95.1302 192.778 95.0573C193.335 94.9844 193.893 94.9636 194.455 95.0052C195.018 95.0417 195.57 95.1302 196.111 95.2761C196.653 95.4219 197.179 95.6198 197.684 95.8698C198.184 96.1198 198.663 96.4167 199.106 96.7552C199.554 97.099 199.966 97.4844 200.335 97.9063C200.705 98.3282 201.033 98.7865 201.314 99.2709C201.596 99.7605 201.825 100.271 202.007 100.802C202.189 101.333 202.314 101.88 202.393 102.438C202.466 102.995 202.481 103.557 202.445 104.115C202.413 104.677 202.32 105.229 202.174 105.776C202.033 106.318 201.835 106.844 201.585 107.344C201.341 107.849 201.044 108.328 200.7 108.771C200.361 109.219 199.976 109.625 199.554 110C199.132 110.37 198.679 110.693 198.195 110.974Z" fill="white"/>
</g>
</g>
</g>
</g>
<mask id="mask28_1203_459" style="mask-type:luminance" maskUnits="userSpaceOnUse" x="134" y="137" width="68" height="57">
<path d="M134.747 137.333H201.414V193.333H134.747V137.333Z" fill="white"/>
</mask>
<g mask="url(#mask28_1203_459)">
<mask id="mask29_1203_459" style="mask-type:luminance" maskUnits="userSpaceOnUse" x="-22" y="-39" width="335" height="322">
<path d="M-21.7998 89.5834L200.606 -38.9271L312.112 154.057L89.7054 282.563L-21.7998 89.5834Z" fill="white"/>
</mask>
<g mask="url(#mask29_1203_459)">
<mask id="mask30_1203_459" style="mask-type:luminance" maskUnits="userSpaceOnUse" x="-22" y="-39" width="335" height="322">
<path d="M-21.7998 89.5834L200.606 -38.9271L312.112 154.057L89.7054 282.563L-21.7998 89.5834Z" fill="white"/>
</mask>
<g mask="url(#mask30_1203_459)">
<mask id="mask31_1203_459" style="mask-type:luminance" maskUnits="userSpaceOnUse" x="-22" y="-39" width="335" height="322">
<path d="M-21.7998 89.5834L200.606 -38.9271L312.112 154.057L89.7054 282.563L-21.7998 89.5834Z" fill="white"/>
</mask>
<g mask="url(#mask31_1203_459)">
<path d="M183.752 188.62C182.784 189.182 181.789 189.693 180.768 190.151C179.742 190.615 178.7 191.026 177.643 191.385C176.58 191.745 175.502 192.052 174.409 192.302C173.32 192.557 172.216 192.755 171.106 192.901C169.992 193.047 168.877 193.141 167.757 193.177C166.638 193.208 165.518 193.193 164.398 193.12C163.278 193.042 162.164 192.917 161.06 192.729C159.955 192.547 158.856 192.313 157.773 192.021C156.69 191.729 155.627 191.385 154.575 190.99C153.523 190.594 152.497 190.146 151.492 189.651C150.487 189.156 149.507 188.609 148.554 188.021C147.601 187.427 146.679 186.786 145.789 186.104C144.898 185.422 144.039 184.698 143.221 183.932C142.403 183.161 141.622 182.359 140.882 181.516C140.138 180.672 139.44 179.792 138.784 178.88C138.132 177.969 137.523 177.031 136.961 176.057C136.679 175.568 136.445 175.063 136.263 174.526C136.086 173.995 135.955 173.448 135.882 172.891C135.81 172.333 135.789 171.776 135.825 171.214C135.862 170.651 135.95 170.099 136.096 169.557C136.242 169.01 136.44 168.49 136.685 167.984C136.935 167.479 137.231 167.005 137.57 166.557C137.914 166.109 138.294 165.703 138.716 165.333C139.138 164.958 139.596 164.635 140.08 164.354C140.565 164.073 141.075 163.844 141.606 163.661C142.143 163.479 142.685 163.354 143.242 163.281C143.799 163.208 144.362 163.188 144.919 163.224C145.481 163.26 146.034 163.354 146.575 163.5C147.122 163.646 147.643 163.844 148.148 164.094C148.653 164.344 149.127 164.635 149.575 164.979C150.018 165.323 150.429 165.703 150.799 166.13C151.169 166.552 151.497 167.005 151.778 167.495C152.341 168.469 152.997 169.38 153.737 170.224C154.481 171.073 155.299 171.839 156.19 172.526C157.08 173.208 158.034 173.802 159.044 174.297C160.049 174.797 161.101 175.193 162.185 175.484C163.273 175.776 164.377 175.958 165.497 176.031C166.617 176.104 167.737 176.068 168.851 175.922C169.966 175.776 171.054 175.521 172.122 175.161C173.185 174.802 174.205 174.339 175.174 173.776C176.148 173.214 177.06 172.563 177.903 171.823C178.747 171.078 179.513 170.26 180.195 169.37C180.877 168.479 181.466 167.526 181.966 166.516C182.461 165.51 182.851 164.458 183.143 163.375C183.435 162.286 183.617 161.182 183.685 160.057C183.757 158.938 183.721 157.818 183.575 156.703C183.424 155.583 183.169 154.495 182.81 153.427C182.445 152.365 181.981 151.344 181.419 150.37C181.138 149.88 180.903 149.37 180.726 148.839C180.544 148.307 180.414 147.76 180.341 147.203C180.268 146.646 180.247 146.083 180.284 145.526C180.32 144.964 180.414 144.411 180.554 143.865C180.7 143.323 180.898 142.797 181.148 142.297C181.393 141.792 181.69 141.313 182.028 140.87C182.372 140.422 182.752 140.016 183.179 139.641C183.601 139.271 184.054 138.948 184.539 138.667C185.028 138.385 185.534 138.151 186.07 137.974C186.601 137.792 187.143 137.667 187.7 137.594C188.257 137.516 188.82 137.5 189.377 137.536C189.94 137.573 190.492 137.667 191.034 137.813C191.58 137.958 192.101 138.156 192.606 138.406C193.112 138.651 193.586 138.948 194.034 139.292C194.481 139.635 194.888 140.016 195.257 140.438C195.632 140.865 195.955 141.318 196.237 141.807C196.799 142.776 197.31 143.776 197.773 144.797C198.237 145.823 198.648 146.865 199.007 147.927C199.372 148.99 199.679 150.068 199.935 151.161C200.19 152.255 200.388 153.359 200.534 154.469C200.685 155.583 200.773 156.703 200.815 157.823C200.851 158.943 200.83 160.063 200.763 161.182C200.69 162.302 200.56 163.417 200.377 164.526C200.195 165.63 199.961 166.729 199.674 167.813C199.382 168.896 199.044 169.964 198.648 171.01C198.257 172.063 197.81 173.094 197.315 174.099C196.82 175.104 196.278 176.083 195.69 177.036C195.096 177.99 194.461 178.911 193.778 179.802C193.101 180.693 192.377 181.547 191.612 182.365C190.846 183.188 190.044 183.964 189.2 184.708C188.362 185.448 187.481 186.146 186.575 186.797C185.664 187.453 184.726 188.057 183.752 188.62Z" fill="white"/>
</g>
</g>
</g>
</g>
</svg>
