<svg xmlns="http://www.w3.org/2000/svg" xmlns:xlink="http://www.w3.org/1999/xlink" width="303" zoomAndPan="magnify" viewBox="0 0 227.25 219" height="292" preserveAspectRatio="xMidYMid meet" version="1.0"><defs><clipPath id="2ca642c0dc"><path d="M 24 40 L 139 40 L 139 213 L 24 213 Z M 24 40 " clip-rule="nonzero"/></clipPath><clipPath id="46479cafd2"><path d="M 14.800781 64.691406 L 72.664062 40.296875 L 138.582031 196.660156 L 80.722656 221.050781 Z M 14.800781 64.691406 " clip-rule="nonzero"/></clipPath><clipPath id="f527512ee7"><path d="M 14.800781 64.691406 L 72.664062 40.296875 L 138.582031 196.660156 L 80.722656 221.050781 Z M 14.800781 64.691406 " clip-rule="nonzero"/></clipPath><clipPath id="90797987d1"><path d="M 97 13 L 212 13 L 212 186 L 97 186 Z M 97 13 " clip-rule="nonzero"/></clipPath><clipPath id="87de165926"><path d="M 87.722656 37.585938 L 145.585938 13.191406 L 211.503906 169.554688 L 153.644531 193.949219 Z M 87.722656 37.585938 " clip-rule="nonzero"/></clipPath><clipPath id="e309682cbb"><path d="M 87.722656 37.585938 L 145.585938 13.191406 L 211.503906 169.554688 L 153.644531 193.949219 Z M 87.722656 37.585938 " clip-rule="nonzero"/></clipPath></defs><g clip-path="url(#2ca642c0dc)"><g clip-path="url(#46479cafd2)"><g clip-path="url(#f527512ee7)"><path fill="#b0b0b0" d="M 35.683594 55.890625 L 24.570312 87.859375 L 31.535156 104.382812 L 52.414062 95.578125 L 101.671875 212.421875 L 138.773438 196.78125 L 72.78125 40.25 Z M 35.683594 55.890625 " fill-opacity="1" fill-rule="nonzero"/></g></g></g><g clip-path="url(#90797987d1)"><g clip-path="url(#87de165926)"><g clip-path="url(#e309682cbb)"><path fill="#b0b0b0" d="M 108.601562 28.785156 L 97.492188 60.753906 L 104.457031 77.277344 L 125.335938 68.472656 L 174.59375 185.316406 L 211.695312 169.675781 L 145.703125 13.144531 Z M 108.601562 28.785156 " fill-opacity="1" fill-rule="nonzero"/></g></g></g></svg>