<svg xmlns="http://www.w3.org/2000/svg" xmlns:xlink="http://www.w3.org/1999/xlink" width="303" zoomAndPan="magnify" viewBox="0 0 227.25 219" height="292" preserveAspectRatio="xMidYMid meet" version="1.0"><defs><clipPath id="d0bc22d210"><path d="M 71 14 L 212 14 L 212 191 L 71 191 Z M 71 14 " clip-rule="nonzero"/></clipPath><clipPath id="42a52f24a6"><path d="M 60.5625 57.402344 L 164.121094 12.492188 L 229.554688 163.375 L 125.996094 208.285156 Z M 60.5625 57.402344 " clip-rule="nonzero"/></clipPath><clipPath id="8a4878295c"><path d="M 60.5625 57.402344 L 164.121094 12.492188 L 229.554688 163.375 L 125.996094 208.285156 Z M 60.5625 57.402344 " clip-rule="nonzero"/></clipPath><clipPath id="d534e53bbc"><path d="M 10 55 L 114 55 L 114 211 L 10 211 Z M 10 55 " clip-rule="nonzero"/></clipPath><clipPath id="23a11cf0a4"><path d="M 1.992188 77.863281 L 54.34375 55.792969 L 113.582031 196.3125 L 61.230469 218.382812 Z M 1.992188 77.863281 " clip-rule="nonzero"/></clipPath><clipPath id="8430603d5b"><path d="M 1.992188 77.863281 L 54.34375 55.792969 L 113.582031 196.3125 L 61.230469 218.382812 Z M 1.992188 77.863281 " clip-rule="nonzero"/></clipPath></defs><g clip-path="url(#d0bc22d210)"><g clip-path="url(#42a52f24a6)"><g clip-path="url(#8a4878295c)"><path fill="#e04154" d="M 71.335938 52.742188 L 159.53125 14.492188 L 171.792969 42.769531 L 109.183594 69.917969 L 115.476562 89.585938 L 132.839844 82.054688 C 161.472656 69.640625 194.746094 82.785156 207.160156 111.414062 C 219.574219 140.042969 206.433594 173.316406 177.804688 185.730469 C 149.171875 198.148438 115.898438 185.003906 103.484375 156.375 L 131.757812 144.113281 C 137.402344 157.125 152.527344 163.101562 165.539062 157.457031 C 178.554688 151.8125 184.527344 136.6875 178.886719 123.675781 C 173.242188 110.660156 158.117188 104.6875 145.101562 110.332031 L 96.492188 131.410156 Z M 71.335938 52.742188 " fill-opacity="1" fill-rule="nonzero"/></g></g></g><g clip-path="url(#d534e53bbc)"><g clip-path="url(#23a11cf0a4)"><g clip-path="url(#8430603d5b)"><path fill="#e04154" d="M 20.769531 69.953125 L 10.777344 98.703125 L 17.039062 113.558594 L 35.816406 105.644531 L 80.109375 210.707031 L 113.46875 196.644531 L 54.128906 55.890625 Z M 20.769531 69.953125 " fill-opacity="1" fill-rule="nonzero"/></g></g></g></svg>