<svg xmlns="http://www.w3.org/2000/svg" xmlns:xlink="http://www.w3.org/1999/xlink" width="303" zoomAndPan="magnify" viewBox="0 0 227.25 219" height="292" preserveAspectRatio="xMidYMid meet" version="1.0"><defs><g/><clipPath id="305506c1d4"><path d="M 11 0.359375 L 170 0.359375 L 170 198 L 11 198 Z M 11 0.359375 " clip-rule="nonzero"/></clipPath><clipPath id="4f1591b26f"><path d="M -0.671875 47.863281 L 115.917969 -2.699219 L 189.378906 166.699219 L 72.792969 217.257812 Z M -0.671875 47.863281 " clip-rule="nonzero"/></clipPath><clipPath id="dd4a3b7f65"><path d="M -0.671875 47.863281 L 115.917969 -2.699219 L 189.378906 166.699219 L 72.792969 217.257812 Z M -0.671875 47.863281 " clip-rule="nonzero"/></clipPath></defs><g clip-path="url(#305506c1d4)"><g clip-path="url(#4f1591b26f)"><g clip-path="url(#dd4a3b7f65)"><path fill="#8374d1" d="M 11.433594 42.613281 L 110.578125 -0.382812 L 124.363281 31.402344 L 53.984375 61.925781 L 61.054688 84.035156 L 80.578125 75.566406 C 112.761719 61.609375 150.164062 76.386719 164.121094 108.570312 C 178.078125 140.753906 163.304688 178.15625 131.121094 192.113281 C 98.9375 206.070312 61.53125 191.296875 47.574219 159.113281 L 79.359375 145.328125 C 85.703125 159.957031 102.707031 166.671875 117.335938 160.328125 C 131.964844 153.984375 138.679688 136.984375 132.335938 122.355469 C 125.992188 107.726562 108.988281 101.007812 94.359375 107.351562 L 39.714844 131.050781 Z M 11.433594 42.613281 " fill-opacity="1" fill-rule="nonzero"/></g></g></g><g fill="#8374d1" fill-opacity="1"><g transform="translate(84.560188, 92.313166)"><g><path d="M 0.9375 0 L 0.9375 -5.375 L 1.6875 -5.375 L 1.6875 -4.53125 L 1.796875 -4.5 C 2.046875 -5.113281 2.515625 -5.421875 3.203125 -5.421875 C 3.566406 -5.421875 3.84375 -5.351562 4.03125 -5.21875 L 3.828125 -4.546875 L 3.71875 -4.53125 C 3.519531 -4.625 3.300781 -4.671875 3.0625 -4.671875 C 2.632812 -4.671875 2.304688 -4.507812 2.078125 -4.1875 C 1.847656 -3.875 1.734375 -3.359375 1.734375 -2.640625 L 1.734375 0 Z M 0.9375 0 "/></g></g></g></svg>