<svg width="265" height="231" viewBox="0 0 265 231" fill="none" xmlns="http://www.w3.org/2000/svg">
<path d="M216.889 189.233L222.191 139.5C225.909 115.121 213.719 91.0446 191.896 79.56L159.604 62.5283L127.311 45.4967C105.488 34.0121 78.7784 37.6347 60.7563 54.435L23.7172 85.7937C8.55723 100.135 8.67078 125.375 22.8015 137.695C32.4642 146.088 46.2581 147.862 57.6694 142.215L87.5695 127.42C95.3955 123.537 104.699 123.633 112.43 127.729L122.505 132.989L132.488 138.278C140.279 142.406 145.555 149.957 146.798 158.645L151.536 191.636C153.333 204.282 162.58 214.638 174.923 217.825C193.085 222.537 214.049 210.336 216.889 189.233Z" fill="#5C4B99"/>
<path d="M125.215 31.0569L97.5306 17.2462C96.0698 16.4722 94.3078 16.708 93.0791 17.85C91.5351 19.2927 91.4484 21.6633 92.7657 23.2968L95.0747 26.0013L91.1143 35.8302L126.692 39.011L127.388 35.6379C127.832 33.7686 126.891 31.8668 125.215 31.0569Z" fill="#E04154"/>
<path d="M204.99 73.0894L232.09 88.1497C233.49 88.8914 234.285 90.4817 234.062 92.0788C233.797 94.1987 231.852 95.6628 229.792 95.4294L226.226 95.0987L220.318 103.896L197.608 76.4282L199.979 73.8648C201.337 72.4794 203.378 72.1578 204.99 73.0894Z" fill="#E04154"/>
<path d="M217.787 185.032L225.772 132.589C229.49 108.21 217.394 84.1054 195.571 72.6208L163.278 55.5892L130.953 38.6184C109.162 27.073 82.3919 30.6633 64.3984 47.5568L25.6101 83.8353C11.9655 96.6405 12.3451 118.435 26.4758 130.756C36.1063 139.21 49.8394 140.951 61.3115 135.336L91.2116 120.542C99.0699 116.598 108.341 116.755 116.072 120.851L126.086 126.079L136.13 131.4C143.86 135.496 149.229 143.018 150.473 151.706L155.178 184.758C156.975 197.403 166.222 207.759 178.565 210.947C196.727 215.659 214.977 203.578 217.787 185.032Z" fill="#8374D1"/>
<path d="M125.411 84.2476C117.925 98.5231 99.2871 103.538 85.0439 95.9913C70.7075 88.4734 66.183 71.2646 73.7294 57.0214C81.2473 42.685 97.966 36.7314 112.27 44.3102C126.546 51.7958 132.989 69.9435 125.411 84.2476Z" fill="#3D246C"/>
<path d="M109.038 75.5725C106.264 80.8072 99.4737 82.5884 94.2676 79.908C89.0329 77.1345 87.4234 70.9028 90.136 65.6359C92.8773 60.462 99.0304 58.2652 104.204 61.0065C109.439 63.78 111.779 70.3987 109.038 75.5725Z" fill="#2E1B5E"/>
<path d="M114.848 83.8748L105.535 78.9406C104.013 78.1344 103.441 76.272 104.247 74.7503L105.408 72.559C106.214 71.0373 108.077 70.4649 109.598 71.2712L118.944 76.1445C120.404 76.9185 121.038 78.8131 120.231 80.3349L119.038 82.587C118.264 84.0479 116.402 84.6202 114.848 83.8748Z" fill="#FFCA61"/>
<path d="M112.064 55.5831L107.13 64.896C106.323 66.4177 104.461 66.9901 102.939 66.1839L100.748 65.0229C99.2263 64.2166 98.654 62.3542 99.4602 60.8325L104.394 51.5196C105.168 50.0588 107.031 49.4864 108.492 50.2604L110.776 51.3928C112.298 52.199 112.87 54.0614 112.064 55.5831Z" fill="#FFCA61"/>
<path d="M83.772 58.3672L93.0849 63.3014C94.6066 64.1077 95.179 65.97 94.3727 67.4918L93.2117 69.683C92.4055 71.2047 90.5431 71.7771 89.0214 70.9709L79.7371 66.1297C78.2154 65.3235 77.643 63.4611 78.4493 61.9394L79.6425 59.6873C80.4165 58.2264 82.2789 57.6541 83.772 58.3672Z" fill="#FFCA61"/>
<path d="M86.6178 86.6913L91.4911 77.3461C92.2974 75.8244 94.1598 75.2521 95.6815 76.0583L97.8727 77.2193C99.3945 78.0256 99.9668 79.8879 99.1606 81.4096L94.2872 90.7548C93.5132 92.2157 91.6508 92.788 90.1291 91.9818L87.9056 90.8816C86.3839 90.0754 85.8115 88.213 86.6178 86.6913Z" fill="#FFCA61"/>
<path d="M211.053 129.624C203.568 143.899 184.93 148.914 170.626 141.335C156.35 133.85 151.826 116.641 159.372 102.398C166.858 88.122 183.609 82.1076 197.852 89.6541C212.188 97.1719 218.6 115.38 211.053 129.624Z" fill="#3D246C"/>
<path d="M199.683 107.385C197.425 111.646 191.813 113.116 187.52 110.919C183.259 108.662 181.932 103.515 184.19 99.2544C186.386 94.9613 191.39 93.1688 195.712 95.4586C200.005 97.6552 201.879 103.092 199.683 107.385Z" fill="#E04154"/>
<path d="M186.074 133.072C183.878 137.365 178.266 138.835 173.973 136.638C169.712 134.381 168.385 129.234 170.582 124.941C172.839 120.68 177.842 118.888 182.164 121.178C186.457 123.374 188.332 128.811 186.074 133.072Z" fill="#8374D1"/>
<path d="M193.896 130.668C189.635 128.41 188.133 122.859 190.391 118.598C192.648 114.338 197.827 112.95 202.088 115.207C206.349 117.465 208.141 122.468 205.884 126.729C203.626 130.99 198.157 132.925 193.896 130.668Z" fill="#7DAA48"/>
<path d="M168.179 117.12C163.919 114.862 162.416 109.311 164.674 105.05C166.964 100.729 172.11 99.4016 176.371 101.659C180.632 103.917 182.424 108.92 180.167 113.181C177.909 117.442 172.44 119.377 168.179 117.12Z" fill="#FF974A"/>
<path d="M224.115 134.985C219.525 142.765 212.2 148.94 203.744 152.1" stroke="#261947" stroke-width="1.5" stroke-miterlimit="10" stroke-linecap="round"/>
<path d="M200.585 152.765C199.43 152.984 198.254 153.192 197.058 153.39" stroke="#261947" stroke-width="1.5" stroke-miterlimit="10" stroke-linecap="round"/>
<path d="M58.5977 79.2516C60.2272 89.8594 66.4659 99.7131 75.3237 105.654" stroke="#261947" stroke-width="1.5" stroke-miterlimit="10" stroke-linecap="round"/>
<path d="M79.1055 108.67C80.0579 109.227 81.0306 109.794 82.0235 110.372" stroke="#261947" stroke-width="1.5" stroke-miterlimit="10" stroke-linecap="round"/>
<path d="M201.778 183.176C201.782 183.022 201.757 182.775 201.639 182.556C201.549 182.431 201.399 182.273 201.184 182.238C200.969 182.202 200.722 182.227 200.565 182.377C200.125 182.716 199.666 183.044 199.186 183.361C199.102 183.421 199.039 183.491 198.996 183.573C198.953 183.654 198.899 183.755 198.834 183.877C198.831 184.031 198.856 184.278 198.974 184.496C199.063 184.622 199.275 184.812 199.429 184.815C199.643 184.851 199.891 184.826 200.048 184.676C200.488 184.337 200.947 184.009 201.427 183.692C201.511 183.632 201.574 183.561 201.617 183.48C201.66 183.399 201.714 183.298 201.778 183.176Z" fill="#5C4B99"/>
<path d="M199.935 180.328C199.97 180.113 199.852 179.895 199.702 179.737C199.661 179.716 199.601 179.683 199.519 179.64C199.398 179.576 199.275 179.563 199.151 179.601C198.659 179.548 198.156 179.516 197.643 179.504C197.489 179.5 197.27 179.618 197.113 179.769C196.987 179.858 196.858 180.102 196.916 180.288C196.941 180.535 196.998 180.721 197.148 180.879C197.189 180.9 197.25 180.933 197.331 180.976C197.453 181.04 197.585 181.084 197.728 181.108C198.201 181.099 198.694 181.1 199.207 181.112C199.422 181.148 199.641 181.03 199.737 180.847C199.863 180.758 199.992 180.514 199.935 180.328Z" fill="#5C4B99"/>
<path d="M143.79 124.154C143.793 124.052 143.795 123.949 143.797 123.846C143.738 123.763 143.678 123.679 143.618 123.596C143.559 123.512 143.488 123.449 143.407 123.406C143.225 123.309 143.01 123.273 142.823 123.33C142.575 123.407 142.397 123.546 142.29 123.749L141.871 124.54C141.828 124.622 141.805 124.714 141.802 124.816C141.8 124.919 141.818 125.032 141.856 125.156C141.875 125.218 141.914 125.291 141.974 125.375C142.034 125.458 142.124 125.533 142.246 125.597C142.429 125.694 142.644 125.73 142.83 125.672C143.038 125.575 143.184 125.445 143.27 125.282L143.722 124.43C143.765 124.349 143.788 124.257 143.79 124.154Z" fill="#5C4B99"/>
<path d="M146.775 126.905C146.799 126.762 146.792 126.629 146.754 126.504C146.716 126.38 146.668 126.225 146.611 126.039C146.573 125.915 146.513 125.831 146.432 125.788C146.372 125.704 146.302 125.641 146.221 125.598C146.099 125.534 145.987 125.5 145.884 125.498C145.803 125.455 145.721 125.463 145.637 125.523L145.451 125.58C145.305 125.659 145.2 125.759 145.135 125.881C145.133 125.983 145.121 126.055 145.1 126.096C145.076 126.239 145.083 126.373 145.121 126.497C145.138 126.661 145.175 126.837 145.232 127.023C145.251 127.085 145.311 127.169 145.411 127.274C145.47 127.357 145.541 127.421 145.622 127.464C145.703 127.507 145.795 127.529 145.898 127.532C146.041 127.556 146.144 127.558 146.206 127.539C146.289 127.479 146.362 127.44 146.424 127.421C146.508 127.361 146.593 127.25 146.679 127.088C146.7 127.047 146.732 126.987 146.775 126.905Z" fill="#5C4B99"/>
<path d="M75.7249 120.053C75.7679 119.972 75.7906 119.88 75.7931 119.777C75.8361 119.696 75.8385 119.594 75.8003 119.47C75.7431 119.283 75.5927 119.126 75.4101 119.029C75.2275 118.932 75.0127 118.896 74.8264 118.954C74.6402 119.011 74.4217 119.129 74.3249 119.311C74.172 119.698 74.0299 120.065 73.8984 120.411C73.8339 120.532 73.8005 120.645 73.7981 120.747C73.7551 120.828 73.7634 120.911 73.823 120.994C73.8803 121.181 73.9984 121.399 74.181 121.496C74.3636 121.593 74.5785 121.629 74.7969 121.51C74.9832 121.453 75.2017 121.335 75.2984 121.152C75.4298 120.806 75.572 120.44 75.7249 120.053Z" fill="#5C4B99"/>
<path d="M72.7861 119.275C72.7886 119.173 72.7802 119.09 72.7612 119.028C72.7636 118.926 72.7349 118.833 72.6753 118.749C72.5572 118.53 72.4068 118.373 72.192 118.337C71.9461 118.311 71.7396 118.357 71.5724 118.476L70.5408 119.099C70.3223 119.217 70.2256 119.4 70.1897 119.615C70.1467 119.696 70.1443 119.799 70.1824 119.923C70.18 120.025 70.2086 120.119 70.2683 120.202C70.4187 120.36 70.569 120.517 70.7839 120.553C70.9677 120.599 71.1635 120.572 71.3712 120.475C71.7055 120.236 72.0601 120.008 72.435 119.791C72.5604 119.702 72.7503 119.49 72.7861 119.275Z" fill="#5C4B99"/>
<path d="M62.4556 60.7923L62.4915 60.5774C62.4749 60.4127 62.4367 60.2885 62.377 60.205C62.2171 60.0163 62.0573 59.8277 61.8974 59.639C61.8377 59.5554 61.7673 59.4921 61.6861 59.4491C61.6265 59.3655 61.5453 59.3225 61.4427 59.3201C61.3209 59.2556 61.2183 59.2532 61.1347 59.3129C61.032 59.3104 60.9389 59.3391 60.8553 59.3987C60.7717 59.4584 60.7192 59.5085 60.6977 59.5491C60.5926 59.6493 60.5281 59.771 60.5042 59.9143C60.4827 59.9549 60.4708 60.0265 60.4683 60.1291C60.4659 60.2318 60.5041 60.356 60.5828 60.5016C60.7021 60.6688 60.8417 60.8467 61.0016 61.0353C61.0613 61.1189 61.1317 61.1822 61.2129 61.2252C61.3131 61.3303 61.4145 61.384 61.5172 61.3865C61.6199 61.3889 61.7225 61.3913 61.8252 61.3937C61.9278 61.3961 62.0209 61.3675 62.1045 61.3079C62.1475 61.2267 62.2001 61.1766 62.2621 61.1575C62.3672 61.0573 62.4317 60.9355 62.4556 60.7923Z" fill="#5C4B99"/>
<path d="M64.6868 58.9341C64.7083 58.8936 64.7203 58.8219 64.7227 58.7193C64.7251 58.6166 64.687 58.4925 64.6082 58.3468C64.5486 58.2632 64.4889 58.1797 64.4293 58.0961C64.3696 58.0125 64.3099 57.9289 64.2503 57.8453C64.1691 57.8023 64.0569 57.7689 63.9137 57.745C63.8325 57.702 63.7299 57.6995 63.6057 57.7377C63.5436 57.7568 63.4708 57.7961 63.3872 57.8558C63.3251 57.8749 63.2523 57.9143 63.1687 57.9739C63.1042 58.0956 63.0397 58.2174 62.9752 58.3391L63.0002 58.5862C62.9978 58.6889 63.036 58.813 63.1147 58.9587C63.1744 59.0423 63.234 59.1259 63.2937 59.2094C63.3533 59.293 63.413 59.3766 63.4727 59.4602C63.5538 59.5032 63.6457 59.5259 63.7484 59.5283C63.8701 59.5928 63.9728 59.5952 64.0564 59.5356C64.159 59.538 64.2521 59.5094 64.3357 59.4497C64.3978 59.4306 64.4503 59.3805 64.4933 59.2994C64.5984 59.1991 64.6629 59.0774 64.6868 58.9341Z" fill="#5C4B99"/>
<path d="M139.107 48.3941C139.049 48.2078 138.931 47.9893 138.749 47.8926C138.534 47.8567 138.319 47.8208 138.133 47.8781C137.946 47.9353 137.8 48.0654 137.692 48.2683L137.112 49.3639C137.015 49.5465 136.979 49.7614 137.036 49.9476C137.093 50.1338 137.212 50.3523 137.394 50.4491C137.609 50.485 137.792 50.5817 138.01 50.4636C138.196 50.4064 138.364 50.287 138.512 50.1057L139.031 48.9778C139.128 48.7952 139.164 48.5803 139.107 48.3941Z" fill="#5C4B99"/>
<path d="M141.476 51.1309C141.519 51.0497 141.521 50.9471 141.483 50.8229C141.464 50.7608 141.435 50.6677 141.397 50.5435C141.247 50.3859 141.097 50.2283 140.882 50.1924C140.676 50.1876 140.47 50.2341 140.262 50.3319C139.909 50.5084 139.565 50.716 139.231 50.9547C139.012 51.0728 138.915 51.2554 138.879 51.4702C138.836 51.5514 138.834 51.654 138.872 51.7782C138.87 51.8809 138.898 51.974 138.958 52.0576C139.108 52.2152 139.259 52.3728 139.474 52.4087C139.657 52.4541 139.853 52.4279 140.061 52.3301C140.395 52.0915 140.75 51.8636 141.125 51.6464C141.25 51.557 141.44 51.3457 141.476 51.1309Z" fill="#5C4B99"/>
<path d="M173.368 75.9801L173.404 75.7652C173.428 75.622 173.39 75.4978 173.29 75.3927C173.17 75.2256 173.051 75.0584 172.932 74.8913C172.872 74.8077 172.802 74.7444 172.72 74.7014C172.661 74.6178 172.559 74.5641 172.416 74.5401C172.335 74.4971 172.232 74.4947 172.108 74.5329C172.046 74.552 171.953 74.5806 171.829 74.6187C171.807 74.6593 171.755 74.7094 171.671 74.7691C171.607 74.8908 171.542 75.0126 171.478 75.1343C171.497 75.1964 171.505 75.2788 171.503 75.3814C171.5 75.4841 171.538 75.6082 171.617 75.7539C171.736 75.921 171.835 76.0774 171.914 76.2231C171.974 76.3067 172.065 76.3807 172.186 76.4452C172.246 76.5288 172.327 76.5718 172.43 76.5742C172.573 76.5982 172.676 76.6006 172.738 76.5815C172.84 76.5839 172.934 76.5553 173.017 76.4956L173.175 76.3453C173.28 76.245 173.344 76.1233 173.368 75.9801Z" fill="#5C4B99"/>
<path d="M175.617 76.0021C175.665 75.7156 175.724 75.4088 175.793 75.0818C175.829 74.8669 175.771 74.6807 175.714 74.4944C175.655 74.4109 175.564 74.3368 175.442 74.2723C175.361 74.2293 175.28 74.1863 175.199 74.1433C174.984 74.1074 174.737 74.1324 174.579 74.2828C174.454 74.3723 174.296 74.5226 174.26 74.7375C174.191 75.0645 174.132 75.3713 174.084 75.6578C174.049 75.8726 174.074 76.1197 174.163 76.2451C174.201 76.3693 174.261 76.4528 174.342 76.4958C174.464 76.5603 174.576 76.5938 174.679 76.5962C174.861 76.693 175.047 76.6357 175.266 76.5176C175.424 76.3673 175.581 76.2169 175.617 76.0021Z" fill="#5C4B99"/>
<path d="M219.102 104.576C219.145 104.495 219.136 104.412 219.077 104.329C219.038 104.205 218.99 104.101 218.93 104.017C218.87 103.933 218.8 103.87 218.719 103.827C218.616 103.825 218.544 103.813 218.504 103.791C218.361 103.767 218.227 103.775 218.103 103.813C218.041 103.832 217.979 103.851 217.917 103.87C217.771 103.949 217.666 104.049 217.601 104.171L217.343 104.658C217.3 104.739 217.278 104.831 217.275 104.933C217.273 105.036 217.291 105.149 217.329 105.274C217.326 105.376 217.386 105.46 217.508 105.524C217.567 105.608 217.638 105.671 217.719 105.714C217.8 105.757 217.861 105.789 217.902 105.811C218.045 105.835 218.178 105.828 218.303 105.79L218.521 105.671C218.605 105.612 218.679 105.521 218.743 105.399L219.001 104.912C219.066 104.791 219.099 104.678 219.102 104.576Z" fill="#5C4B99"/>
<path d="M27.0075 96.5022L26.9825 96.2551C26.985 96.1525 26.9468 96.0283 26.8681 95.8827C26.7297 95.6534 26.5805 95.4445 26.4206 95.2558C26.361 95.1722 26.3013 95.0887 26.2416 95.0051C26.1199 94.9406 26.0077 94.9071 25.9051 94.9047C25.8239 94.8617 25.7212 94.8593 25.5971 94.8974C25.4944 94.895 25.4013 94.9236 25.3177 94.9833L25.1601 95.1337C25.055 95.2339 24.9905 95.3556 24.9666 95.4989L24.9307 95.7137C24.9689 95.8379 25.007 95.962 25.0452 96.0862C25.2457 96.2963 25.4151 96.516 25.5535 96.7453C25.6132 96.8289 25.6836 96.8922 25.7647 96.9352C25.8244 97.0187 25.9258 97.0725 26.0691 97.0964C26.1717 97.0988 26.2744 97.1012 26.377 97.1037C26.4391 97.0846 26.5322 97.056 26.6564 97.0178C26.6994 96.9366 26.7519 96.8865 26.814 96.8674C26.8785 96.7457 26.943 96.624 27.0075 96.5022Z" fill="#5C4B99"/>
<path d="M29.2356 97.4486C29.2619 97.2027 29.2572 96.9663 29.2215 96.7395C29.2239 96.6368 29.1953 96.5437 29.1356 96.4601C29.0974 96.336 29.0378 96.2524 28.9566 96.2094C28.897 96.1258 28.8266 96.0625 28.7454 96.0195C28.6237 95.955 28.5007 95.9418 28.3766 95.98C28.3145 95.9991 28.2524 96.0182 28.1903 96.0372C28.0662 96.0754 27.9516 96.1446 27.8465 96.2448C27.825 96.2854 27.7927 96.3463 27.7497 96.4274C27.6852 96.5492 27.6518 96.6614 27.6493 96.764C27.6636 97.0314 27.6575 97.2881 27.6312 97.534C27.6288 97.6366 27.6574 97.7298 27.717 97.8133C27.7767 97.8969 27.8364 97.9805 27.896 98.0641C27.9963 98.1691 28.0977 98.2229 28.2004 98.2253C28.2815 98.2683 28.3734 98.291 28.4761 98.2934L28.6623 98.2362C28.8271 98.2196 28.9417 98.1504 29.0062 98.0286C29.0898 97.969 29.1423 97.9188 29.1638 97.8783C29.2283 97.7565 29.2522 97.6133 29.2356 97.4486Z" fill="#5C4B99"/>
<path d="M138.445 90.6866L132.846 87.7196C131.446 86.9778 130.87 85.2695 131.644 83.8086C132.385 82.4086 134.122 81.9258 135.522 82.6675L141.154 85.5736C142.554 86.3154 143.098 88.0846 142.356 89.4846C141.615 90.8846 139.845 91.4283 138.445 90.6866Z" fill="#E04154"/>
<path d="M153.999 98.8495L148.306 95.9111C146.906 95.1694 146.423 93.4324 147.165 92.0324C147.907 90.6324 149.615 90.0564 151.015 90.7981L156.615 93.7651C158.015 94.5069 158.591 96.2153 157.849 97.6153C157.075 99.0761 155.399 99.5912 153.999 98.8495Z" fill="#E04154"/>
</svg>
