<svg width="250" height="253" viewBox="0 0 250 253" fill="none" xmlns="http://www.w3.org/2000/svg">
<path d="M138.881 126.814L132.048 124.059L125.282 121.33C125.282 121.33 114.472 154.066 90.4432 159.337L86.6446 168.757L110.193 178.253L133.808 187.776L137.606 178.357C123.891 157.864 138.881 126.814 138.881 126.814Z" fill="#FFCA61"/>
<path d="M92.4961 160.937L114.956 170.072" stroke="#261947" stroke-width="1.2" stroke-linecap="round" stroke-linejoin="round"/>
<path d="M141.008 130.911C139.51 134.626 133.795 135.792 128.223 133.544C122.717 131.324 119.41 126.52 120.909 122.805C122.407 119.091 128.121 117.925 133.627 120.145C139.199 122.392 142.506 127.196 141.008 130.911Z" fill="#FF974A"/>
<path d="M113.426 16.291L110.082 24.5827C122.547 36.3191 93.7211 89.6305 116.034 118.063C123.577 127.661 135.716 132.556 147.808 130.877C183.603 125.878 199.825 67.4838 216.945 67.6782L219.807 60.5806C182.295 46.3783 146.835 31.6151 113.426 16.291Z" fill="#FFCA61"/>
<path d="M124.439 231.274L63.2137 206.583C61.6217 205.941 60.9627 204.133 61.6443 202.634C67.0778 191.201 72.4059 177.925 77.6285 162.807C78.2042 161.189 80.0658 160.397 81.6311 161.105C101.634 170.149 121.955 178.344 142.591 185.689C144.277 186.292 145.041 188.22 144.267 189.758C138.3 201.748 132.968 214.971 128.27 229.426C127.76 231.071 125.965 231.889 124.439 231.274Z" fill="#3D246C"/>
<path d="M117.222 219.34L76.6926 202.996C77.7626 200.342 76.4564 197.27 73.8031 196.2L82.0423 175.77C84.6956 176.84 87.7674 175.534 88.8374 172.88L129.367 189.225C128.297 191.878 129.537 194.923 132.257 196.02L124.017 216.451C121.298 215.354 118.292 216.687 117.222 219.34Z" fill="#5C4B99"/>
<path d="M104.132 90.5896C101.121 84.6707 96.4324 79.8495 91.97 75.0422C87.7986 70.6607 83.0977 65.68 80.3225 60.7048C79.0537 58.4965 77.7207 55.491 77.1955 53.3512C76.4991 50.6796 76.2136 48.3279 76.433 45.8714C76.57 44.3842 76.7851 43.4684 77.1468 42.3803C77.3344 41.7876 77.5662 41.2127 77.8423 40.6556C77.9136 40.4787 77.985 40.3018 78.0563 40.1249C78.1226 40.1517 78.4565 39.5151 78.4832 39.4488C79.9641 37.1154 81.2555 36.0166 83.5977 34.4161C83.6775 34.3455 83.7485 34.297 83.8106 34.2707C83.8106 34.2707 83.8726 34.2443 83.9968 34.1915C84.2628 34.0417 84.5599 33.8787 84.888 33.7026C85.3844 33.4915 85.8809 33.2804 86.3774 33.0693C87.7736 32.4755 88.2123 32.3439 89.7669 32.1225C90.4224 32.027 91.0379 31.9667 91.6135 31.9418C91.7066 31.9022 92.1582 31.9301 92.2512 31.8905C92.446 31.9176 92.6496 31.9226 92.8621 31.9055C93.5526 31.9783 94.2341 32.0732 94.9067 32.1902C95.1015 32.2173 95.2962 32.2444 95.4909 32.2715L96.2473 32.4994C96.8401 32.6871 97.4149 32.9189 97.972 33.195C98.3258 33.3376 98.6485 33.4935 98.9402 33.6626C98.9845 33.6804 99.0287 33.6982 99.0729 33.7161C99.5943 34.0806 100.094 34.4362 100.571 34.7828C100.845 34.9961 101.11 35.2315 101.366 35.489C101.432 35.5157 102.055 36.0753 101.949 35.9555C103.842 37.9531 104.807 39.5762 105.704 41.9429C107.563 46.703 107.123 52.0012 103.845 55.9234C103.809 56.0118 103.76 56.0692 103.698 56.0956C103.698 56.0956 103.658 56.1309 103.578 56.2015C103.259 56.484 102.948 56.7443 102.646 56.9825C102.553 57.0221 102.154 57.2468 102.128 57.3131C101.817 57.4451 101.507 57.577 101.197 57.7089C101.728 57.5378 100.014 57.772 100.4 57.7731C100.249 57.7638 100.099 57.7545 99.9481 57.7453C99.8418 57.7538 99.7887 57.7581 99.7887 57.7581C99.7444 57.7403 99.7002 57.7224 99.656 57.7046C99.3907 57.5976 99.1253 57.4906 98.86 57.3836C98.7273 57.3301 98.6257 57.2634 98.5551 57.1835C98.4402 57.0858 98.3033 56.9791 98.1442 56.8636C98.1442 56.8636 97.7601 56.4773 97.7206 56.3842C97.7206 56.3842 97.7074 56.3532 97.681 56.2911C97.5751 56.1713 97.4959 55.9851 97.5227 55.9188C97.4963 55.8568 97.492 55.8036 97.5098 55.7594C97.5238 55.5336 97.5516 55.0821 97.6051 54.9495C98.0492 52.8921 96.0496 50.7746 94.0714 50.5167C91.7743 50.2844 90.1094 51.9266 89.6385 54.0504C88.2121 60.6474 94.9705 66.0722 101.041 65.744C108.002 65.312 112.736 58.7376 114.227 52.5526C117.171 40.0893 108.47 26.4775 95.8058 24.2236C82.9819 21.9827 70.058 31.6552 68.5606 44.5475C66.9402 58.7013 76.6031 70.3103 85.6873 79.9121C88.4283 82.8684 91.1692 85.8247 93.6042 88.9661C95.7086 91.5885 97.706 94.4763 98.2815 97.639C98.6355 99.2471 98.6323 100.403 98.3754 101.996C98.3754 101.996 98.2278 102.553 98.1742 102.686C98.0137 103.084 97.8265 103.548 97.6392 104.012L97.4124 104.384C97.217 104.613 97.0215 104.843 96.8261 105.073C96.7904 105.161 96.7415 105.219 96.6795 105.245C96.6527 105.311 95.9872 105.814 96.0803 105.775C95.8941 105.854 95.8406 105.986 95.8406 105.986C95.7743 105.96 95.6812 105.999 95.5614 106.105C95.2158 106.197 94.9098 106.382 94.5642 106.474C94.6573 106.435 93.8998 106.592 93.8335 106.565C93.7272 106.574 93.643 106.591 93.581 106.617C93.581 106.617 93.5499 106.631 93.4879 106.657C93.0631 106.563 92.678 106.562 92.2532 106.468C92.209 106.45 92.1426 106.423 92.0542 106.387C91.9393 106.29 91.8377 106.223 91.7493 106.187C91.5724 106.116 91.4133 106 91.2721 105.841C89.6288 104.561 86.9979 104.965 85.7182 106.609C84.385 108.385 84.7765 110.856 86.4594 112.229C91.6675 116.334 99.4951 114.71 103.414 109.581C107.627 104.107 107.17 96.4422 104.132 90.5896Z" fill="#FF974A"/>
<path d="M162.716 133.496C161.981 139.909 166.558 146.536 173.157 147.192C175.321 147.371 177.318 145.862 177.59 143.658C177.808 141.587 176.193 139.471 174.056 139.226C173.887 139.261 173.715 139.242 173.538 139.171C173.45 139.135 173.33 139.113 173.18 139.104C173.091 139.068 173.003 139.032 172.914 138.997C172.609 138.796 172.265 138.503 171.96 138.303C171.934 138.241 171.92 138.21 171.92 138.21C171.85 138.13 171.801 138.059 171.775 137.997C171.708 137.97 171.272 137.332 171.312 137.425C171.126 137.119 171.035 136.773 170.849 136.467C170.77 136.281 170.797 136.215 170.731 136.188C170.731 136.188 170.784 136.055 170.705 135.869C170.745 135.962 170.614 135.138 170.641 135.072C170.614 135.01 170.619 134.935 170.655 134.846C170.673 134.545 170.692 134.244 170.71 133.943L170.805 133.519C170.926 133.027 171.179 132.59 171.34 132.192C171.393 132.059 171.673 131.555 171.673 131.555C172.527 130.203 173.393 129.395 174.764 128.483C177.372 126.604 180.814 125.91 184.083 125.454C188.082 124.908 192.107 124.68 196.132 124.452C209.336 123.839 224.349 122.181 233.001 110.863C240.866 100.538 238.268 84.6063 227.477 77.3239C216.792 70.1615 201.083 73.929 194.557 84.9477C191.34 90.4373 190.122 98.4295 194.903 103.596C199.047 108.044 207.678 108.826 211.227 103.085C212.361 101.228 212.302 98.8906 210.486 97.4643C208.882 96.2777 205.973 96.4156 204.866 98.2055C204.812 98.3381 204.519 98.6826 204.373 98.8549C204.355 98.8991 204.315 98.9344 204.253 98.9608C204.16 99.0004 204.04 99.1063 203.88 99.1191C203.818 99.1455 203.787 99.1587 203.787 99.1587C203.694 99.1983 203.15 99.2101 203.15 99.2101C202.955 99.1829 202.782 99.1647 202.632 99.1555C202.481 99.1462 202.362 99.1237 202.273 99.088C202.008 98.981 201.743 98.874 201.477 98.767C201.433 98.7492 201.389 98.7314 201.345 98.7135C201.345 98.7135 201.309 98.6736 201.239 98.5937C201.124 98.496 201.009 98.3982 200.894 98.3005C201.172 98.5669 200.1 97.2092 200.365 97.7013C200.233 97.3911 200.101 97.0808 199.969 96.7705C199.996 96.7042 199.864 96.2655 199.824 96.1724C199.772 95.7915 199.729 95.3885 199.695 94.9634C199.687 94.8571 199.682 94.804 199.682 94.804C199.656 94.7419 199.66 94.6667 199.696 94.5782C200.056 89.4791 203.348 85.3312 208.056 83.2194C210.343 82.1367 212.164 81.6372 214.914 81.5121C214.688 81.4982 215.591 81.5539 215.658 81.5806C216.021 81.5728 216.375 81.587 216.72 81.6234C217.304 81.7048 217.911 81.795 218.539 81.8942C218.583 81.912 218.627 81.9299 218.672 81.9477C218.999 82.0283 219.318 82.1311 219.627 82.2559C220.22 82.4435 220.817 82.6843 221.418 82.9782L222.121 83.3388C222.28 83.4543 222.439 83.5699 222.598 83.6854C223.164 84.0678 223.72 84.4722 224.268 84.8988C224.409 85.0586 224.56 85.1962 224.719 85.3118C224.758 85.4049 225.036 85.6713 225.142 85.7911C225.54 86.2084 225.919 86.6699 226.281 87.1756C227.313 88.4403 227.538 88.8394 228.131 90.2357C228.343 90.7321 228.554 91.2286 228.765 91.725C228.879 92.0795 228.98 92.403 229.067 92.6954C229.076 92.8017 229.102 92.8638 229.147 92.8816C229.173 92.9437 229.191 93.0278 229.199 93.1341C229.776 95.9116 229.877 97.5721 229.391 100.307C229.365 100.373 229.163 101.063 229.23 101.09C229.158 101.267 229.087 101.444 229.016 101.621C228.828 102.213 228.596 102.788 228.32 103.345C227.826 104.38 227.345 105.189 226.412 106.355C224.866 108.276 223.029 109.772 220.674 111.213C218.811 112.39 215.766 113.63 213.321 114.34C207.87 115.998 201.029 116.324 194.985 116.586C188.436 116.953 181.715 117.173 175.44 119.347C169.192 121.454 163.546 126.658 162.716 133.496Z" fill="#FF974A"/>
<path d="M115.731 27.7863L176.294 52.2098" stroke="#261947" stroke-width="1.2" stroke-linecap="round" stroke-linejoin="round"/>
<path d="M178.947 53.2798L189.693 57.6134" stroke="#261947" stroke-width="1.2" stroke-linecap="round" stroke-linejoin="round"/>
<path d="M114.881 88.9864C114.856 88.6676 114.671 88.3616 114.432 88.1882C114.193 88.0149 113.862 87.8811 113.516 87.9731C113.41 87.9817 113.326 87.9992 113.264 88.0256C113.078 88.1047 112.896 88.237 112.718 88.4225C112.54 88.6079 112.363 88.7934 112.185 88.9788C112.012 89.2174 111.918 89.6421 111.97 89.8946C112.023 90.1471 112.181 90.5195 112.446 90.6265C112.685 90.7998 113.016 90.9336 113.269 90.8812C113.393 90.8284 113.508 90.7977 113.615 90.7892C113.801 90.71 113.952 90.5909 114.067 90.4318C114.245 90.2464 114.431 90.0388 114.627 89.8092C114.84 89.6637 114.934 89.2389 114.881 88.9864Z" fill="#FFDEA4"/>
<path d="M119.439 88.2024C119.086 87.8029 118.764 87.3903 118.473 86.9645C118.049 86.4851 117.333 86.3503 116.787 86.7472C116.307 87.1709 116.173 87.8877 116.57 88.4334C116.923 88.8328 117.245 89.2455 117.536 89.6713C117.959 90.1506 118.742 90.3122 119.222 89.8886C119.701 89.4649 119.836 88.7481 119.439 88.2024Z" fill="#FFDEA4"/>
<path d="M186.917 67.3679C185.524 66.8061 184.641 68.9951 186.034 69.5569C187.427 70.1186 188.31 67.9296 186.917 67.3679Z" fill="#FFDEA4"/>
<path d="M183.051 71.9787C183.132 71.6513 183.204 71.346 183.266 71.0629C183.307 70.7708 183.149 70.3984 183.003 70.1855C182.791 69.9459 182.486 69.7458 182.194 69.7051C181.876 69.7308 181.557 69.7564 181.317 69.9683C181.077 70.1801 180.97 70.4454 180.903 70.8038C180.84 71.087 180.777 71.3702 180.715 71.6534C180.674 71.9454 180.766 72.291 180.978 72.5307C181.123 72.7436 181.428 72.9437 181.72 72.9844C182.012 73.025 182.358 72.933 182.598 72.7212C182.837 72.5094 183.011 72.2708 183.051 71.9787Z" fill="#FFDEA4"/>
<path d="M155.466 119.158C154.073 118.596 153.19 120.785 154.583 121.347C156.042 121.935 156.925 119.746 155.466 119.158Z" fill="#FFDEA4"/>
<path d="M152.292 118.803C152.417 118.237 152.534 117.693 152.642 117.171C152.75 116.52 152.154 115.894 151.57 115.813C150.893 115.771 150.386 116.261 150.278 116.912C150.171 117.434 150.054 117.978 149.928 118.544C149.847 119.128 150.35 119.794 150.961 119.809C151.704 119.877 152.184 119.454 152.292 118.803Z" fill="#FFDEA4"/>
<path d="M112.754 160.237C111.361 159.675 110.478 161.864 111.871 162.426C113.33 163.014 114.213 160.825 112.754 160.237Z" fill="#FFDEA4"/>
<path d="M111.352 158.36C111.393 158.068 111.301 157.723 111.155 157.51C110.943 157.27 110.638 157.07 110.346 157.029C110.24 157.038 110.134 157.047 110.027 157.055C109.815 157.072 109.629 157.151 109.469 157.293C109.265 157.416 109.061 157.539 108.857 157.663C108.578 157.782 108.417 158.18 108.376 158.472C108.336 158.764 108.428 159.109 108.64 159.349C108.851 159.589 109.09 159.762 109.409 159.736C109.515 159.728 109.613 159.741 109.701 159.777C109.931 159.716 110.118 159.636 110.259 159.539C110.481 159.372 110.716 159.235 110.965 159.13C111.177 158.984 111.338 158.586 111.352 158.36Z" fill="#FFDEA4"/>
<path d="M128.423 142.802C127.03 142.241 126.147 144.43 127.54 144.991C128.933 145.553 129.816 143.364 128.423 142.802Z" fill="#FFDEA4"/>
<path d="M193.495 150.69L169.055 160.423C168.563 160.687 168.283 161.191 168.454 161.723L171.641 171.414C171.812 171.946 171.478 172.582 170.88 172.727L151.278 176.776C150.268 176.985 150.197 178.499 151.246 178.768L189.362 189.049C190.052 189.25 190.744 188.681 190.654 187.95L189.084 174.824C189.005 174.252 189.445 173.736 189.99 173.724L201.905 173.053C202.609 173.029 203.063 172.286 202.786 171.635L194.821 151.225C194.624 150.759 194.053 150.452 193.495 150.69Z" fill="#E0752D"/>
<path d="M192.672 183.52L152.725 172.423C151.657 174.306 150.532 177.477 150.532 177.477L190.452 188.641C191.707 186.678 192.672 183.52 192.672 183.52Z" fill="#E0752D"/>
<path d="M204.869 167.616L170.715 155.925C169.567 158.007 168.549 160.913 168.549 160.913L202.757 172.472C204.012 170.124 204.869 167.616 204.869 167.616Z" fill="#E0752D"/>
<path d="M195.58 145.901L171.14 155.634C170.675 155.832 170.368 156.402 170.539 156.934L173.726 166.625C173.897 167.157 173.563 167.794 172.992 167.872L153.363 171.987C152.353 172.196 152.282 173.71 153.331 173.979L191.447 184.26C192.137 184.462 192.829 183.892 192.739 183.162L191.168 170.035C191.09 169.463 191.53 168.947 192.075 168.935L203.99 168.265C204.694 168.24 205.148 167.498 204.871 166.846L196.906 146.436C196.735 145.904 196.138 145.663 195.58 145.901Z" fill="#FFCA61"/>
<path d="M68.6468 79.9041L79.002 114.466C79.1859 115.157 78.7986 115.926 78.147 116.203L65.0243 121.014C64.2133 121.304 63.8655 122.166 64.2485 122.938L76.5578 147.491C77.1783 148.821 75.674 150.065 74.4811 149.198L30.9414 116.987C30.1593 116.44 30.1893 115.218 31.0142 114.702L46.4877 105.21C47.1928 104.8 47.3416 103.857 46.9051 103.219L37.4862 89.8572C36.9438 89.0986 37.3054 88.0105 38.1828 87.7473L66.936 78.9828C67.6539 78.7325 68.4232 79.1198 68.6468 79.9041Z" fill="#E0752D"/>
<path d="M34.0336 108.747L79.987 142.241C78.8902 144.961 76.4484 148.912 76.4484 148.912L30.4683 115.484C31.5127 112.512 34.0336 108.747 34.0336 108.747Z" fill="#E0752D"/>
<path d="M40.7756 82.0833L82.4047 108.897C81.1613 111.789 78.9196 115.435 78.9196 115.435L37.3441 88.4887C38.841 85.1592 40.7756 82.0833 40.7756 82.0833Z" fill="#E0752D"/>
<path d="M72.0517 73.565L82.3801 108.193C82.5641 108.884 82.2035 109.587 81.5519 109.864L68.4292 114.675C67.6182 114.965 67.2437 115.894 67.6534 116.599L79.9627 141.152C80.5832 142.482 79.0521 143.792 77.8592 142.926L34.3195 110.714C33.5642 110.101 33.5675 108.945 34.4191 108.363L49.8659 98.9369C50.571 98.5272 50.7197 97.5846 50.2832 96.9458L40.8643 83.5844C40.3487 82.7594 40.7103 81.6713 41.5877 81.4082L70.2746 72.6169C71.0588 72.3934 71.8013 72.847 72.0517 73.565Z" fill="#FFCA61"/>
</svg>
