<svg xmlns="http://www.w3.org/2000/svg" xmlns:xlink="http://www.w3.org/1999/xlink" width="200" zoomAndPan="magnify" viewBox="0 0 150 149.999998" height="200" preserveAspectRatio="xMidYMid meet" version="1.0"><defs><clipPath id="76f5e672ec"><path d="M 63 114 L 100 114 L 100 120.226562 L 63 120.226562 Z M 63 114 " clip-rule="nonzero"/></clipPath><clipPath id="79fb441bc2"><path d="M 39 63.6875 L 76 63.6875 L 76 85 L 39 85 Z M 39 63.6875 " clip-rule="nonzero"/></clipPath><clipPath id="22adcf7cd4"><path d="M 32.917969 65 L 60 65 L 60 107 L 32.917969 107 Z M 32.917969 65 " clip-rule="nonzero"/></clipPath><clipPath id="1262fce485"><path d="M 32.917969 70 L 55 70 L 55 107 L 32.917969 107 Z M 32.917969 70 " clip-rule="nonzero"/></clipPath><clipPath id="7a8c27e51f"><path d="M 55 65 L 81.730469 65 L 81.730469 107 L 55 107 Z M 55 65 " clip-rule="nonzero"/></clipPath><clipPath id="c141743301"><path d="M 59 70 L 81.730469 70 L 81.730469 107 L 59 107 Z M 59 70 " clip-rule="nonzero"/></clipPath></defs><rect x="-15" width="180" fill="#ffffff" y="-15" height="179.999997" fill-opacity="1"/><rect x="-15" width="180" fill="#8b8b8b" y="-15" height="179.999997" fill-opacity="1"/><path fill="#ffdb23" d="M 68.769531 71.25 C 68.742188 71.25 68.714844 71.25 68.6875 71.25 C 62.6875 70.996094 57.847656 68.804688 54.300781 64.734375 C 46.539062 55.835938 47.832031 41.15625 47.890625 40.535156 C 47.984375 39.570312 48.792969 38.832031 49.765625 38.832031 L 63.863281 38.832031 C 64.898438 38.832031 65.742188 39.675781 65.742188 40.714844 C 65.742188 41.757812 64.902344 42.597656 63.863281 42.597656 L 51.558594 42.597656 C 51.480469 46.503906 51.863281 56.226562 57.148438 62.277344 C 59.988281 65.53125 63.929688 67.289062 68.847656 67.492188 C 69.886719 67.535156 70.695312 68.414062 70.652344 69.449219 C 70.601562 70.457031 69.769531 71.25 68.769531 71.25 Z M 68.769531 71.25 " fill-opacity="1" fill-rule="nonzero"/><path fill="#ffdb23" d="M 94.878906 71.25 C 93.875 71.25 93.042969 70.460938 93 69.449219 C 92.957031 68.410156 93.761719 67.53125 94.800781 67.488281 C 99.730469 67.28125 103.667969 65.523438 106.515625 62.261719 C 111.804688 56.191406 112.179688 46.492188 112.09375 42.59375 L 99.789062 42.59375 C 98.75 42.59375 97.90625 41.753906 97.90625 40.710938 C 97.90625 39.671875 98.746094 38.828125 99.789062 38.828125 L 113.882812 38.828125 C 114.855469 38.828125 115.664062 39.566406 115.757812 40.53125 C 115.816406 41.152344 117.109375 55.832031 109.351562 64.730469 C 105.800781 68.800781 100.960938 70.992188 94.960938 71.246094 C 94.933594 71.25 94.90625 71.25 94.878906 71.25 Z M 94.878906 71.25 " fill-opacity="1" fill-rule="nonzero"/><path fill="#ff9049" d="M 90.703125 86.304688 C 90.703125 87.304688 90.6875 88.304688 90.660156 89.296875 C 90.632812 90.292969 90.589844 91.28125 90.535156 92.261719 C 90.476562 93.242188 90.410156 94.210938 90.324219 95.167969 C 90.242188 96.125 90.144531 97.066406 90.035156 97.992188 C 89.925781 98.914062 89.804688 99.820312 89.667969 100.699219 C 89.535156 101.582031 89.386719 102.4375 89.226562 103.269531 C 89.070312 104.101562 88.898438 104.90625 88.714844 105.679688 C 88.535156 106.449219 88.34375 107.191406 88.140625 107.898438 C 87.9375 108.605469 87.726562 109.277344 87.503906 109.910156 C 87.28125 110.546875 87.050781 111.140625 86.8125 111.695312 C 86.574219 112.25 86.332031 112.765625 86.078125 113.238281 C 85.824219 113.707031 85.566406 114.136719 85.300781 114.519531 C 85.039062 114.902344 84.769531 115.238281 84.492188 115.527344 C 84.21875 115.816406 83.941406 116.0625 83.660156 116.253906 C 83.378906 116.449219 83.097656 116.597656 82.8125 116.695312 C 82.527344 116.792969 82.242188 116.84375 81.953125 116.84375 C 81.667969 116.84375 81.382812 116.792969 81.097656 116.695312 C 80.8125 116.597656 80.53125 116.449219 80.25 116.253906 C 79.96875 116.0625 79.691406 115.816406 79.414062 115.527344 C 79.140625 115.238281 78.871094 114.902344 78.609375 114.519531 C 78.34375 114.136719 78.085938 113.707031 77.832031 113.238281 C 77.578125 112.765625 77.332031 112.25 77.09375 111.695312 C 76.855469 111.140625 76.628906 110.546875 76.40625 109.910156 C 76.183594 109.277344 75.972656 108.605469 75.769531 107.898438 C 75.566406 107.191406 75.375 106.449219 75.195312 105.679688 C 75.011719 104.90625 74.839844 104.101562 74.683594 103.269531 C 74.523438 102.4375 74.375 101.582031 74.242188 100.699219 C 74.105469 99.820312 73.984375 98.914062 73.875 97.992188 C 73.765625 97.066406 73.667969 96.125 73.585938 95.167969 C 73.5 94.210938 73.433594 93.242188 73.375 92.261719 C 73.320312 91.28125 73.277344 90.292969 73.25 89.296875 C 73.222656 88.304688 73.207031 87.304688 73.207031 86.304688 C 73.207031 85.304688 73.222656 84.308594 73.25 83.3125 C 73.277344 82.316406 73.320312 81.328125 73.375 80.347656 C 73.433594 79.367188 73.5 78.398438 73.585938 77.441406 C 73.667969 76.484375 73.765625 75.542969 73.875 74.621094 C 73.984375 73.695312 74.105469 72.792969 74.242188 71.910156 C 74.375 71.027344 74.523438 70.171875 74.683594 69.339844 C 74.839844 68.507812 75.011719 67.707031 75.195312 66.933594 C 75.375 66.160156 75.566406 65.417969 75.769531 64.710938 C 75.972656 64.003906 76.183594 63.335938 76.40625 62.699219 C 76.628906 62.066406 76.855469 61.46875 77.09375 60.914062 C 77.332031 60.359375 77.578125 59.84375 77.832031 59.375 C 78.085938 58.902344 78.34375 58.476562 78.609375 58.09375 C 78.871094 57.710938 79.140625 57.375 79.414062 57.082031 C 79.691406 56.792969 79.96875 56.550781 80.25 56.355469 C 80.53125 56.160156 80.8125 56.011719 81.097656 55.914062 C 81.382812 55.816406 81.667969 55.769531 81.953125 55.769531 C 82.242188 55.769531 82.527344 55.816406 82.8125 55.914062 C 83.097656 56.011719 83.378906 56.160156 83.660156 56.355469 C 83.941406 56.550781 84.21875 56.792969 84.492188 57.082031 C 84.769531 57.375 85.039062 57.710938 85.300781 58.09375 C 85.566406 58.476562 85.824219 58.902344 86.078125 59.375 C 86.332031 59.84375 86.574219 60.359375 86.8125 60.914062 C 87.050781 61.46875 87.28125 62.066406 87.503906 62.699219 C 87.726562 63.335938 87.9375 64.003906 88.140625 64.710938 C 88.34375 65.417969 88.535156 66.160156 88.714844 66.933594 C 88.898438 67.707031 89.070312 68.507812 89.226562 69.339844 C 89.386719 70.171875 89.535156 71.027344 89.667969 71.910156 C 89.804688 72.792969 89.925781 73.695312 90.035156 74.621094 C 90.144531 75.542969 90.242188 76.484375 90.324219 77.441406 C 90.410156 78.398438 90.476562 79.367188 90.535156 80.347656 C 90.589844 81.328125 90.632812 82.316406 90.660156 83.3125 C 90.6875 84.308594 90.703125 85.304688 90.703125 86.304688 Z M 90.703125 86.304688 " fill-opacity="1" fill-rule="nonzero"/><path fill="#ffdb23" d="M 81.953125 77.664062 C 69.539062 77.664062 59.472656 67.597656 59.472656 55.183594 L 59.472656 33.449219 L 104.433594 33.449219 L 104.433594 55.183594 C 104.433594 67.597656 94.371094 77.664062 81.953125 77.664062 Z M 81.953125 77.664062 " fill-opacity="1" fill-rule="nonzero"/><path fill="#ffdb23" d="M 98.238281 114.699219 L 65.292969 114.699219 L 65.292969 112.050781 C 65.292969 107.1875 69.238281 103.238281 74.105469 103.238281 L 89.425781 103.238281 C 94.292969 103.238281 98.238281 107.1875 98.238281 112.050781 Z M 98.238281 114.699219 " fill-opacity="1" fill-rule="nonzero"/><g clip-path="url(#76f5e672ec)"><path fill="#8990a3" d="M 63.652344 114.699219 L 99.875 114.699219 L 99.875 120.148438 L 63.652344 120.148438 Z M 63.652344 114.699219 " fill-opacity="1" fill-rule="nonzero"/></g><path fill="#ff9049" d="M 56.636719 28 L 56.636719 29.898438 L 59.472656 33.449219 L 104.433594 33.449219 L 107.269531 29.898438 L 107.269531 28 Z M 56.636719 28 " fill-opacity="1" fill-rule="nonzero"/><path fill="#ffdb23" d="M 56.636719 28 L 107.265625 28 L 107.265625 29.902344 L 56.636719 29.902344 Z M 56.636719 28 " fill-opacity="1" fill-rule="nonzero"/><g clip-path="url(#79fb441bc2)"><path fill="#dd2e44" d="M 75.496094 70.117188 C 70.542969 66.101562 64.234375 63.691406 57.363281 63.691406 C 53.488281 63.691406 49.789062 64.457031 46.414062 65.847656 C 43.878906 66.886719 41.535156 68.28125 39.425781 69.960938 L 39.425781 84.304688 C 41.632812 82.480469 44.113281 80.976562 46.800781 79.875 C 50.175781 78.484375 53.878906 77.71875 57.753906 77.71875 C 64.449219 77.71875 70.605469 80.003906 75.496094 83.839844 Z M 75.496094 70.117188 " fill-opacity="1" fill-rule="nonzero"/></g><g clip-path="url(#22adcf7cd4)"><path fill="#fab529" d="M 59.535156 102.226562 L 54.824219 104.464844 L 50.507812 106.515625 L 32.921875 77.261719 C 34.492188 74.734375 36.449219 72.472656 38.703125 70.554688 C 40.992188 68.605469 43.589844 67.007812 46.410156 65.851562 Z M 59.535156 102.226562 " fill-opacity="1" fill-rule="nonzero"/></g><g clip-path="url(#1262fce485)"><path fill="#dd2e44" d="M 54.824219 104.464844 L 50.507812 106.515625 L 32.921875 77.261719 C 34.492188 74.734375 36.449219 72.472656 38.703125 70.554688 Z M 54.824219 104.464844 " fill-opacity="1" fill-rule="nonzero"/></g><g clip-path="url(#7a8c27e51f)"><path fill="#fab529" d="M 55.1875 102.226562 L 59.898438 104.464844 L 64.210938 106.515625 L 81.800781 77.261719 C 80.230469 74.734375 78.273438 72.472656 76.015625 70.554688 C 73.730469 68.605469 71.132812 67.007812 68.3125 65.851562 Z M 55.1875 102.226562 " fill-opacity="1" fill-rule="nonzero"/></g><g clip-path="url(#c141743301)"><path fill="#dd2e44" d="M 59.898438 104.464844 L 64.210938 106.515625 L 81.800781 77.261719 C 80.230469 74.734375 78.273438 72.472656 76.015625 70.554688 Z M 59.898438 104.464844 " fill-opacity="1" fill-rule="nonzero"/></g><path fill="#fab529" d="M 71.324219 108.117188 C 71.324219 109.027344 71.234375 109.929688 71.058594 110.820312 C 70.878906 111.714844 70.617188 112.582031 70.269531 113.421875 C 69.921875 114.265625 69.492188 115.0625 68.988281 115.820312 C 68.480469 116.578125 67.90625 117.277344 67.265625 117.921875 C 66.621094 118.566406 65.917969 119.140625 65.164062 119.644531 C 64.40625 120.152344 63.605469 120.578125 62.765625 120.925781 C 61.925781 121.273438 61.058594 121.539062 60.164062 121.714844 C 59.273438 121.894531 58.371094 121.980469 57.460938 121.980469 C 56.550781 121.980469 55.648438 121.894531 54.753906 121.714844 C 53.863281 121.539062 52.996094 121.273438 52.152344 120.925781 C 51.3125 120.578125 50.515625 120.152344 49.757812 119.644531 C 49 119.140625 48.300781 118.566406 47.65625 117.921875 C 47.011719 117.277344 46.4375 116.578125 45.933594 115.820312 C 45.425781 115.0625 45 114.265625 44.652344 113.421875 C 44.300781 112.582031 44.039062 111.714844 43.863281 110.820312 C 43.683594 109.929688 43.59375 109.027344 43.59375 108.117188 C 43.59375 107.207031 43.683594 106.304688 43.863281 105.414062 C 44.039062 104.519531 44.300781 103.652344 44.652344 102.8125 C 45 101.96875 45.425781 101.171875 45.933594 100.414062 C 46.4375 99.65625 47.011719 98.957031 47.65625 98.3125 C 48.300781 97.667969 49 97.09375 49.757812 96.589844 C 50.515625 96.082031 51.3125 95.65625 52.152344 95.308594 C 52.996094 94.960938 53.863281 94.695312 54.753906 94.519531 C 55.648438 94.339844 56.550781 94.253906 57.460938 94.253906 C 58.371094 94.253906 59.273438 94.339844 60.164062 94.519531 C 61.058594 94.695312 61.925781 94.960938 62.765625 95.308594 C 63.605469 95.65625 64.40625 96.082031 65.164062 96.589844 C 65.917969 97.09375 66.621094 97.667969 67.265625 98.3125 C 67.90625 98.957031 68.480469 99.65625 68.988281 100.414062 C 69.492188 101.171875 69.921875 101.96875 70.269531 102.8125 C 70.617188 103.652344 70.878906 104.519531 71.058594 105.414062 C 71.234375 106.304688 71.324219 107.207031 71.324219 108.117188 Z M 71.324219 108.117188 " fill-opacity="1" fill-rule="nonzero"/><path fill="#ffdb23" d="M 67.265625 108.117188 C 67.265625 108.761719 67.203125 109.398438 67.078125 110.03125 C 66.949219 110.660156 66.765625 111.273438 66.519531 111.871094 C 66.273438 112.464844 65.96875 113.027344 65.613281 113.566406 C 65.253906 114.101562 64.847656 114.59375 64.394531 115.050781 C 63.9375 115.503906 63.441406 115.910156 62.90625 116.269531 C 62.371094 116.628906 61.808594 116.929688 61.210938 117.175781 C 60.617188 117.421875 60.003906 117.609375 59.371094 117.734375 C 58.742188 117.859375 58.105469 117.921875 57.460938 117.921875 C 56.816406 117.921875 56.179688 117.859375 55.546875 117.734375 C 54.914062 117.609375 54.300781 117.421875 53.707031 117.175781 C 53.113281 116.929688 52.546875 116.628906 52.011719 116.269531 C 51.476562 115.910156 50.980469 115.503906 50.527344 115.050781 C 50.070312 114.59375 49.664062 114.101562 49.308594 113.566406 C 48.949219 113.027344 48.648438 112.464844 48.402344 111.871094 C 48.15625 111.273438 47.96875 110.660156 47.84375 110.03125 C 47.71875 109.398438 47.65625 108.761719 47.65625 108.117188 C 47.65625 107.472656 47.71875 106.835938 47.84375 106.203125 C 47.96875 105.574219 48.15625 104.960938 48.402344 104.363281 C 48.648438 103.769531 48.949219 103.207031 49.308594 102.671875 C 49.664062 102.136719 50.070312 101.640625 50.527344 101.183594 C 50.980469 100.730469 51.476562 100.324219 52.011719 99.964844 C 52.546875 99.605469 53.113281 99.304688 53.707031 99.058594 C 54.300781 98.8125 54.914062 98.625 55.546875 98.5 C 56.179688 98.375 56.816406 98.3125 57.460938 98.3125 C 58.105469 98.3125 58.742188 98.375 59.371094 98.5 C 60.003906 98.625 60.617188 98.8125 61.210938 99.058594 C 61.808594 99.304688 62.371094 99.605469 62.90625 99.964844 C 63.441406 100.324219 63.9375 100.730469 64.394531 101.183594 C 64.847656 101.640625 65.253906 102.136719 65.613281 102.671875 C 65.96875 103.207031 66.273438 103.769531 66.519531 104.363281 C 66.765625 104.960938 66.949219 105.574219 67.078125 106.203125 C 67.203125 106.835938 67.265625 107.472656 67.265625 108.117188 Z M 67.265625 108.117188 " fill-opacity="1" fill-rule="nonzero"/></svg>