<svg xmlns="http://www.w3.org/2000/svg" xmlns:xlink="http://www.w3.org/1999/xlink" width="200" zoomAndPan="magnify" viewBox="0 0 150 149.999998" height="200" preserveAspectRatio="xMidYMid meet" version="1.0"><defs><clipPath id="686a2bd0e3"><path d="M 30 30 L 123.976562 30 L 123.976562 123.976562 L 30 123.976562 Z M 30 30 " clip-rule="nonzero"/></clipPath><clipPath id="aff3eb1cd6"><path d="M 72 71 L 123.976562 71 L 123.976562 123.976562 L 72 123.976562 Z M 72 71 " clip-rule="nonzero"/></clipPath><clipPath id="d63ca5bdd0"><path d="M 105 35 L 123.976562 35 L 123.976562 54 L 105 54 Z M 105 35 " clip-rule="nonzero"/></clipPath></defs><rect x="-15" width="180" fill="#ffffff" y="-15" height="179.999997" fill-opacity="1"/><rect x="-15" width="180" fill="#292a44" y="-15" height="179.999997" fill-opacity="1"/><g clip-path="url(#686a2bd0e3)"><path fill="#ff9049" d="M 92.238281 43.007812 C 77.574219 28.34375 52.921875 25.667969 39.363281 39.230469 C 25.804688 52.789062 28.476562 77.441406 43.140625 92.105469 C 52.628906 101.59375 63.929688 103.648438 74.402344 100.269531 L 74.363281 100.304688 L 74.710938 100.167969 C 75.414062 99.929688 76.117188 99.6875 76.816406 99.40625 C 78.679688 98.773438 81.445312 97.917969 84.671875 97.253906 C 89.605469 96.242188 94.128906 101.542969 97.90625 105.324219 C 101.679688 109.097656 109.234375 120.429688 111.121094 122.320312 C 113.007812 124.207031 114.898438 122.320312 116.789062 120.429688 L 118.675781 118.542969 L 120.5625 116.652344 C 122.453125 114.761719 124.339844 112.875 122.453125 110.988281 C 120.5625 109.097656 109.234375 101.546875 105.457031 97.769531 C 101.679688 93.996094 96.375 89.472656 97.390625 84.539062 C 97.917969 81.960938 98.566406 79.691406 99.132812 77.914062 C 104.40625 66.636719 103.238281 54.007812 92.238281 43.007812 Z M 92.238281 43.007812 " fill-opacity="1" fill-rule="nonzero"/></g><g clip-path="url(#aff3eb1cd6)"><path fill="#cfcccc" d="M 72.097656 100.914062 C 72.867188 100.726562 73.640625 100.515625 74.402344 100.269531 L 74.363281 100.304688 L 74.710938 100.167969 C 75.414062 99.929688 76.117188 99.6875 76.816406 99.40625 C 78.679688 98.773438 81.445312 97.917969 84.671875 97.253906 C 89.605469 96.242188 94.128906 101.542969 97.90625 105.324219 C 101.679688 109.097656 109.234375 120.429688 111.121094 122.320312 C 113.007812 124.207031 114.898438 122.320312 116.789062 120.429688 L 118.675781 118.542969 L 120.5625 116.652344 C 122.453125 114.761719 124.339844 112.875 122.453125 110.988281 C 120.5625 109.097656 109.234375 101.546875 105.457031 97.769531 C 101.679688 93.996094 96.375 89.472656 97.390625 84.539062 C 97.917969 81.960938 98.566406 79.691406 99.132812 77.914062 C 100.085938 75.871094 100.824219 73.792969 101.332031 71.679688 Z M 72.097656 100.914062 " fill-opacity="1" fill-rule="nonzero"/></g><path fill="#ffffff" d="M 84.683594 88.328125 L 88.457031 84.550781 L 120.5625 116.652344 L 116.789062 120.429688 Z M 84.683594 88.328125 " fill-opacity="1" fill-rule="nonzero"/><g clip-path="url(#d63ca5bdd0)"><path fill="#dd2e44" d="M 124 44.417969 C 124 45.03125 123.941406 45.640625 123.820312 46.242188 C 123.703125 46.84375 123.523438 47.429688 123.289062 47.996094 C 123.054688 48.5625 122.765625 49.101562 122.425781 49.613281 C 122.085938 50.121094 121.695312 50.59375 121.261719 51.027344 C 120.828125 51.460938 120.355469 51.847656 119.847656 52.191406 C 119.335938 52.53125 118.796875 52.820312 118.230469 53.054688 C 117.664062 53.289062 117.078125 53.464844 116.476562 53.585938 C 115.875 53.707031 115.269531 53.765625 114.652344 53.765625 C 114.039062 53.765625 113.433594 53.707031 112.832031 53.585938 C 112.230469 53.464844 111.644531 53.289062 111.078125 53.054688 C 110.511719 52.820312 109.972656 52.53125 109.460938 52.191406 C 108.949219 51.847656 108.480469 51.460938 108.042969 51.027344 C 107.609375 50.59375 107.222656 50.121094 106.882812 49.613281 C 106.542969 49.101562 106.253906 48.5625 106.019531 47.996094 C 105.785156 47.429688 105.605469 46.84375 105.488281 46.242188 C 105.367188 45.640625 105.308594 45.03125 105.308594 44.417969 C 105.308594 43.804688 105.367188 43.195312 105.488281 42.59375 C 105.605469 41.992188 105.785156 41.410156 106.019531 40.84375 C 106.253906 40.273438 106.542969 39.734375 106.882812 39.226562 C 107.222656 38.714844 107.609375 38.242188 108.042969 37.808594 C 108.480469 37.375 108.949219 36.988281 109.460938 36.648438 C 109.972656 36.304688 110.511719 36.019531 111.078125 35.785156 C 111.644531 35.546875 112.230469 35.371094 112.832031 35.25 C 113.433594 35.132812 114.039062 35.070312 114.652344 35.070312 C 115.269531 35.070312 115.875 35.132812 116.476562 35.25 C 117.078125 35.371094 117.664062 35.546875 118.230469 35.785156 C 118.796875 36.019531 119.335938 36.304688 119.847656 36.648438 C 120.355469 36.988281 120.828125 37.375 121.261719 37.808594 C 121.695312 38.242188 122.085938 38.714844 122.425781 39.226562 C 122.765625 39.734375 123.054688 40.273438 123.289062 40.84375 C 123.523438 41.410156 123.703125 41.992188 123.820312 42.59375 C 123.941406 43.195312 124 43.804688 124 44.417969 Z M 124 44.417969 " fill-opacity="1" fill-rule="nonzero"/></g></svg>