<svg xmlns="http://www.w3.org/2000/svg" xmlns:xlink="http://www.w3.org/1999/xlink" width="200" zoomAndPan="magnify" viewBox="0 0 150 149.999998" height="200" preserveAspectRatio="xMidYMid meet" version="1.0"><defs><clipPath id="e1ef84c305"><path d="M 26.003906 97 L 56 97 L 56 121.945312 L 26.003906 121.945312 Z M 26.003906 97 " clip-rule="nonzero"/></clipPath><clipPath id="abd2b42949"><path d="M 94 92 L 124 92 L 124 121.945312 L 94 121.945312 Z M 94 92 " clip-rule="nonzero"/></clipPath><clipPath id="ef8016ccb2"><path d="M 56 88 L 94 88 L 94 121.945312 L 56 121.945312 Z M 56 88 " clip-rule="nonzero"/></clipPath><clipPath id="c31af8bebc"><path d="M 58 22.195312 L 68 22.195312 L 68 35 L 58 35 Z M 58 22.195312 " clip-rule="nonzero"/></clipPath></defs><rect x="-15" width="180" fill="#ffffff" y="-15" height="179.999997" fill-opacity="1"/><rect x="-15" width="180" fill="#241e1e" y="-15" height="179.999997" fill-opacity="1"/><g clip-path="url(#e1ef84c305)"><path fill="#ffffff" d="M 26.113281 121.769531 L 55.007812 121.769531 L 55.007812 97.058594 L 26.113281 97.058594 Z M 40.804688 112.414062 C 40.554688 112.121094 40.195312 111.953125 39.8125 111.953125 L 39.691406 111.953125 C 38.570312 111.953125 37.660156 111.042969 37.660156 109.921875 L 37.660156 109.710938 C 37.660156 108.589844 38.570312 107.679688 39.691406 107.679688 C 40.433594 107.679688 41.066406 107.128906 41.101562 106.457031 C 41.121094 106.097656 40.996094 105.753906 40.75 105.496094 C 40.503906 105.234375 40.171875 105.09375 39.8125 105.09375 C 39.097656 105.09375 38.519531 105.671875 38.519531 106.386719 C 38.519531 106.605469 38.429688 106.816406 38.269531 106.96875 C 38.109375 107.121094 37.886719 107.195312 37.671875 107.1875 L 35.167969 107.042969 C 34.746094 107.015625 34.414062 106.667969 34.414062 106.242188 C 34.414062 104.726562 35.058594 103.273438 36.175781 102.25 C 37.3125 101.214844 38.785156 100.730469 40.328125 100.867188 C 41.734375 101 43.011719 101.691406 43.917969 102.820312 C 44.902344 104.050781 45.351562 105.675781 45.148438 107.277344 C 45.027344 108.234375 44.722656 109.070312 44.21875 109.816406 C 44.722656 110.5625 45.027344 111.398438 45.148438 112.355469 C 45.351562 113.957031 44.902344 115.582031 43.917969 116.8125 C 43.011719 117.941406 41.734375 118.636719 40.324219 118.765625 C 40.152344 118.78125 39.976562 118.789062 39.804688 118.789062 C 38.457031 118.789062 37.183594 118.300781 36.175781 117.382812 C 35.058594 116.363281 34.414062 114.90625 34.414062 113.390625 C 34.414062 112.96875 34.746094 112.617188 35.167969 112.59375 L 37.671875 112.445312 C 37.886719 112.433594 38.109375 112.511719 38.269531 112.664062 C 38.429688 112.816406 38.519531 113.027344 38.519531 113.246094 C 38.519531 113.632812 38.6875 113.992188 38.980469 114.238281 C 39.28125 114.488281 39.664062 114.589844 40.050781 114.519531 C 40.5625 114.429688 40.996094 113.996094 41.085938 113.488281 C 41.152344 113.09375 41.054688 112.710938 40.804688 112.414062 Z M 40.804688 112.414062 " fill-opacity="1" fill-rule="nonzero"/></g><path fill="#ffffff" d="M 49.46875 43.152344 C 48.746094 43.996094 48.429688 45.113281 48.601562 46.21875 C 49.453125 51.753906 51.136719 55.886719 56.375 57.886719 L 56.375 56.054688 C 53.359375 54.222656 51.457031 51.445312 50.433594 47.34375 C 50.1875 46.363281 50.402344 45.351562 51.023438 44.558594 C 51.636719 43.773438 52.558594 43.324219 53.550781 43.324219 L 56.375 43.324219 L 56.375 41.859375 L 52.285156 41.859375 C 51.203125 41.859375 50.175781 42.332031 49.46875 43.152344 Z M 49.46875 43.152344 " fill-opacity="1" fill-rule="nonzero"/><path fill="#ffffff" d="M 63.976562 70.707031 C 66.507812 73.128906 69.125 75.636719 70.324219 78.601562 C 70.773438 79.714844 70.640625 80.972656 69.972656 81.964844 C 69.308594 82.945312 68.207031 83.53125 67.023438 83.53125 C 65.042969 83.53125 63.390625 84.941406 63.015625 86.8125 L 87.003906 86.8125 C 86.628906 84.941406 84.976562 83.53125 82.996094 83.53125 C 81.78125 83.53125 80.679688 82.945312 80.015625 81.964844 C 79.347656 80.972656 79.214844 79.714844 79.664062 78.601562 C 80.859375 75.636719 83.480469 73.132812 86.011719 70.707031 C 89.097656 67.753906 92.011719 64.96875 92.011719 61.769531 L 92.011719 38.011719 L 57.976562 38.011719 L 57.976562 61.769531 C 57.976562 64.96875 60.890625 67.753906 63.976562 70.707031 Z M 63.976562 70.707031 " fill-opacity="1" fill-rule="nonzero"/><path fill="#ffffff" d="M 40.328125 116.097656 C 39.476562 116.246094 38.609375 116.015625 37.949219 115.464844 C 37.515625 115.097656 37.203125 114.621094 37.039062 114.089844 L 36.089844 114.140625 C 36.25 114.925781 36.65625 115.652344 37.257812 116.195312 C 38.054688 116.921875 39.089844 117.269531 40.175781 117.167969 C 41.148438 117.078125 42.03125 116.59375 42.664062 115.808594 C 43.382812 114.914062 43.707031 113.730469 43.558594 112.558594 C 43.449219 111.691406 43.136719 110.960938 42.601562 110.332031 C 42.351562 110.035156 42.351562 109.597656 42.601562 109.296875 C 43.136719 108.667969 43.449219 107.941406 43.558594 107.074219 C 43.707031 105.902344 43.382812 104.71875 42.664062 103.824219 C 42.03125 103.035156 41.148438 102.550781 40.175781 102.460938 C 39.089844 102.355469 38.054688 102.707031 37.253906 103.433594 C 36.65625 103.980469 36.25 104.703125 36.089844 105.488281 L 37.039062 105.542969 C 37.402344 104.355469 38.507812 103.488281 39.8125 103.488281 C 40.601562 103.488281 41.367188 103.820312 41.910156 104.390625 C 42.464844 104.972656 42.746094 105.738281 42.703125 106.539062 C 42.621094 108.078125 41.300781 109.28125 39.691406 109.28125 C 39.453125 109.28125 39.261719 109.472656 39.261719 109.710938 L 39.261719 109.921875 C 39.261719 110.15625 39.453125 110.351562 39.691406 110.351562 L 39.8125 110.351562 C 40.667969 110.351562 41.476562 110.726562 42.03125 111.386719 C 42.582031 112.042969 42.8125 112.910156 42.660156 113.765625 C 42.457031 114.933594 41.5 115.890625 40.328125 116.097656 Z M 40.328125 116.097656 " fill-opacity="1" fill-rule="nonzero"/><path fill="#ffffff" d="M 75.527344 107.871094 L 75.527344 95.070312 L 74.53125 95.070312 L 71.742188 96.671875 L 71.742188 98.136719 L 73.21875 97.242188 C 73.46875 97.09375 73.777344 97.089844 74.027344 97.230469 C 74.28125 97.371094 74.4375 97.636719 74.4375 97.925781 L 74.4375 107.871094 C 74.4375 108.3125 74.078125 108.671875 73.632812 108.671875 L 71.742188 108.671875 L 71.742188 109.8125 L 78.28125 109.8125 L 78.28125 108.671875 L 76.328125 108.671875 C 75.886719 108.671875 75.527344 108.3125 75.527344 107.871094 Z M 75.527344 107.871094 " fill-opacity="1" fill-rule="nonzero"/><path fill="#ffffff" d="M 101.390625 46.21875 C 101.558594 45.113281 101.242188 43.996094 100.519531 43.152344 C 99.8125 42.332031 98.785156 41.859375 97.703125 41.859375 L 93.617188 41.859375 L 93.617188 43.324219 L 96.4375 43.324219 C 97.433594 43.324219 98.355469 43.773438 98.96875 44.558594 C 99.585938 45.351562 99.800781 46.367188 99.558594 47.34375 C 98.53125 51.449219 96.628906 54.222656 93.613281 56.054688 L 93.613281 57.890625 C 98.851562 55.886719 100.539062 51.757812 101.390625 46.21875 Z M 101.390625 46.21875 " fill-opacity="1" fill-rule="nonzero"/><g clip-path="url(#abd2b42949)"><path fill="#ffffff" d="M 94.980469 92.890625 L 94.980469 121.769531 L 123.878906 121.769531 L 123.878906 92.890625 Z M 114.21875 111.792969 C 114.660156 111.792969 115.019531 112.148438 115.019531 112.59375 L 115.019531 115.183594 C 115.019531 115.628906 114.660156 115.984375 114.21875 115.984375 L 104.636719 115.984375 C 104.195312 115.984375 103.835938 115.628906 103.835938 115.183594 L 103.835938 113.566406 C 103.835938 111.535156 105.898438 109.761719 107.894531 108.046875 C 109.097656 107.015625 110.59375 105.730469 110.59375 105.066406 C 110.59375 104.425781 110.070312 103.902344 109.429688 103.902344 C 108.785156 103.902344 108.261719 104.425781 108.261719 105.066406 C 108.261719 105.511719 107.902344 105.871094 107.460938 105.871094 L 104.636719 105.871094 C 104.195312 105.871094 103.835938 105.511719 103.835938 105.066406 C 103.835938 101.984375 106.34375 99.476562 109.429688 99.476562 C 112.511719 99.476562 115.019531 101.984375 115.019531 105.066406 C 115.019531 107.378906 113.570312 108.589844 112.171875 109.757812 C 111.445312 110.367188 110.703125 110.988281 110.121094 111.789062 L 114.21875 111.789062 Z M 114.21875 111.792969 " fill-opacity="1" fill-rule="nonzero"/></g><path fill="#ffffff" d="M 111.144531 108.53125 C 112.414062 107.46875 113.417969 106.628906 113.417969 105.070312 C 113.417969 102.867188 111.628906 101.078125 109.429688 101.078125 C 107.503906 101.078125 105.890625 102.449219 105.519531 104.265625 L 106.777344 104.265625 C 107.121094 103.128906 108.179688 102.300781 109.429688 102.300781 C 110.953125 102.300781 112.195312 103.542969 112.195312 105.070312 C 112.195312 106.464844 110.6875 107.761719 108.941406 109.265625 C 107.300781 110.675781 105.4375 112.273438 105.4375 113.566406 L 105.4375 114.382812 L 113.417969 114.382812 L 113.417969 113.394531 L 108.75 113.394531 C 108.484375 113.394531 108.230469 113.257812 108.082031 113.035156 C 107.933594 112.8125 107.90625 112.53125 108.011719 112.28125 C 108.75 110.53125 110.019531 109.46875 111.144531 108.53125 Z M 111.144531 108.53125 " fill-opacity="1" fill-rule="nonzero"/><g clip-path="url(#ef8016ccb2)"><path fill="#ffffff" d="M 62.136719 88.414062 L 56.613281 88.414062 L 56.613281 121.769531 L 93.378906 121.769531 L 93.378906 88.414062 Z M 79.882812 110.613281 C 79.882812 111.054688 79.523438 111.414062 79.082031 111.414062 L 70.941406 111.414062 C 70.496094 111.414062 70.136719 111.054688 70.136719 110.613281 L 70.136719 107.871094 C 70.136719 107.429688 70.496094 107.070312 70.941406 107.070312 L 72.832031 107.070312 L 72.832031 99.351562 L 71.355469 100.246094 C 71.105469 100.398438 70.800781 100.402344 70.546875 100.261719 C 70.292969 100.117188 70.136719 99.851562 70.136719 99.5625 L 70.136719 96.207031 C 70.136719 95.921875 70.292969 95.65625 70.539062 95.511719 L 73.917969 93.574219 C 74.039062 93.503906 74.175781 93.46875 74.316406 93.46875 L 76.328125 93.46875 C 76.769531 93.46875 77.128906 93.824219 77.128906 94.269531 L 77.128906 107.070312 L 79.082031 107.070312 C 79.523438 107.070312 79.882812 107.429688 79.882812 107.871094 Z M 79.882812 110.613281 " fill-opacity="1" fill-rule="nonzero"/></g><path fill="#ffffff" d="M 97.085938 81.675781 C 97.527344 81.675781 97.886719 81.316406 97.886719 80.875 C 97.886719 78.492188 99.136719 75.839844 100.933594 75.839844 C 101.375 75.839844 101.734375 75.480469 101.734375 75.039062 C 101.734375 74.597656 101.375 74.238281 100.933594 74.238281 C 98.933594 74.238281 97.886719 71.714844 97.886719 69.222656 C 97.886719 68.78125 97.527344 68.421875 97.085938 68.421875 C 96.640625 68.421875 96.285156 68.78125 96.285156 69.222656 C 96.285156 71.714844 95.238281 74.238281 93.238281 74.238281 C 92.792969 74.238281 92.433594 74.597656 92.433594 75.039062 C 92.433594 75.480469 92.792969 75.839844 93.238281 75.839844 C 95.03125 75.839844 96.285156 78.492188 96.285156 80.875 C 96.285156 81.316406 96.640625 81.675781 97.085938 81.675781 Z M 95.515625 75.074219 C 96.152344 74.597656 96.683594 73.921875 97.085938 73.085938 C 97.484375 73.921875 98.019531 74.597656 98.65625 75.074219 C 98.007812 75.597656 97.476562 76.332031 97.085938 77.175781 C 96.691406 76.332031 96.164062 75.597656 95.515625 75.074219 Z M 95.515625 75.074219 " fill-opacity="1" fill-rule="nonzero"/><path fill="#ffffff" d="M 54.984375 79.40625 C 52.984375 79.40625 51.9375 76.882812 51.9375 74.390625 C 51.9375 73.949219 51.578125 73.589844 51.136719 73.589844 C 50.691406 73.589844 50.335938 73.949219 50.335938 74.390625 C 50.335938 76.882812 49.289062 79.40625 47.285156 79.40625 C 46.84375 79.40625 46.484375 79.765625 46.484375 80.207031 C 46.484375 80.648438 46.84375 81.007812 47.285156 81.007812 C 49.082031 81.007812 50.335938 83.660156 50.335938 86.042969 C 50.335938 86.484375 50.691406 86.84375 51.136719 86.84375 C 51.578125 86.84375 51.9375 86.484375 51.9375 86.042969 C 51.9375 83.660156 53.1875 81.007812 54.984375 81.007812 C 55.425781 81.007812 55.785156 80.648438 55.785156 80.207031 C 55.785156 79.765625 55.425781 79.40625 54.984375 79.40625 Z M 51.136719 82.34375 C 50.742188 81.5 50.210938 80.765625 49.566406 80.242188 C 50.199219 79.765625 50.734375 79.089844 51.136719 78.257812 C 51.535156 79.089844 52.070312 79.765625 52.707031 80.242188 C 52.058594 80.765625 51.527344 81.5 51.136719 82.34375 Z M 51.136719 82.34375 " fill-opacity="1" fill-rule="nonzero"/><g clip-path="url(#c31af8bebc)"><path fill="#ffffff" d="M 59.128906 29.613281 C 61.222656 29.613281 62.175781 31.808594 62.175781 33.84375 C 62.175781 34.289062 62.535156 34.648438 62.976562 34.648438 C 63.417969 34.648438 63.777344 34.289062 63.777344 33.84375 C 63.777344 31.808594 64.730469 29.613281 66.824219 29.613281 C 67.269531 29.613281 67.625 29.253906 67.625 28.8125 C 67.625 28.371094 67.269531 28.011719 66.824219 28.011719 C 64.824219 28.011719 63.777344 25.488281 63.777344 22.996094 C 63.777344 22.554688 63.417969 22.195312 62.976562 22.195312 C 62.535156 22.195312 62.175781 22.554688 62.175781 22.996094 C 62.175781 25.488281 61.128906 28.011719 59.128906 28.011719 C 58.6875 28.011719 58.328125 28.371094 58.328125 28.8125 C 58.328125 29.253906 58.6875 29.613281 59.128906 29.613281 Z M 62.976562 26.859375 C 63.355469 27.644531 63.847656 28.292969 64.4375 28.761719 C 63.847656 29.175781 63.351562 29.746094 62.976562 30.4375 C 62.601562 29.746094 62.105469 29.175781 61.515625 28.761719 C 62.105469 28.292969 62.601562 27.648438 62.976562 26.859375 Z M 62.976562 26.859375 " fill-opacity="1" fill-rule="nonzero"/></g></svg>