<svg xmlns="http://www.w3.org/2000/svg" xmlns:xlink="http://www.w3.org/1999/xlink" width="200" zoomAndPan="magnify" viewBox="0 0 150 149.999998" height="200" preserveAspectRatio="xMidYMid meet" version="1.0"><defs><g/><clipPath id="1afb655236"><path d="M 19 101 L 129 101 L 129 120.234375 L 19 120.234375 Z M 19 101 " clip-rule="nonzero"/></clipPath></defs><rect x="-15" width="180" fill="#ffffff" y="-15" height="179.999997" fill-opacity="1"/><rect x="-15" width="180" fill="#f6f6b3" y="-15" height="179.999997" fill-opacity="1"/><g clip-path="url(#1afb655236)"><path fill="#d3d3d3" d="M 93.835938 101.992188 C 89.175781 102.261719 84.40625 106.890625 81.296875 110.609375 C 65.507812 109.265625 19.171875 109.167969 19.171875 109.167969 C 19.171875 109.167969 25.777344 120.199219 50.308594 120.199219 C 72.167969 120.199219 80.625 114.445312 86.1875 111.882812 C 87.480469 111.3125 88.851562 110.679688 90.253906 110 C 94.855469 107.769531 103.832031 105.074219 103.832031 105.074219 C 103.832031 105.074219 121.027344 104.855469 127.96875 102.363281 C 134.914062 99.871094 101.6875 101.539062 93.835938 101.992188 Z M 93.835938 101.992188 " fill-opacity="1" fill-rule="nonzero"/></g><path fill="#d3d3d3" d="M 96.03125 114.019531 C 87.070312 117.035156 114.203125 116.027344 114.203125 116.027344 L 112.945312 110.628906 C 112.945312 110.628906 104.988281 111.003906 96.03125 114.019531 Z M 96.03125 114.019531 " fill-opacity="1" fill-rule="nonzero"/><path fill="#20232c" d="M 87.214844 105.609375 C 87.222656 105.601562 87.230469 105.59375 87.234375 105.585938 L 87.199219 104.613281 C 87.183594 104.648438 87.171875 104.667969 87.171875 104.667969 Z M 87.214844 105.609375 " fill-opacity="1" fill-rule="nonzero"/><path fill="#20232c" d="M 37.300781 104.136719 C 23.140625 112.15625 17.066406 103.832031 16.757812 103.390625 C 16.761719 103.410156 16.765625 103.433594 16.765625 103.453125 C 17.421875 106.035156 18.996094 108.945312 23.347656 111.292969 C 28.796875 114.230469 37.753906 115.886719 50.730469 116.351562 C 51.839844 116.390625 52.9375 116.410156 54.019531 116.410156 C 59.214844 116.410156 64.050781 115.953125 68.421875 115.039062 C 72.652344 114.15625 76.464844 112.851562 79.753906 111.15625 C 84.152344 108.894531 86.375 105.605469 87.171875 104.667969 C 87.171875 104.667969 86.265625 91.570312 86.1875 89.625 C 85.710938 89.351562 85.214844 89.058594 84.6875 88.75 C 83.769531 88.207031 82.773438 87.621094 81.675781 87.019531 C 81.675781 87.019531 71.882812 80.648438 53.320312 80.605469 C 49.289062 80.640625 45.484375 80.949219 41.953125 81.519531 C 52.480469 88.308594 47.261719 98.496094 37.300781 104.136719 Z M 37.300781 104.136719 " fill-opacity="1" fill-rule="nonzero"/><path fill="#0f1112" d="M 87.171875 104.667969 C 86.375 105.605469 84.152344 108.894531 79.753906 111.15625 C 76.464844 112.851562 72.652344 114.15625 68.421875 115.039062 C 64.050781 115.953125 59.214844 116.410156 54.019531 116.410156 C 52.9375 116.410156 51.839844 116.390625 50.726562 116.351562 C 37.753906 115.886719 28.796875 114.230469 23.347656 111.292969 C 18.996094 108.945312 17.421875 106.035156 16.765625 103.453125 C 16.761719 103.425781 16.753906 103.398438 16.746094 103.371094 C 17.433594 106.902344 18.929688 109.828125 22.96875 112.976562 C 28.105469 116.980469 38.78125 119.203125 50.523438 119.203125 C 63.269531 119.203125 72.933594 117.667969 79.238281 114.644531 C 83.773438 112.46875 85.886719 109.90625 87.316406 107.804688 L 87.214844 105.609375 Z M 87.171875 104.667969 " fill-opacity="1" fill-rule="nonzero"/><path fill="#aa7f57" d="M 130.917969 95.566406 C 130.917969 95.566406 130.261719 96.957031 119.578125 96.957031 C 108.898438 96.957031 88.257812 96.957031 88.257812 96.957031 C 88.257812 96.957031 92.542969 97.679688 96.984375 98.507812 C 90.460938 98.703125 87.511719 104.015625 87.199219 104.613281 L 87.234375 105.585938 L 87.316406 107.804688 C 87.457031 107.589844 87.867188 106.96875 88 106.769531 C 88.164062 106.511719 88.324219 106.265625 88.480469 106.035156 C 89.972656 103.804688 91.714844 103.171875 92.855469 102.742188 C 94.070312 102.285156 95.285156 102.332031 95.359375 102.335938 L 101.542969 102.480469 L 113.335938 102.453125 C 120.605469 102.503906 122.957031 102.566406 124.027344 102.632812 C 124.726562 102.675781 126.488281 102.601562 127.1875 102.535156 C 128.460938 102.410156 130.519531 101.355469 130.859375 98.90625 C 131.015625 97.792969 130.914062 98.011719 130.96875 96.425781 C 130.976562 96.144531 130.960938 95.855469 130.917969 95.566406 Z M 130.917969 95.566406 " fill-opacity="1" fill-rule="nonzero"/><path fill="#aa7f57" d="M 91.421875 91.460938 L 87.746094 91.675781 L 118.777344 90.058594 L 113.335938 90.320312 C 113.332031 90.320312 113.332031 90.316406 113.332031 90.3125 C 112.511719 90.359375 97.597656 91.074219 92.800781 91.316406 C 91.988281 91.355469 91.464844 91.382812 91.351562 91.394531 C 89.867188 91.503906 88.058594 90.671875 86.1875 89.625 C 89.402344 91.589844 91.421875 91.460938 91.421875 91.460938 Z M 91.421875 91.460938 " fill-opacity="1" fill-rule="nonzero"/><path fill="#c1946a" d="M 88.257812 96.957031 C 88.257812 96.957031 108.898438 96.957031 119.578125 96.957031 C 130.261719 96.957031 130.917969 95.566406 130.917969 95.566406 C 130.902344 93.546875 129.398438 90.273438 128.683594 89.820312 C 128.058594 89.421875 118.777344 90.058594 118.777344 90.058594 L 87.746094 91.675781 Z M 88.257812 96.957031 " fill-opacity="1" fill-rule="nonzero"/><path fill="#d8aa82" d="M 87.199219 104.613281 C 87.511719 104.015625 90.460938 98.703125 96.984375 98.507812 C 92.542969 97.679688 88.257812 96.957031 88.257812 96.957031 L 87.746094 91.675781 L 91.421875 91.460938 C 91.421875 91.460938 89.402344 91.589844 86.1875 89.625 C 86.265625 91.570312 87.171875 104.667969 87.171875 104.667969 C 87.171875 104.667969 87.183594 104.648438 87.199219 104.613281 Z M 87.199219 104.613281 " fill-opacity="1" fill-rule="nonzero"/><path fill="#292d38" d="M 37.300781 104.136719 C 47.261719 98.496094 52.480469 88.308594 41.953125 81.519531 C 22.707031 84.179688 14.917969 94.703125 16.746094 103.371094 C 16.746094 103.371094 16.75 103.378906 16.757812 103.390625 C 17.066406 103.832031 23.140625 112.15625 37.300781 104.136719 Z M 37.300781 104.136719 " fill-opacity="1" fill-rule="nonzero"/><path fill="#0f1112" d="M 53.6875 80.601562 C 53.6875 80.601562 64.28125 93.105469 84.6875 88.75 C 82.527344 87.496094 70.710938 79.453125 53.6875 80.601562 Z M 53.6875 80.601562 " fill-opacity="1" fill-rule="nonzero"/><path fill="#cda376" d="M 102.007812 102.351562 C 102.019531 102.355469 102.035156 102.359375 102.050781 102.363281 C 100.53125 100.164062 99.007812 97.960938 97.660156 96 C 99.757812 99.082031 101.722656 101.960938 102.007812 102.351562 Z M 102.007812 102.351562 " fill-opacity="1" fill-rule="nonzero"/><path fill="#c1946a" d="M 95.335938 77.601562 L 88.257812 80.90625 C 88.289062 80.957031 90.910156 85.109375 92.917969 88.058594 C 92.917969 88.058594 92.914062 88.054688 92.914062 88.054688 C 93.550781 88.707031 94.28125 89.566406 95.078125 90.691406 C 97.5 94.105469 111.613281 111.171875 111.613281 111.171875 C 111.613281 111.171875 111.617188 111.171875 111.617188 111.171875 C 111.714844 111.078125 111.808594 110.984375 111.902344 110.894531 C 112.269531 110.503906 112.730469 110.089844 113.3125 109.65625 C 113.730469 109.335938 114.199219 109.027344 114.792969 108.679688 C 115.238281 108.417969 115.71875 108.15625 116.234375 107.894531 C 116.394531 107.8125 116.554688 107.734375 116.710938 107.65625 C 118.34375 106.855469 119.710938 106.34375 120.84375 106.152344 C 120.847656 106.152344 120.847656 106.152344 120.851562 106.148438 C 120.863281 106.148438 120.875 106.144531 120.886719 106.144531 C 121.019531 106.121094 121.152344 106.101562 121.273438 106.085938 C 121.429688 106.074219 121.582031 106.066406 121.730469 106.066406 C 122.304688 106.0625 122.808594 106.164062 123.242188 106.386719 C 123.542969 106.539062 123.703125 106.660156 123.871094 106.847656 C 123.867188 106.835938 123.859375 106.824219 123.855469 106.816406 C 122.960938 104.941406 121 102.945312 119.535156 101.53125 C 116.195312 98.15625 107.566406 89.429688 107.261719 89.128906 L 107.253906 89.132812 C 106.847656 88.726562 106.457031 88.332031 106.070312 87.949219 C 104.425781 86.316406 102.953125 84.859375 101.875 83.789062 C 101.5625 83.480469 101.261719 83.183594 100.96875 82.902344 C 100.96875 82.921875 100.964844 82.941406 100.964844 82.964844 C 97.21875 79.308594 95.363281 77.625 95.335938 77.601562 Z M 95.335938 77.601562 " fill-opacity="1" fill-rule="nonzero"/><path fill="#d8aa82" d="M 88.257812 80.90625 L 95.335938 77.601562 C 95.363281 77.625 97.21875 79.308594 100.964844 82.964844 C 100.203125 81.605469 100.878906 79.382812 101.984375 77.195312 C 102.167969 76.789062 102.371094 76.375 102.597656 75.957031 C 103 75.207031 103.601562 74.332031 104.207031 73.507812 C 105.132812 72.171875 105.964844 71.144531 106.3125 70.773438 L 75.089844 85.496094 C 75.386719 85.453125 76.316406 85.347656 77.285156 85.25 C 77.730469 85.183594 78.101562 85.136719 78.238281 85.160156 C 78.355469 85.148438 78.46875 85.140625 78.582031 85.128906 C 78.578125 85.128906 78.578125 85.128906 78.578125 85.128906 C 79.660156 85.058594 80.921875 84.875 82.238281 84.90625 C 85 84.976562 88.421875 85.191406 90.308594 86.070312 C 90.308594 86.070312 91.320312 86.421875 92.914062 88.054688 C 92.914062 88.054688 92.917969 88.054688 92.917969 88.058594 C 90.910156 85.109375 88.289062 80.957031 88.257812 80.90625 Z M 88.257812 80.90625 " fill-opacity="1" fill-rule="nonzero"/><path fill="#4f1110" d="M 74.996094 85.507812 L 74.726562 85.535156 L 74.394531 85.539062 C 73.046875 85.609375 70.074219 85.636719 66.476562 84.863281 C 66.324219 84.832031 66.175781 84.800781 66.019531 84.765625 C 65.988281 84.757812 65.960938 84.75 65.929688 84.742188 C 65.789062 84.710938 65.648438 84.675781 65.511719 84.640625 C 65.480469 84.632812 65.453125 84.628906 65.425781 84.621094 C 62.636719 83.921875 60.019531 82.855469 57.648438 81.453125 C 57.207031 81.191406 56.773438 80.917969 56.351562 80.632812 C 53.886719 78.914062 51.160156 76.601562 49.460938 74.019531 C 47.601562 71.195312 46.398438 68.542969 45.671875 66.296875 C 45.421875 65.527344 45.226562 64.804688 45.082031 64.136719 C 45.070312 64.089844 45.0625 64.039062 45.050781 63.992188 C 46.046875 70.617188 48.847656 76.316406 53.6875 80.601562 C 57.0625 83.640625 61.308594 85.894531 66.316406 87.214844 C 69.773438 88.226562 72.617188 88.085938 75.273438 87.695312 L 75.035156 85.5 Z M 74.996094 85.507812 " fill-opacity="1" fill-rule="nonzero"/><path fill="#aa7f57" d="M 104.207031 73.507812 C 103.457031 74.597656 102.644531 75.890625 101.984375 77.195312 C 100.878906 79.382812 100.203125 81.605469 100.964844 82.964844 C 100.964844 82.941406 100.96875 82.921875 100.96875 82.902344 C 101.167969 80.917969 102.867188 78.453125 104.59375 76.273438 C 105.273438 75.414062 105.507812 75.171875 106.214844 74.296875 C 106.792969 73.574219 106.921875 73.472656 107.023438 73.300781 L 106.3125 70.773438 C 105.964844 71.144531 105.132812 72.171875 104.207031 73.507812 Z M 104.207031 73.507812 " fill-opacity="1" fill-rule="nonzero"/><path fill="#4f1110" d="M 106.3125 70.773438 L 107.023438 73.300781 C 108.3125 71.054688 109.171875 68.882812 109.078125 64.757812 C 109.070312 64.445312 108.964844 63.589844 108.792969 62.574219 C 108.789062 62.589844 108.789062 62.601562 108.789062 62.617188 C 109.226562 66.988281 106.578125 70.367188 106.3125 70.773438 Z M 106.3125 70.773438 " fill-opacity="1" fill-rule="nonzero"/><path fill="#a12021" d="M 49.460938 74.019531 C 51.160156 76.605469 53.886719 78.914062 56.351562 80.632812 C 56.773438 80.917969 57.207031 81.191406 57.648438 81.453125 C 60.019531 82.855469 62.636719 83.921875 65.425781 84.621094 C 65.453125 84.628906 65.480469 84.632812 65.511719 84.640625 C 65.648438 84.675781 65.789062 84.710938 65.929688 84.742188 C 66.113281 84.785156 66.296875 84.824219 66.476562 84.863281 C 70.074219 85.636719 73.046875 85.609375 74.394531 85.539062 L 74.726562 85.535156 L 74.996094 85.507812 L 77.226562 84.46875 C 77.230469 84.46875 77.230469 84.46875 77.234375 84.472656 L 106.3125 70.773438 C 106.578125 70.367188 109.226562 66.988281 108.789062 62.617188 C 108.738281 62.089844 108.636719 61.546875 108.484375 60.992188 C 107.882812 58.691406 106.667969 55.617188 104.226562 52.390625 C 103.394531 51.289062 102.472656 50.25 101.476562 49.273438 C 101.472656 51.285156 99.089844 65.21875 75.089844 65.21875 C 52.765625 65.21875 48.382812 51.523438 48.113281 50.59375 C 46.175781 53.367188 45.035156 56.367188 44.816406 59.265625 L 44.820312 59.265625 C 44.820312 59.285156 44.476562 61.347656 45.082031 64.136719 C 45.21875 64.757812 45.414062 65.492188 45.671875 66.296875 C 46.398438 68.542969 47.601562 71.195312 49.460938 74.019531 Z M 49.460938 74.019531 " fill-opacity="1" fill-rule="nonzero"/><path fill="#d8aa82" d="M 111.003906 115.277344 C 111.023438 115.300781 111.035156 115.316406 111.035156 115.316406 C 111.097656 115.382812 111.171875 115.449219 111.257812 115.519531 C 111.164062 115.441406 111.078125 115.363281 111.003906 115.277344 Z M 111.003906 115.277344 " fill-opacity="1" fill-rule="nonzero"/><path fill="#d8aa82" d="M 111.410156 115.628906 C 111.367188 115.601562 111.328125 115.570312 111.289062 115.542969 C 111.324219 115.570312 111.367188 115.597656 111.410156 115.628906 Z M 111.410156 115.628906 " fill-opacity="1" fill-rule="nonzero"/><path fill="#d8aa82" d="M 120.898438 112.960938 C 120.707031 113.097656 120.410156 113.300781 120.035156 113.539062 C 120.339844 113.351562 120.625 113.15625 120.898438 112.960938 Z M 120.898438 112.960938 " fill-opacity="1" fill-rule="nonzero"/><path fill="#d8aa82" d="M 124.242188 107.886719 C 124.238281 107.519531 124.121094 107.164062 123.902344 106.875 C 123.886719 106.855469 123.871094 106.835938 123.855469 106.816406 C 123.859375 106.824219 123.867188 106.835938 123.871094 106.847656 C 123.703125 106.660156 123.542969 106.539062 123.242188 106.386719 C 122.824219 106.171875 122.296875 106.070312 121.730469 106.066406 C 121.582031 106.066406 121.429688 106.074219 121.273438 106.085938 C 121.148438 106.101562 121.019531 106.121094 120.886719 106.144531 C 120.875 106.144531 120.863281 106.148438 120.851562 106.148438 C 120.847656 106.152344 120.847656 106.152344 120.84375 106.152344 C 119.8125 106.339844 118.488281 106.796875 116.710938 107.65625 C 116.554688 107.734375 116.394531 107.8125 116.234375 107.894531 C 115.71875 108.15625 115.238281 108.417969 114.792969 108.679688 C 114.230469 109.011719 113.738281 109.339844 113.3125 109.65625 C 112.730469 110.089844 112.269531 110.503906 111.898438 110.894531 C 111.8125 110.992188 111.726562 111.085938 111.648438 111.179688 C 112.164062 111.28125 118.519531 112.476562 123.746094 109.808594 C 123.433594 110.492188 122.382812 111.84375 121.050781 112.847656 C 122.902344 111.464844 124.011719 109.902344 124.207031 108.484375 C 124.234375 108.28125 124.246094 108.082031 124.242188 107.886719 Z M 124.242188 107.886719 " fill-opacity="1" fill-rule="nonzero"/><path fill="#d8aa82" d="M 111.210938 111.773438 C 110.957031 112.210938 110.664062 112.847656 110.59375 113.546875 C 110.683594 112.882812 110.960938 112.230469 111.210938 111.773438 Z M 111.210938 111.773438 " fill-opacity="1" fill-rule="nonzero"/><path fill="#cda376" d="M 102.007812 102.421875 C 105.664062 107.777344 109.476562 113.09375 110.71875 114.828125 C 109.535156 113.167969 105.8125 107.804688 102.082031 102.410156 Z M 102.007812 102.421875 " fill-opacity="1" fill-rule="nonzero"/><path fill="#aa7f57" d="M 110.59375 113.546875 C 110.664062 112.847656 110.957031 112.210938 111.210938 111.773438 C 111.378906 111.46875 111.53125 111.25 111.613281 111.171875 C 111.613281 111.171875 97.5 94.105469 95.078125 90.691406 C 94.28125 89.566406 93.550781 88.707031 92.914062 88.054688 C 91.320312 86.421875 90.308594 86.070312 90.308594 86.070312 C 88.421875 85.191406 85 84.976562 82.238281 84.90625 C 80.921875 84.875 79.660156 85.058594 78.578125 85.128906 C 78.578125 85.128906 78.578125 85.128906 78.582031 85.128906 C 78.46875 85.140625 78.355469 85.148438 78.238281 85.160156 C 77.929688 85.1875 77.605469 85.21875 77.285156 85.25 C 76.316406 85.347656 75.386719 85.453125 75.089844 85.496094 C 75.070312 85.496094 75.050781 85.5 75.035156 85.5 L 75.273438 87.695312 C 75.921875 87.597656 76.835938 87.445312 77.46875 87.335938 C 78.726562 87.117188 80.464844 86.859375 81.734375 86.738281 C 81.515625 86.621094 81.308594 86.503906 81.105469 86.382812 C 81.332031 86.5 81.550781 86.621094 81.769531 86.738281 C 84.460938 86.546875 87.984375 86.789062 91.554688 88.441406 C 92.523438 88.984375 93.351562 89.746094 93.980469 90.660156 C 94.820312 91.882812 96.128906 93.785156 97.660156 96 C 99.007812 97.960938 100.53125 100.164062 102.050781 102.363281 C 102.0625 102.378906 102.074219 102.394531 102.082031 102.410156 C 105.8125 107.804688 109.535156 113.167969 110.71875 114.828125 C 110.722656 114.832031 110.726562 114.835938 110.730469 114.839844 C 110.554688 114.441406 110.53125 113.992188 110.59375 113.546875 Z M 110.59375 113.546875 " fill-opacity="1" fill-rule="nonzero"/><path fill="#a9252c" d="M 75.089844 65.21875 C 99.089844 65.21875 101.472656 51.285156 101.476562 49.273438 C 101.476562 49.273438 101.476562 49.273438 101.476562 49.269531 C 93.324219 40.574219 63.847656 29.523438 48.097656 50.542969 C 48.097656 50.542969 48.101562 50.558594 48.113281 50.59375 C 48.382812 51.523438 52.765625 65.21875 75.089844 65.21875 Z M 75.089844 65.21875 " fill-opacity="1" fill-rule="nonzero"/><path fill="#cc9f7a" d="M 123.746094 109.808594 C 118.519531 112.476562 112.164062 111.28125 111.648438 111.179688 C 111.632812 111.175781 111.621094 111.171875 111.617188 111.171875 C 111.617188 111.171875 111.613281 111.171875 111.613281 111.171875 C 111.53125 111.25 111.378906 111.46875 111.210938 111.773438 C 110.960938 112.230469 110.683594 112.882812 110.59375 113.546875 C 110.53125 113.992188 110.554688 114.441406 110.730469 114.839844 C 110.796875 114.996094 110.886719 115.140625 111.003906 115.277344 C 111.078125 115.363281 111.164062 115.441406 111.257812 115.519531 C 111.265625 115.523438 111.273438 115.53125 111.285156 115.539062 C 111.285156 115.539062 111.285156 115.539062 111.289062 115.539062 C 111.328125 115.570312 111.367188 115.597656 111.410156 115.628906 C 113.710938 117.152344 118.011719 114.832031 120.035156 113.539062 C 120.410156 113.300781 120.707031 113.097656 120.898438 112.960938 C 120.960938 112.917969 121.011719 112.878906 121.046875 112.851562 C 121.050781 112.847656 121.050781 112.847656 121.050781 112.847656 C 122.382812 111.84375 123.433594 110.492188 123.746094 109.808594 Z M 123.746094 109.808594 " fill-opacity="1" fill-rule="nonzero"/><path fill="#896345" d="M 98.851562 102.410156 L 97.371094 96.957031 L 98.316406 96.957031 L 102.050781 102.5 Z M 98.851562 102.410156 " fill-opacity="1" fill-rule="nonzero"/><path fill="#9b7250" d="M 97.371094 96.957031 L 93.972656 91.222656 L 94.367188 91.222656 L 98.316406 96.957031 Z M 97.371094 96.957031 " fill-opacity="1" fill-rule="nonzero"/><path fill="#ffffff" d="M 59.785156 92.886719 C 62.445312 94.507812 67.917969 94.390625 69.539062 93.59375 C 70.488281 92.222656 71.042969 90.5625 71.042969 88.773438 C 71.042969 84.085938 67.234375 80.285156 62.539062 80.285156 C 58.988281 80.285156 55.949219 82.457031 54.671875 85.539062 C 54.84375 87.050781 55.699219 90.390625 59.785156 92.886719 Z M 59.785156 92.886719 " fill-opacity="1" fill-rule="nonzero"/><path fill="#c4c4c4" d="M 62.539062 97.265625 C 65.441406 97.265625 68.007812 95.8125 69.539062 93.59375 C 67.917969 94.390625 62.445312 94.507812 59.785156 92.886719 C 55.699219 90.390625 54.84375 87.050781 54.671875 85.539062 C 54.261719 86.535156 54.035156 87.628906 54.035156 88.773438 C 54.035156 93.464844 57.84375 97.265625 62.539062 97.265625 Z M 62.539062 97.265625 " fill-opacity="1" fill-rule="nonzero"/><g fill="#f6f6b3" fill-opacity="1"><g transform="translate(60.637469, 14.750025)"><g><path d="M 2.125 0.078125 C 1.789062 0.078125 1.488281 -0.00390625 1.21875 -0.171875 C 0.957031 -0.335938 0.753906 -0.585938 0.609375 -0.921875 C 0.460938 -1.253906 0.390625 -1.664062 0.390625 -2.15625 C 0.390625 -2.644531 0.460938 -3.054688 0.609375 -3.390625 C 0.765625 -3.722656 0.976562 -3.972656 1.25 -4.140625 C 1.519531 -4.304688 1.832031 -4.390625 2.1875 -4.390625 C 2.457031 -4.390625 2.6875 -4.34375 2.875 -4.25 C 3.070312 -4.15625 3.238281 -4.015625 3.375 -3.828125 L 3.46875 -3.84375 L 3.46875 -6.046875 L 4.546875 -6.046875 L 4.546875 0 L 3.46875 0 L 3.46875 -0.5625 L 3.375 -0.578125 C 3.257812 -0.367188 3.097656 -0.207031 2.890625 -0.09375 C 2.679688 0.0195312 2.425781 0.078125 2.125 0.078125 Z M 2.484375 -0.84375 C 2.785156 -0.84375 3.023438 -0.945312 3.203125 -1.15625 C 3.378906 -1.375 3.46875 -1.707031 3.46875 -2.15625 C 3.46875 -2.59375 3.378906 -2.921875 3.203125 -3.140625 C 3.023438 -3.359375 2.785156 -3.46875 2.484375 -3.46875 C 2.160156 -3.46875 1.914062 -3.363281 1.75 -3.15625 C 1.582031 -2.945312 1.5 -2.613281 1.5 -2.15625 C 1.5 -1.695312 1.582031 -1.363281 1.75 -1.15625 C 1.914062 -0.945312 2.160156 -0.84375 2.484375 -0.84375 Z M 2.484375 -0.84375 "/></g></g><g transform="translate(65.801547, 14.750025)"><g><path d="M 2.5 0.078125 C 2.082031 0.078125 1.710938 -0.00390625 1.390625 -0.171875 C 1.078125 -0.347656 0.832031 -0.601562 0.65625 -0.9375 C 0.476562 -1.269531 0.390625 -1.675781 0.390625 -2.15625 C 0.390625 -2.625 0.476562 -3.023438 0.65625 -3.359375 C 0.832031 -3.703125 1.078125 -3.957031 1.390625 -4.125 C 1.710938 -4.300781 2.082031 -4.390625 2.5 -4.390625 C 2.925781 -4.390625 3.296875 -4.300781 3.609375 -4.125 C 3.929688 -3.957031 4.179688 -3.703125 4.359375 -3.359375 C 4.535156 -3.023438 4.625 -2.625 4.625 -2.15625 C 4.625 -1.675781 4.535156 -1.269531 4.359375 -0.9375 C 4.179688 -0.601562 3.929688 -0.347656 3.609375 -0.171875 C 3.296875 -0.00390625 2.925781 0.078125 2.5 0.078125 Z M 2.5 -0.84375 C 3.175781 -0.84375 3.515625 -1.28125 3.515625 -2.15625 C 3.515625 -2.613281 3.425781 -2.945312 3.25 -3.15625 C 3.082031 -3.363281 2.832031 -3.46875 2.5 -3.46875 C 1.832031 -3.46875 1.5 -3.03125 1.5 -2.15625 C 1.5 -1.28125 1.832031 -0.84375 2.5 -0.84375 Z M 2.5 -0.84375 "/></g></g><g transform="translate(70.809374, 14.750025)"><g><path d="M 0.625 0 L 0.625 -4.3125 L 1.65625 -4.3125 L 1.65625 -3.734375 L 1.75 -3.71875 C 1.882812 -3.945312 2.046875 -4.113281 2.234375 -4.21875 C 2.421875 -4.332031 2.664062 -4.390625 2.96875 -4.390625 C 3.289062 -4.390625 3.550781 -4.320312 3.75 -4.1875 C 3.945312 -4.0625 4.09375 -3.878906 4.1875 -3.640625 L 4.265625 -3.640625 C 4.398438 -3.890625 4.570312 -4.078125 4.78125 -4.203125 C 4.988281 -4.328125 5.25 -4.390625 5.5625 -4.390625 C 6.457031 -4.390625 6.90625 -3.894531 6.90625 -2.90625 L 6.90625 0 L 5.8125 0 L 5.8125 -2.765625 C 5.8125 -3.015625 5.757812 -3.195312 5.65625 -3.3125 C 5.5625 -3.425781 5.40625 -3.484375 5.1875 -3.484375 C 4.59375 -3.484375 4.296875 -3.082031 4.296875 -2.28125 L 4.296875 0 L 3.21875 0 L 3.21875 -2.765625 C 3.21875 -3.015625 3.164062 -3.195312 3.0625 -3.3125 C 2.96875 -3.425781 2.8125 -3.484375 2.59375 -3.484375 C 2.3125 -3.484375 2.09375 -3.390625 1.9375 -3.203125 C 1.78125 -3.015625 1.703125 -2.71875 1.703125 -2.3125 L 1.703125 0 Z M 0.625 0 "/></g></g></g></svg>