<svg width="26" height="26" viewBox="0 0 26 26" fill="none" xmlns="http://www.w3.org/2000/svg">
<path d="M21.0469 16.8956L21.0468 16.8955L21.0409 16.9015C20.475 17.4686 19.8453 17.967 19.165 18.387L9.67943 8.9014C10.4753 7.97615 11.0273 6.85911 11.2755 5.65221C11.5315 4.40723 11.4527 3.12255 11.0555 1.92693C12.6154 1.16572 14.3655 0.861263 16.1017 1.05851C18.1162 1.28738 19.9976 2.1788 21.4506 3.5927C22.3037 4.45085 22.9707 5.47566 23.4101 6.60316C23.8503 7.73297 24.0524 8.94155 24.0037 10.1531L24.0035 10.1589C23.9161 12.7 22.858 15.1109 21.0469 16.8956ZM5.78062 17.0779L5.8536 17.0273L5.91653 16.9647C6.14902 16.7334 6.29948 16.4325 6.34499 16.1077C6.38875 15.7954 6.33317 15.4777 6.18665 15.1992C5.60795 13.9973 5.27536 12.6949 5.20497 11.3685C5.52852 11.3209 5.8486 11.2514 6.16299 11.1604L14.7878 19.7887C13.0846 19.8957 11.3714 19.5601 9.82018 18.7995C9.51976 18.6508 9.17859 18.6055 8.84971 18.6708C8.51943 18.7363 8.22023 18.9095 7.99902 19.1634L7.96414 19.2034L7.93369 19.2469L5.1105 23.28C4.9083 23.4992 4.66584 23.6777 4.39616 23.8057C4.11688 23.9383 3.81409 24.0141 3.5054 24.0286C2.9637 24.0238 2.44515 23.8068 2.06128 23.4239L2.05231 23.4149L2.04311 23.4062L1.58443 22.9712C1.38968 22.7809 1.23714 22.5517 1.13674 22.2985C1.03719 22.0474 0.991113 21.7784 1.00141 21.5086C1.0274 21.1637 1.12461 20.8278 1.28695 20.5223C1.44714 20.2208 1.66726 19.9553 1.9337 19.7421L5.78062 17.0779ZM4.16959 7.36202C3.54328 7.36202 2.93104 7.1763 2.41028 6.82834C1.88953 6.48039 1.48365 5.98582 1.24397 5.40719C1.00429 4.82855 0.941583 4.19184 1.06377 3.57757C1.18596 2.9633 1.48755 2.39905 1.93042 1.95618C2.37328 1.51332 2.93753 1.21172 3.5518 1.08954C4.16608 0.96735 4.80279 1.03006 5.38142 1.26974C5.96005 1.50942 6.45462 1.9153 6.80258 2.43605C7.15054 2.95681 7.33626 3.56905 7.33626 4.19536C7.33626 5.03521 7.00263 5.84066 6.40876 6.43453C5.8149 7.02839 5.00944 7.36202 4.16959 7.36202Z" stroke="black" stroke-width="2"/>
</svg>
