<svg width="35" height="36" viewBox="0 0 35 36" fill="none" xmlns="http://www.w3.org/2000/svg">
<rect x="1" y="1" width="33" height="34" rx="4" stroke="black" stroke-width="2"/>
<path d="M12.88 25V23.28H16.74C17.7667 23.28 18.6667 23.06 19.44 22.62C20.2133 22.1667 20.8133 21.5467 21.24 20.76C21.68 19.9733 21.9 19.0667 21.9 18.04C21.9 17.0267 21.68 16.1267 21.24 15.34C20.8 14.5533 20.1933 13.94 19.42 13.5C18.6467 13.06 17.7533 12.84 16.74 12.84H12.9V11.12H16.78C17.7933 11.12 18.7267 11.2933 19.58 11.64C20.4467 11.9867 21.1933 12.4733 21.82 13.1C22.46 13.7267 22.9533 14.46 23.3 15.3C23.66 16.14 23.84 17.06 23.84 18.06C23.84 19.0467 23.66 19.9667 23.3 20.82C22.9533 21.66 22.4667 22.3933 21.84 23.02C21.2133 23.6467 20.4667 24.1333 19.6 24.48C18.7467 24.8267 17.82 25 16.82 25H12.88ZM11.64 25V11.12H13.52V25H11.64Z" fill="black"/>
</svg>
