<svg width="26" height="26" viewBox="0 0 26 26" fill="none" xmlns="http://www.w3.org/2000/svg">
<path d="M21.3978 17.2517L21.3948 17.2547C20.7077 17.9433 19.9309 18.5353 19.0858 19.0149L8.98658 8.91565C9.89648 7.99475 10.5234 6.82704 10.7857 5.55149C11.0527 4.25303 10.9285 2.90816 10.4342 1.68555C12.1774 0.731216 14.1764 0.336561 16.1581 0.561703C18.2841 0.803243 20.2696 1.74444 21.8023 3.23729C22.7052 4.14477 23.4112 5.22882 23.8759 6.42162C24.3412 7.6156 24.5548 8.89281 24.5033 10.1732L24.5032 10.1761C24.4114 12.845 23.3 15.3773 21.3978 17.2517ZM5.49594 16.6668L5.53243 16.6415L5.5639 16.6102C5.71904 16.4559 5.81946 16.255 5.84983 16.0383C5.8794 15.8273 5.841 15.6125 5.74046 15.425C5.06181 14.0189 4.70426 12.4815 4.69121 10.9239C5.23966 10.8798 5.78087 10.7687 6.30267 10.5929L15.873 20.1671C13.7447 20.5217 11.5502 20.2048 9.5995 19.2482C9.39758 19.1479 9.16814 19.1173 8.94699 19.1612L9.04426 19.6517L8.94698 19.1612C8.72529 19.2052 8.52446 19.3215 8.37597 19.4919L8.35853 19.5119L8.34331 19.5336L5.50176 23.593C5.25155 23.8711 4.94869 24.0969 4.61059 24.2574C4.26726 24.4204 3.89469 24.5126 3.51505 24.5287C2.83746 24.5264 2.18802 24.2566 1.70814 23.7778L1.70826 23.7777L1.69906 23.769L1.23784 23.3316C0.991552 23.0917 0.798712 22.8024 0.671954 22.4828C0.54561 22.1642 0.487765 21.8226 0.502153 21.4802C0.532297 21.0632 0.649199 20.657 0.845399 20.2877L0.403849 20.0531L0.8454 20.2877C1.04041 19.9206 1.30946 19.5981 1.63548 19.3405L5.49594 16.6668ZM4.16959 7.86202C3.44439 7.86202 2.73548 7.64698 2.1325 7.24408C1.52952 6.84118 1.05955 6.26852 0.782032 5.59853C0.50451 4.92853 0.431898 4.19129 0.573377 3.48003C0.714856 2.76876 1.06407 2.11542 1.57687 1.60263C2.08966 1.08984 2.743 0.740623 3.45426 0.599144C4.16552 0.457664 4.90277 0.530277 5.57276 0.807798C6.24276 1.08532 6.81541 1.55529 7.21831 2.15827C7.62121 2.76125 7.83626 3.47016 7.83626 4.19536C7.83626 5.16782 7.44995 6.10045 6.76232 6.78808C6.07468 7.47572 5.14205 7.86202 4.16959 7.86202Z" stroke="#EEEEEE"/>
</svg>
