<svg width="45" height="45" viewBox="0 0 45 45" fill="none" xmlns="http://www.w3.org/2000/svg">
<path d="M38.7437 35.1956C38.7437 35.1956 36.5712 37.3294 36.0388 37.9549C35.1715 38.8804 34.1497 39.3175 32.8101 39.3175C32.6813 39.3175 32.5439 39.3175 32.4151 39.3089C29.8648 39.1461 27.4948 38.152 25.7173 37.3037C20.8571 34.9556 16.5894 31.6222 13.043 27.3974C10.1148 23.8754 8.15702 20.6191 6.86039 17.1228C6.06181 14.989 5.76985 13.3265 5.89866 11.7583C5.98453 10.7557 6.37094 9.92446 7.08365 9.21321L10.0118 6.29104C10.4326 5.89685 10.8791 5.68262 11.317 5.68262C11.858 5.68262 12.2959 6.00825 12.5707 6.28247C12.5793 6.29104 12.5879 6.29961 12.5965 6.30818C13.1203 6.79664 13.6183 7.30223 14.1421 7.8421C14.4083 8.11632 14.6831 8.39054 14.9579 8.67333L17.3021 11.0128C18.2123 11.9211 18.2123 12.7609 17.3021 13.6693C17.0531 13.9178 16.8126 14.1663 16.5636 14.4063C15.8423 15.1432 16.4089 14.5778 15.6619 15.2462C15.6447 15.2633 15.6275 15.2719 15.619 15.289C14.8805 16.026 15.0179 16.7458 15.1724 17.2343C15.181 17.26 15.1896 17.2857 15.1982 17.3114C15.8079 18.7853 16.6666 20.1736 17.9718 21.8275L17.9804 21.836C20.3504 24.7496 22.8491 27.0205 25.6056 28.7601C25.9576 28.9829 26.3183 29.1628 26.6617 29.3342C26.9709 29.4885 27.2628 29.6342 27.5119 29.7884C27.5462 29.8056 27.5805 29.8313 27.6149 29.8484C27.9069 29.9941 28.1816 30.0626 28.465 30.0626C29.1777 30.0626 29.6242 29.617 29.7702 29.4713L31.4534 27.7916C31.7453 27.5003 32.209 27.1489 32.75 27.1489C33.2824 27.1489 33.7203 27.4831 33.9865 27.7745C33.9951 27.7831 33.9951 27.7831 34.0037 27.7916L38.7351 32.5134C39.6195 33.3874 38.7437 35.1956 38.7437 35.1956Z" stroke="#fff6f9" stroke-width="2" stroke-linecap="round" stroke-linejoin="round"/>
</svg>
