<svg version="1.2" xmlns="http://www.w3.org/2000/svg" viewBox="0 0 1500 1000" width="1500" height="1000">
	<title>ptable</title>
	<defs>
		<linearGradient id="g1" x2="1" gradientUnits="userSpaceOnUse" gradientTransform="matrix(310.894,0,0,183.445,554.991,434.076)">
			<stop offset="0" stop-color="#386ab2"/>
			<stop offset="1" stop-color="#1b2d59"/>
		</linearGradient>
	</defs>
	<style>
		.s0 { fill: #dce0e2 } 
		.s1 { fill: #325fa3 } 
		.s2 { fill: url(#g1) } 
		.s3 { opacity: .4;mix-blend-mode: multiply;fill: #172f56 } 
		.s4 { fill: #f8fbf8 } 
		.s5 { fill: #191b1d } 
		.s6 { fill: #4385c5 } 
		.s7 { fill: #172f56 } 
	</style>
	<g id="&lt;Group&gt;">
		<g id="&lt;Group&gt;">
			<path id="&lt;Path&gt;" class="s0" d="m1006.6 426.4h-513.2l-135.5 466h784.2z"/>
			<g id="&lt;Group&gt;">
				<path id="&lt;Path&gt;" class="s1" d="m368.1 884.7q42.5 0 85 0 39.3 0 78.7 0 48.9 0 97.8 0 26.8 0 53.7 0 121.6 0 243.1 0 102.8 0 205.5 0-25.8-88.7-51.7-177.5-29.8-102.6-59.6-205.2-9.9-34-19.8-67.9-67.5 0-134.9 0-79.9 0-159.7 0-17.6 0-35.3 0-32.1 0-64.2 0-25.9 0-51.7 0-27.9 0-55.8 0-9.9 33.9-19.8 67.9-29.8 102.6-59.7 205.2-25.8 88.8-51.6 177.5z"/>
				<path id="&lt;Mesh&gt;" class="s2" d="m368.1 884.7q42.5 0 85 0c15.1-59.1 28.2-118.3 40.8-177.5-24.6 0-49.2 0-74.2 0q-25.8 88.8-51.6 177.5zm51.6-177.5c25 0 49.6 0 74.2 0 14.5-68.4 28.6-136.8 44.6-205.2-19.6 0-39.5 0-59.1 0q-29.8 102.6-59.7 205.2zm59.7-205.2c19.6 0 39.5 0 59.1 0 5.3-22.7 10.7-45.3 16.5-67.9q-27.9 0-55.8 0-9.9 33.9-19.8 67.9zm-26.3 382.7q39.3 0 78.7 0c13.1-59.1 22.4-118.3 30.8-177.5-23.2 0-46 0-68.7 0-12.6 59.2-25.7 118.4-40.8 177.5zm40.8-177.5c22.7 0 45.5 0 68.7 0 9.7-68.4 18.3-136.8 30.5-205.2-18.1 0-36.5 0-54.6 0-16 68.4-30.1 136.8-44.6 205.2zm44.6-205.2c18.1 0 36.5 0 54.6 0 4.1-22.7 8.6-45.3 13.6-67.9q-25.9 0-51.7 0c-5.8 22.6-11.2 45.2-16.5 67.9zm-6.7 382.7q48.9 0 97.8 0c9.7-59.1 14.3-118.3 17.9-177.5-28.7 0-56.2 0-84.9 0-8.4 59.2-17.7 118.4-30.8 177.5zm30.8-177.5c28.7 0 56.2 0 84.9 0 4.1-68.4 6.8-136.8 14.3-205.2-22.6 0-46.1 0-68.7 0-12.2 68.4-20.8 136.8-30.5 205.2zm30.5-205.2c22.6 0 46.1 0 68.7 0 2.4-22.7 5.4-45.3 9.1-67.9q-32.1 0-64.2 0c-5 22.6-9.5 45.2-13.6 67.9zm36.5 382.7q26.8 0 53.7 0c8.3-59.1 10.4-118.3 11.1-177.5-15.8 0-31.1 0-46.9 0-3.6 59.2-8.2 118.4-17.9 177.5zm17.9-177.5c15.8 0 31.1 0 46.9 0 0.8-68.4-0.2-136.8 4.7-205.2-12.4 0-24.9 0-37.3 0-7.5 68.4-10.2 136.8-14.3 205.2zm14.3-205.2c12.4 0 24.9 0 37.3 0 1.7-22.7 3.9-45.3 7.1-67.9q-17.6 0-35.3 0c-3.7 22.6-6.7 45.2-9.1 67.9zm21.5 382.7q121.6 0 243.1 0c-6-59.1-14.3-118.3-23.1-177.5-71.5 0-137.4 0-208.9 0-0.7 59.2-2.8 118.4-11.1 177.5zm11.1-177.5c71.5 0 137.4 0 208.9 0-10.1-68.4-20.9-136.8-29.6-205.2-56 0-118.5 0-174.6 0-4.9 68.4-3.9 136.8-4.7 205.2zm4.7-205.2c56.1 0 118.6 0 174.6 0-2.9-22.7-5.5-45.3-7.8-67.9q-79.9 0-159.7 0c-3.2 22.6-5.4 45.2-7.1 67.9zm227.3 382.7q102.8 0 205.5 0-25.8-88.7-51.7-177.5c-60.4 0-116.5 0-176.9 0 8.8 59.2 17.1 118.4 23.1 177.5zm-23.1-177.5c60.4 0 116.5 0 176.9 0q-29.8-102.6-59.6-205.2c-47.4 0-99.5 0-146.9 0 8.7 68.4 19.5 136.8 29.6 205.2zm-29.6-205.2c47.4 0 99.5 0 146.9 0q-9.9-34-19.8-67.9-67.5 0-134.9 0c2.3 22.6 4.9 45.2 7.8 67.9z"/>
			</g>
			<g id="&lt;Group&gt;">
				<path id="&lt;Path&gt;" class="s0" d="m751.7 889.1h-3.4v-460.2h3.4z"/>
			</g>
			<path id="&lt;Path&gt;" class="s3" d="m1062.8 647.7h-625.6l6.2-22.5h613.1z"/>
			<g id="&lt;Group&gt;">
				<g id="&lt;Group&gt;">
					<g id="&lt;Group&gt;">
						<path id="&lt;Path&gt;" class="s4" d="m438.2 613.5h-0.5v-65.5h0.5z"/>
					</g>
					<g id="&lt;Group&gt;">
						<path id="&lt;Path&gt;" class="s4" d="m443.6 613.5h-0.5v-65.5h0.5z"/>
					</g>
					<g id="&lt;Group&gt;">
						<path id="&lt;Path&gt;" class="s4" d="m449 613.5h-0.5v-65.5h0.5z"/>
					</g>
					<g id="&lt;Group&gt;">
						<path id="&lt;Path&gt;" class="s4" d="m454.4 613.5h-0.6v-65.5h0.6z"/>
					</g>
					<g id="&lt;Group&gt;">
						<path id="&lt;Path&gt;" class="s4" d="m459.8 613.5h-0.6v-65.5h0.6z"/>
					</g>
					<g id="&lt;Group&gt;">
						<path id="&lt;Path&gt;" class="s4" d="m465.2 613.5h-0.6v-65.5h0.6z"/>
					</g>
					<g id="&lt;Group&gt;">
						<path id="&lt;Path&gt;" class="s4" d="m470.5 613.5h-0.5v-65.5h0.5z"/>
					</g>
					<g id="&lt;Group&gt;">
						<path id="&lt;Path&gt;" class="s4" d="m475.9 613.5h-0.5v-65.5h0.5z"/>
					</g>
					<g id="&lt;Group&gt;">
						<path id="&lt;Path&gt;" class="s4" d="m481.3 613.5h-0.5v-65.5h0.5z"/>
					</g>
					<g id="&lt;Group&gt;">
						<path id="&lt;Path&gt;" class="s4" d="m486.7 613.5h-0.6v-65.5h0.6z"/>
					</g>
					<g id="&lt;Group&gt;">
						<path id="&lt;Path&gt;" class="s4" d="m492.1 613.5h-0.6v-65.5h0.6z"/>
					</g>
					<g id="&lt;Group&gt;">
						<path id="&lt;Path&gt;" class="s4" d="m497.5 613.5h-0.6v-65.5h0.6z"/>
					</g>
					<g id="&lt;Group&gt;">
						<path id="&lt;Path&gt;" class="s4" d="m502.8 613.5h-0.5v-65.5h0.5z"/>
					</g>
					<g id="&lt;Group&gt;">
						<path id="&lt;Path&gt;" class="s4" d="m508.2 613.5h-0.5v-65.5h0.5z"/>
					</g>
					<g id="&lt;Group&gt;">
						<path id="&lt;Path&gt;" class="s4" d="m513.6 613.5h-0.6v-65.5h0.6z"/>
					</g>
					<g id="&lt;Group&gt;">
						<path id="&lt;Path&gt;" class="s4" d="m519 613.5h-0.6v-65.5h0.6z"/>
					</g>
					<g id="&lt;Group&gt;">
						<path id="&lt;Path&gt;" class="s4" d="m524.4 613.5h-0.6v-65.5h0.6z"/>
					</g>
					<g id="&lt;Group&gt;">
						<path id="&lt;Path&gt;" class="s4" d="m529.7 613.5h-0.5v-65.5h0.5z"/>
					</g>
					<g id="&lt;Group&gt;">
						<path id="&lt;Path&gt;" class="s4" d="m535.1 613.5h-0.5v-65.5h0.5z"/>
					</g>
					<g id="&lt;Group&gt;">
						<path id="&lt;Path&gt;" class="s4" d="m540.5 613.5h-0.5v-65.5h0.5z"/>
					</g>
					<g id="&lt;Group&gt;">
						<path id="&lt;Path&gt;" class="s4" d="m545.9 613.5h-0.6v-65.5h0.6z"/>
					</g>
					<g id="&lt;Group&gt;">
						<path id="&lt;Path&gt;" class="s4" d="m551.3 613.5h-0.6v-65.5h0.6z"/>
					</g>
					<g id="&lt;Group&gt;">
						<path id="&lt;Path&gt;" class="s4" d="m556.7 613.5h-0.6v-65.5h0.6z"/>
					</g>
					<g id="&lt;Group&gt;">
						<path id="&lt;Path&gt;" class="s4" d="m562 613.5h-0.5v-65.5h0.5z"/>
					</g>
					<g id="&lt;Group&gt;">
						<path id="&lt;Path&gt;" class="s4" d="m567.4 613.5h-0.5v-65.5h0.5z"/>
					</g>
					<g id="&lt;Group&gt;">
						<path id="&lt;Path&gt;" class="s4" d="m572.8 613.5h-0.6v-65.5h0.6z"/>
					</g>
					<g id="&lt;Group&gt;">
						<path id="&lt;Path&gt;" class="s4" d="m578.2 613.5h-0.6v-65.5h0.6z"/>
					</g>
					<g id="&lt;Group&gt;">
						<path id="&lt;Path&gt;" class="s4" d="m583.6 613.5h-0.6v-65.5h0.6z"/>
					</g>
					<g id="&lt;Group&gt;">
						<path id="&lt;Path&gt;" class="s4" d="m588.9 613.5h-0.5v-65.5h0.5z"/>
					</g>
					<g id="&lt;Group&gt;">
						<path id="&lt;Path&gt;" class="s4" d="m594.3 613.5h-0.5v-65.5h0.5z"/>
					</g>
					<g id="&lt;Group&gt;">
						<path id="&lt;Path&gt;" class="s4" d="m599.7 613.5h-0.5v-65.5h0.5z"/>
					</g>
					<g id="&lt;Group&gt;">
						<path id="&lt;Path&gt;" class="s4" d="m605.1 613.5h-0.6v-65.5h0.6z"/>
					</g>
					<g id="&lt;Group&gt;">
						<path id="&lt;Path&gt;" class="s4" d="m610.5 613.5h-0.6v-65.5h0.6z"/>
					</g>
					<g id="&lt;Group&gt;">
						<path id="&lt;Path&gt;" class="s4" d="m615.9 613.5h-0.6v-65.5h0.6z"/>
					</g>
					<g id="&lt;Group&gt;">
						<path id="&lt;Path&gt;" class="s4" d="m621.2 613.5h-0.5v-65.5h0.5z"/>
					</g>
					<g id="&lt;Group&gt;">
						<path id="&lt;Path&gt;" class="s4" d="m626.6 613.5h-0.5v-65.5h0.5z"/>
					</g>
					<g id="&lt;Group&gt;">
						<path id="&lt;Path&gt;" class="s4" d="m632 613.5h-0.5v-65.5h0.5z"/>
					</g>
					<g id="&lt;Group&gt;">
						<path id="&lt;Path&gt;" class="s4" d="m637.4 613.5h-0.6v-65.5h0.6z"/>
					</g>
					<g id="&lt;Group&gt;">
						<path id="&lt;Path&gt;" class="s4" d="m642.8 613.5h-0.6v-65.5h0.6z"/>
					</g>
					<g id="&lt;Group&gt;">
						<path id="&lt;Path&gt;" class="s4" d="m648.2 613.5h-0.6v-65.5h0.6z"/>
					</g>
					<g id="&lt;Group&gt;">
						<path id="&lt;Path&gt;" class="s4" d="m653.4 613.5h-0.5v-65.5h0.5z"/>
					</g>
					<g id="&lt;Group&gt;">
						<path id="&lt;Path&gt;" class="s4" d="m658.8 613.5h-0.6v-65.5h0.6z"/>
					</g>
					<g id="&lt;Group&gt;">
						<path id="&lt;Path&gt;" class="s4" d="m664.2 613.5h-0.6v-65.5h0.6z"/>
					</g>
					<g id="&lt;Group&gt;">
						<path id="&lt;Path&gt;" class="s4" d="m669.6 613.5h-0.6v-65.5h0.6z"/>
					</g>
					<g id="&lt;Group&gt;">
						<path id="&lt;Path&gt;" class="s4" d="m674.9 613.5h-0.5v-65.5h0.5z"/>
					</g>
					<g id="&lt;Group&gt;">
						<path id="&lt;Path&gt;" class="s4" d="m680.3 613.5h-0.5v-65.5h0.5z"/>
					</g>
					<g id="&lt;Group&gt;">
						<path id="&lt;Path&gt;" class="s4" d="m685.7 613.5h-0.5v-65.5h0.5z"/>
					</g>
					<g id="&lt;Group&gt;">
						<path id="&lt;Path&gt;" class="s4" d="m691.1 613.5h-0.6v-65.5h0.6z"/>
					</g>
					<g id="&lt;Group&gt;">
						<path id="&lt;Path&gt;" class="s4" d="m696.5 613.5h-0.6v-65.5h0.6z"/>
					</g>
					<g id="&lt;Group&gt;">
						<path id="&lt;Path&gt;" class="s4" d="m701.9 613.5h-0.6v-65.5h0.6z"/>
					</g>
					<g id="&lt;Group&gt;">
						<path id="&lt;Path&gt;" class="s4" d="m707.2 613.5h-0.5v-65.5h0.5z"/>
					</g>
					<g id="&lt;Group&gt;">
						<path id="&lt;Path&gt;" class="s4" d="m712.6 613.5h-0.5v-65.5h0.5z"/>
					</g>
					<g id="&lt;Group&gt;">
						<path id="&lt;Path&gt;" class="s4" d="m718 613.5h-0.5v-65.5h0.5z"/>
					</g>
					<g id="&lt;Group&gt;">
						<path id="&lt;Path&gt;" class="s4" d="m723.4 613.5h-0.6v-65.5h0.6z"/>
					</g>
					<g id="&lt;Group&gt;">
						<path id="&lt;Path&gt;" class="s4" d="m728.8 613.5h-0.6v-65.5h0.6z"/>
					</g>
					<g id="&lt;Group&gt;">
						<path id="&lt;Path&gt;" class="s4" d="m734.2 613.5h-0.6v-65.5h0.6z"/>
					</g>
					<g id="&lt;Group&gt;">
						<path id="&lt;Path&gt;" class="s4" d="m739.5 613.5h-0.5v-65.5h0.5z"/>
					</g>
					<g id="&lt;Group&gt;">
						<path id="&lt;Path&gt;" class="s4" d="m744.9 613.5h-0.5v-65.5h0.5z"/>
					</g>
					<g id="&lt;Group&gt;">
						<path id="&lt;Path&gt;" class="s4" d="m750.3 613.5h-0.6v-65.5h0.6z"/>
					</g>
					<g id="&lt;Group&gt;">
						<path id="&lt;Path&gt;" class="s4" d="m755.7 613.5h-0.6v-65.5h0.6z"/>
					</g>
					<g id="&lt;Group&gt;">
						<path id="&lt;Path&gt;" class="s4" d="m761.1 613.5h-0.6v-65.5h0.6z"/>
					</g>
					<g id="&lt;Group&gt;">
						<path id="&lt;Path&gt;" class="s4" d="m766.4 613.5h-0.5v-65.5h0.5z"/>
					</g>
					<g id="&lt;Group&gt;">
						<path id="&lt;Path&gt;" class="s4" d="m771.8 613.5h-0.5v-65.5h0.5z"/>
					</g>
					<g id="&lt;Group&gt;">
						<path id="&lt;Path&gt;" class="s4" d="m777.2 613.5h-0.5v-65.5h0.5z"/>
					</g>
					<g id="&lt;Group&gt;">
						<path id="&lt;Path&gt;" class="s4" d="m782.6 613.5h-0.6v-65.5h0.6z"/>
					</g>
					<g id="&lt;Group&gt;">
						<path id="&lt;Path&gt;" class="s4" d="m788 613.5h-0.6v-65.5h0.6z"/>
					</g>
					<g id="&lt;Group&gt;">
						<path id="&lt;Path&gt;" class="s4" d="m793.4 613.5h-0.6v-65.5h0.6z"/>
					</g>
					<g id="&lt;Group&gt;">
						<path id="&lt;Path&gt;" class="s4" d="m798.7 613.5h-0.5v-65.5h0.5z"/>
					</g>
					<g id="&lt;Group&gt;">
						<path id="&lt;Path&gt;" class="s4" d="m804.1 613.5h-0.5v-65.5h0.5z"/>
					</g>
					<g id="&lt;Group&gt;">
						<path id="&lt;Path&gt;" class="s4" d="m809.5 613.5h-0.5v-65.5h0.5z"/>
					</g>
					<g id="&lt;Group&gt;">
						<path id="&lt;Path&gt;" class="s4" d="m814.9 613.5h-0.6v-65.5h0.6z"/>
					</g>
					<g id="&lt;Group&gt;">
						<path id="&lt;Path&gt;" class="s4" d="m820.3 613.5h-0.6v-65.5h0.6z"/>
					</g>
					<g id="&lt;Group&gt;">
						<path id="&lt;Path&gt;" class="s4" d="m825.7 613.5h-0.6v-65.5h0.6z"/>
					</g>
					<g id="&lt;Group&gt;">
						<path id="&lt;Path&gt;" class="s4" d="m831 613.5h-0.5v-65.5h0.5z"/>
					</g>
					<g id="&lt;Group&gt;">
						<path id="&lt;Path&gt;" class="s4" d="m836.4 613.5h-0.5v-65.5h0.5z"/>
					</g>
					<g id="&lt;Group&gt;">
						<path id="&lt;Path&gt;" class="s4" d="m841.8 613.5h-0.5v-65.5h0.5z"/>
					</g>
					<g id="&lt;Group&gt;">
						<path id="&lt;Path&gt;" class="s4" d="m847.2 613.5h-0.6v-65.5h0.6z"/>
					</g>
					<g id="&lt;Group&gt;">
						<path id="&lt;Path&gt;" class="s4" d="m852.6 613.5h-0.6v-65.5h0.6z"/>
					</g>
					<g id="&lt;Group&gt;">
						<path id="&lt;Path&gt;" class="s4" d="m857.9 613.5h-0.5v-65.5h0.5z"/>
					</g>
					<g id="&lt;Group&gt;">
						<path id="&lt;Path&gt;" class="s4" d="m864.4 613.5h-0.6v-65.5h0.6z"/>
					</g>
					<g id="&lt;Group&gt;">
						<path id="&lt;Path&gt;" class="s4" d="m869.8 613.5h-0.6v-65.5h0.6z"/>
					</g>
					<g id="&lt;Group&gt;">
						<path id="&lt;Path&gt;" class="s4" d="m875 613.5h-0.5v-65.5h0.5z"/>
					</g>
					<g id="&lt;Group&gt;">
						<path id="&lt;Path&gt;" class="s4" d="m880.4 613.5h-0.5v-65.5h0.5z"/>
					</g>
					<g id="&lt;Group&gt;">
						<path id="&lt;Path&gt;" class="s4" d="m885.8 613.5h-0.6v-65.5h0.6z"/>
					</g>
					<g id="&lt;Group&gt;">
						<path id="&lt;Path&gt;" class="s4" d="m891.2 613.5h-0.6v-65.5h0.6z"/>
					</g>
					<g id="&lt;Group&gt;">
						<path id="&lt;Path&gt;" class="s4" d="m896.6 613.5h-0.6v-65.5h0.6z"/>
					</g>
					<g id="&lt;Group&gt;">
						<path id="&lt;Path&gt;" class="s4" d="m901.9 613.5h-0.5v-65.5h0.5z"/>
					</g>
					<g id="&lt;Group&gt;">
						<path id="&lt;Path&gt;" class="s4" d="m907.3 613.5h-0.5v-65.5h0.5z"/>
					</g>
					<g id="&lt;Group&gt;">
						<path id="&lt;Path&gt;" class="s4" d="m912.7 613.5h-0.5v-65.5h0.5z"/>
					</g>
					<g id="&lt;Group&gt;">
						<path id="&lt;Path&gt;" class="s4" d="m918.1 613.5h-0.6v-65.5h0.6z"/>
					</g>
					<g id="&lt;Group&gt;">
						<path id="&lt;Path&gt;" class="s4" d="m923.5 613.5h-0.6v-65.5h0.6z"/>
					</g>
					<g id="&lt;Group&gt;">
						<path id="&lt;Path&gt;" class="s4" d="m928.9 613.5h-0.6v-65.5h0.6z"/>
					</g>
					<g id="&lt;Group&gt;">
						<path id="&lt;Path&gt;" class="s4" d="m934.2 613.5h-0.5v-65.5h0.5z"/>
					</g>
					<g id="&lt;Group&gt;">
						<path id="&lt;Path&gt;" class="s4" d="m939.6 613.5h-0.5v-65.5h0.5z"/>
					</g>
					<g id="&lt;Group&gt;">
						<path id="&lt;Path&gt;" class="s4" d="m945 613.5h-0.5v-65.5h0.5z"/>
					</g>
					<g id="&lt;Group&gt;">
						<path id="&lt;Path&gt;" class="s4" d="m950.4 613.5h-0.6v-65.5h0.6z"/>
					</g>
					<g id="&lt;Group&gt;">
						<path id="&lt;Path&gt;" class="s4" d="m955.8 613.5h-0.6v-65.5h0.6z"/>
					</g>
					<g id="&lt;Group&gt;">
						<path id="&lt;Path&gt;" class="s4" d="m961.1 613.5h-0.5v-65.5h0.5z"/>
					</g>
					<g id="&lt;Group&gt;">
						<path id="&lt;Path&gt;" class="s4" d="m966.5 613.5h-0.5v-65.5h0.5z"/>
					</g>
					<g id="&lt;Group&gt;">
						<path id="&lt;Path&gt;" class="s4" d="m971.9 613.5h-0.5v-65.5h0.5z"/>
					</g>
					<g id="&lt;Group&gt;">
						<path id="&lt;Path&gt;" class="s4" d="m977.3 613.5h-0.6v-65.5h0.6z"/>
					</g>
					<g id="&lt;Group&gt;">
						<path id="&lt;Path&gt;" class="s4" d="m982.7 613.5h-0.6v-65.5h0.6z"/>
					</g>
					<g id="&lt;Group&gt;">
						<path id="&lt;Path&gt;" class="s4" d="m988.1 613.5h-0.6v-65.5h0.6z"/>
					</g>
					<g id="&lt;Group&gt;">
						<path id="&lt;Path&gt;" class="s4" d="m993.4 613.5h-0.5v-65.5h0.5z"/>
					</g>
					<g id="&lt;Group&gt;">
						<path id="&lt;Path&gt;" class="s4" d="m998.8 613.5h-0.5v-65.5h0.5z"/>
					</g>
					<g id="&lt;Group&gt;">
						<path id="&lt;Path&gt;" class="s4" d="m1004.2 613.5h-0.5v-65.5h0.5z"/>
					</g>
					<g id="&lt;Group&gt;">
						<path id="&lt;Path&gt;" class="s4" d="m1009.6 613.5h-0.6v-65.5h0.6z"/>
					</g>
					<g id="&lt;Group&gt;">
						<path id="&lt;Path&gt;" class="s4" d="m1015 613.5h-0.6v-65.5h0.6z"/>
					</g>
					<g id="&lt;Group&gt;">
						<path id="&lt;Path&gt;" class="s4" d="m1020.4 613.5h-0.6v-65.5h0.6z"/>
					</g>
					<g id="&lt;Group&gt;">
						<path id="&lt;Path&gt;" class="s4" d="m1025.7 613.5h-0.5v-65.5h0.5z"/>
					</g>
					<g id="&lt;Group&gt;">
						<path id="&lt;Path&gt;" class="s4" d="m1031.1 613.5h-0.5v-65.5h0.5z"/>
					</g>
					<g id="&lt;Group&gt;">
						<path id="&lt;Path&gt;" class="s4" d="m1036.5 613.5h-0.5v-65.5h0.5z"/>
					</g>
					<g id="&lt;Group&gt;">
						<path id="&lt;Path&gt;" class="s4" d="m1041.9 613.5h-0.6v-65.5h0.6z"/>
					</g>
					<g id="&lt;Group&gt;">
						<path id="&lt;Path&gt;" class="s4" d="m1047.3 613.5h-0.6v-65.5h0.6z"/>
					</g>
					<g id="&lt;Group&gt;">
						<path id="&lt;Path&gt;" class="s4" d="m1052.7 613.5h-0.6v-65.5h0.6z"/>
					</g>
					<g id="&lt;Group&gt;">
						<path id="&lt;Path&gt;" class="s4" d="m1058 613.5h-0.5v-65.5h0.5z"/>
					</g>
					<g id="&lt;Group&gt;">
						<path id="&lt;Path&gt;" class="s4" d="m1063.4 613.5h-0.5v-65.5h0.5z"/>
					</g>
					<g id="&lt;Group&gt;">
						<path id="&lt;Path&gt;" class="s4" d="m1069 554.6h-639.2v-0.5h639.2z"/>
					</g>
					<g id="&lt;Group&gt;">
						<path id="&lt;Path&gt;" class="s4" d="m1069 560.6h-639.2v-0.5h639.2z"/>
					</g>
					<g id="&lt;Group&gt;">
						<path id="&lt;Path&gt;" class="s4" d="m1069 566.6h-639.2v-0.5h639.2z"/>
					</g>
					<g id="&lt;Group&gt;">
						<path id="&lt;Path&gt;" class="s4" d="m1069 572.6h-639.2v-0.5h639.2z"/>
					</g>
					<g id="&lt;Group&gt;">
						<path id="&lt;Path&gt;" class="s4" d="m1069 578.6h-639.2v-0.5h639.2z"/>
					</g>
					<g id="&lt;Group&gt;">
						<path id="&lt;Path&gt;" class="s4" d="m1069 584.6h-639.2v-0.6h639.2z"/>
					</g>
					<g id="&lt;Group&gt;">
						<path id="&lt;Path&gt;" class="s4" d="m1069 590h-639.2v-0.6h639.2z"/>
					</g>
					<g id="&lt;Group&gt;">
						<path id="&lt;Path&gt;" class="s4" d="m1069 596h-639.2v-0.6h639.2z"/>
					</g>
					<g id="&lt;Group&gt;">
						<path id="&lt;Path&gt;" class="s4" d="m1069 601.9h-639.2v-0.5h639.2z"/>
					</g>
					<g id="&lt;Group&gt;">
						<path id="&lt;Path&gt;" class="s4" d="m1069 607.9h-639.2v-0.5h639.2z"/>
					</g>
					<g id="&lt;Group&gt;">
						<path id="&lt;Path&gt;" class="s4" d="m1069 613.9h-639.2v-0.5h639.2z"/>
					</g>
				</g>
				<path id="&lt;Path&gt;" class="s4" d="m1072.8 548.7h-644.2v-7.9h644.2z"/>
				<path id="&lt;Path&gt;" class="s5" d="m432.7 626.1v-88h-5.9v93.8h1.7 4.2 21.5v-5.8z"/>
				<path id="&lt;Path&gt;" class="s5" d="m1067.3 538.1v88h-21.2v5.8h21.2 4.4 1.4v-93.8z"/>
			</g>
			<g id="&lt;Group&gt;">
				<path id="&lt;Path&gt;" class="s6" d="m481.7 639.4h-62.8v-101.3h10.2v91.1h52.6z"/>
			</g>
			<g id="&lt;Group&gt;">
				<path id="&lt;Path&gt;" class="s6" d="m1019.1 639.4h62.7v-101.3h-10.1v91.1h-52.6z"/>
			</g>
			<path id="&lt;Path&gt;" class="s7" d="m1142.1 892.4c-38.9-0.1-784.2-3.2-784.2 0v34h784.2z"/>
		</g>
	</g>
</svg>