<svg width="25" height="25" viewBox="0 0 25 25" fill="none" xmlns="http://www.w3.org/2000/svg">
<g clip-path="url(#clip0_712_720)">
<path d="M21.3949 17.2229L21.3919 17.2259C20.7048 17.9145 19.9279 18.5065 19.0829 18.986L8.98365 8.88684C9.89355 7.96594 10.5205 6.79824 10.7828 5.52269C11.0498 4.22422 10.9255 2.87935 10.4313 1.65675C12.1745 0.702408 14.1735 0.307752 16.1552 0.532895C18.2812 0.774434 20.2666 1.71563 21.7994 3.20848C22.7023 4.11596 23.4082 5.20001 23.873 6.39282C24.3383 7.58679 24.5518 8.864 24.5004 10.1444L24.5003 10.1473C24.4085 12.8162 23.2971 15.3485 21.3949 17.2229ZM5.49301 16.638L5.5295 16.6127L5.56097 16.5814C5.71611 16.4271 5.81653 16.2262 5.8469 16.0095C5.87647 15.7985 5.83807 15.5837 5.73753 15.3962C5.05889 13.9901 4.70133 12.4527 4.68828 10.8951C5.23673 10.851 5.77794 10.7399 6.29974 10.5641L15.8701 20.1383C13.7417 20.4929 11.5472 20.176 9.59657 19.2194C9.39465 19.1191 9.16521 19.0885 8.94406 19.1324L9.04133 19.6228L8.94405 19.1324C8.72236 19.1764 8.52153 19.2927 8.37304 19.4631L8.3556 19.4831L8.34038 19.5048L5.49883 23.5642C5.24862 23.8423 4.94576 24.0681 4.60766 24.2286C4.26433 24.3916 3.89176 24.4838 3.51212 24.4999C2.83453 24.4975 2.18509 24.2278 1.70521 23.749L1.70533 23.7489L1.69613 23.7402L1.23491 23.3028C0.988623 23.0629 0.795782 22.7736 0.669024 22.454C0.542681 22.1354 0.484835 21.7938 0.499224 21.4514C0.529368 21.0343 0.64627 20.6282 0.84247 20.2589L0.400919 20.0243L0.84247 20.2589C1.03748 19.8918 1.30653 19.5693 1.63255 19.3117L5.49301 16.638ZM4.16666 7.83321C3.44146 7.83321 2.73255 7.61817 2.12957 7.21527C1.52659 6.81237 1.05662 6.23972 0.779102 5.56972C0.501581 4.89972 0.428968 4.16248 0.570448 3.45122C0.711927 2.73995 1.06114 2.08662 1.57394 1.57382C2.08673 1.06103 2.74007 0.711814 3.45133 0.570335C4.16259 0.428856 4.89984 0.501468 5.56983 0.778989C6.23983 1.05651 6.81248 1.52648 7.21538 2.12946C7.61828 2.73244 7.83333 3.44135 7.83333 4.16655C7.83333 5.13901 7.44702 6.07164 6.75939 6.75927C6.07175 7.44691 5.13912 7.83321 4.16666 7.83321Z" stroke="#EEEEEE"/>
</g>
<defs>
<clipPath id="clip0_712_720">
<rect width="25" height="25" fill="white"/>
</clipPath>
</defs>
</svg>
