<svg width="28" height="28" viewBox="0 0 28 28" fill="none" xmlns="http://www.w3.org/2000/svg">
<path d="M14.5 7.625C14.5 7.34886 14.2761 7.125 14 7.125C13.7239 7.125 13.5 7.34886 13.5 7.625L14.5 7.625ZM13.5 20.375C13.5 20.6511 13.7239 20.875 14 20.875C14.2761 20.875 14.5 20.6511 14.5 20.375H13.5ZM20.375 14.5C20.6511 14.5 20.875 14.2761 20.875 14C20.875 13.7239 20.6511 13.5 20.375 13.5V14.5ZM7.625 13.5C7.34886 13.5 7.125 13.7239 7.125 14C7.125 14.2761 7.34886 14.5 7.625 14.5V13.5ZM26.25 14C26.25 20.7655 20.7655 26.25 14 26.25V27.25C21.3178 27.25 27.25 21.3178 27.25 14H26.25ZM14 26.25C7.23451 26.25 1.75 20.7655 1.75 14H0.75C0.75 21.3178 6.68223 27.25 14 27.25V26.25ZM1.75 14C1.75 7.23451 7.23451 1.75 14 1.75V0.75C6.68223 0.75 0.75 6.68223 0.75 14H1.75ZM14 1.75C20.7655 1.75 26.25 7.23451 26.25 14H27.25C27.25 6.68223 21.3178 0.75 14 0.75V1.75ZM13.5 7.625L13.5 14L14.5 14L14.5 7.625L13.5 7.625ZM13.5 14V20.375H14.5V14H13.5ZM20.375 13.5H14V14.5H20.375V13.5ZM14 13.5H7.625V14.5H14V13.5Z" fill="#000"/>
</svg>
