<svg width="40" height="40" viewBox="0 0 40 40" fill="none" xmlns="http://www.w3.org/2000/svg">
<path fill-rule="evenodd" clip-rule="evenodd" d="M12.5397 28.56C11.9797 27.84 11.2797 26.38 10.0597 24.56C9.35974 23.56 7.63974 21.66 7.11974 20.68C6.74489 20.0844 6.63611 19.3593 6.81974 18.68C7.13366 17.3884 8.35887 16.5316 9.67974 16.68C10.7013 16.8852 11.6402 17.3859 12.3797 18.12C12.8961 18.6063 13.3711 19.1348 13.7997 19.7C14.1197 20.1 14.1997 20.26 14.5597 20.72C14.9197 21.18 15.1597 21.64 14.9797 20.96C14.8397 19.96 14.5997 18.28 14.2597 16.78C13.9997 15.64 13.9397 15.46 13.6997 14.6C13.4597 13.74 13.3197 13.02 13.0597 12.04C12.8221 11.0771 12.6352 10.1024 12.4997 9.11998C12.2477 7.86339 12.4311 6.5584 13.0197 5.41998C13.7185 4.76272 14.7436 4.58924 15.6197 4.97998C16.5009 5.63065 17.1579 6.53928 17.4997 7.57998C18.0239 8.86075 18.3737 10.2061 18.5397 11.58C18.8597 13.58 19.4797 16.5 19.4997 17.1C19.4997 16.36 19.3597 14.8 19.4997 14.1C19.6385 13.3702 20.1457 12.7646 20.8397 12.5C21.4354 12.3172 22.0654 12.2761 22.6797 12.38C23.2998 12.5096 23.8491 12.8663 24.2197 13.38C24.6831 14.5468 24.9403 15.7852 24.9797 17.04C25.0333 15.9412 25.2214 14.853 25.5397 13.8C25.874 13.3291 26.362 12.9896 26.9197 12.84C27.5809 12.7191 28.2586 12.7191 28.9197 12.84C29.4619 13.0212 29.9362 13.363 30.2797 13.82C30.7033 14.8807 30.9597 16.0007 31.0397 17.14C31.0397 17.42 31.1797 16.36 31.6197 15.66C31.8484 14.9812 32.4218 14.4759 33.124 14.3345C33.8262 14.1931 34.5505 14.4371 35.024 14.9745C35.4975 15.5119 35.6484 16.2612 35.4197 16.94C35.4197 18.24 35.4197 18.18 35.4197 19.06C35.4197 19.94 35.4197 20.72 35.4197 21.46C35.3469 22.6303 35.1864 23.7936 34.9397 24.94C34.5917 25.9542 34.1073 26.9164 33.4997 27.8C32.5286 28.8799 31.7263 30.1003 31.1197 31.42C30.9693 32.0756 30.9021 32.7476 30.9197 33.42C30.9177 34.0412 30.9984 34.66 31.1597 35.26C30.342 35.3464 29.5175 35.3464 28.6997 35.26C27.9197 35.14 26.9597 33.58 26.6997 33.1C26.5711 32.8422 26.3078 32.6794 26.0197 32.6794C25.7317 32.6794 25.4684 32.8422 25.3397 33.1C24.8997 33.86 23.9197 35.24 23.2397 35.32C21.8997 35.48 19.1397 35.32 16.9597 35.32C16.9597 35.32 17.3197 33.32 16.4997 32.6C15.6797 31.88 14.8397 31.04 14.2197 30.48L12.5397 28.56Z" stroke="#FFF6F9" stroke-width="0.75" stroke-linecap="round" stroke-linejoin="round"/>
<path d="M29.5 29.6518V22.7482C29.5 22.335 29.1642 22 28.75 22C28.3358 22 28 22.335 28 22.7482V29.6518C28 30.065 28.3358 30.4 28.75 30.4C29.1642 30.4 29.5 30.065 29.5 29.6518Z" fill="#FFF6F9"/>
<path d="M25.54 29.6493L25.5 22.7421C25.4976 22.3299 25.1599 21.9976 24.7457 22C24.3315 22.0024 23.9976 22.3385 24 22.7507L24.04 29.6579C24.0424 30.0701 24.3801 30.4024 24.7943 30.4C25.2085 30.3976 25.5424 30.0615 25.54 29.6493Z" fill="#FFF6F9"/>
<path d="M20 22.758L20.04 29.6508C20.0424 30.067 20.3802 30.4024 20.7944 30.4C21.2086 30.3976 21.5424 30.0582 21.54 29.642L21.5 22.7492C21.4976 22.333 21.1598 21.9976 20.7456 22C20.3314 22.0024 19.9976 22.3418 20 22.758Z" fill="#FFF6F9"/>
</svg>
