<svg width="32" height="34" viewBox="0 0 32 34" fill="none" xmlns="http://www.w3.org/2000/svg">
<g filter="url(#filter0_d_1153_286)">
<path fill-rule="evenodd" clip-rule="evenodd" d="M7.53974 24.56C6.97974 23.84 6.27974 22.38 5.05974 20.56C4.35974 19.56 2.63974 17.66 2.11974 16.68C1.74489 16.0844 1.63611 15.3593 1.81974 14.68C2.13366 13.3884 3.35887 12.5316 4.67974 12.68C5.70135 12.8852 6.64019 13.3859 7.37974 14.12C7.89611 14.6063 8.37108 15.1348 8.79974 15.7C9.11974 16.1 9.19974 16.26 9.55974 16.72C9.91974 17.18 10.1597 17.64 9.97974 16.96C9.83974 15.96 9.59974 14.28 9.25974 12.78C8.99974 11.64 8.93974 11.46 8.69974 10.6C8.45974 9.73998 8.31974 9.01998 8.05974 8.03998C7.82208 7.07712 7.63515 6.10244 7.49974 5.11998C7.24765 3.86339 7.43105 2.5584 8.01974 1.41998C8.71853 0.762716 9.74361 0.589242 10.6197 0.979977C11.5009 1.63065 12.1579 2.53928 12.4997 3.57998C13.0239 4.86075 13.3737 6.20611 13.5397 7.57998C13.8597 9.57998 14.4797 12.5 14.4997 13.1C14.4997 12.36 14.3597 10.8 14.4997 10.1C14.6385 9.37023 15.1457 8.7646 15.8397 8.49998C16.4354 8.31723 17.0654 8.27614 17.6797 8.37998C18.2998 8.50961 18.8491 8.86627 19.2197 9.37998C19.6831 10.5468 19.9403 11.7852 19.9797 13.04C20.0333 11.9412 20.2214 10.853 20.5397 9.79998C20.874 9.32908 21.362 8.98956 21.9197 8.83998C22.5809 8.71909 23.2586 8.71909 23.9197 8.83998C24.4619 9.02124 24.9362 9.36301 25.2797 9.81998C25.7033 10.8807 25.9597 12.0007 26.0397 13.14C26.0397 13.42 26.1797 12.36 26.6197 11.66C26.8484 10.9812 27.4218 10.4759 28.124 10.3345C28.8262 10.1931 29.5505 10.4371 30.024 10.9745C30.4975 11.5119 30.6484 12.2612 30.4197 12.94C30.4197 14.24 30.4197 14.18 30.4197 15.06C30.4197 15.94 30.4197 16.72 30.4197 17.46C30.3469 18.6303 30.1864 19.7936 29.9397 20.94C29.5917 21.9542 29.1073 22.9164 28.4997 23.8C27.5286 24.8799 26.7263 26.1003 26.1197 27.42C25.9693 28.0756 25.9021 28.7476 25.9197 29.42C25.9177 30.0412 25.9984 30.66 26.1597 31.26C25.342 31.3464 24.5175 31.3464 23.6997 31.26C22.9197 31.14 21.9597 29.58 21.6997 29.1C21.5711 28.8422 21.3078 28.6794 21.0197 28.6794C20.7317 28.6794 20.4684 28.8422 20.3397 29.1C19.8997 29.86 18.9197 31.24 18.2397 31.32C16.8997 31.48 14.1397 31.32 11.9597 31.32C11.9597 31.32 12.3197 29.32 11.4997 28.6C10.6797 27.88 9.83974 27.04 9.21974 26.48L7.53974 24.56Z" stroke="#0A090B" stroke-width="0.75" stroke-linecap="round" stroke-linejoin="round"/>
<path d="M24.5 25.6518V18.7482C24.5 18.335 24.1642 18 23.75 18C23.3358 18 23 18.335 23 18.7482V25.6518C23 26.065 23.3358 26.4 23.75 26.4C24.1642 26.4 24.5 26.065 24.5 25.6518Z" fill="#0A090B"/>
<path d="M20.54 25.6493L20.5 18.7421C20.4976 18.3299 20.1599 17.9976 19.7457 18C19.3315 18.0024 18.9976 18.3385 19 18.7507L19.04 25.6579C19.0424 26.0701 19.3801 26.4024 19.7943 26.4C20.2085 26.3976 20.5424 26.0615 20.54 25.6493Z" fill="#0A090B"/>
<path d="M15 18.758L15.04 25.6508C15.0424 26.067 15.3802 26.4024 15.7944 26.4C16.2086 26.3976 16.5424 26.0582 16.54 25.642L16.5 18.7492C16.4976 18.333 16.1598 17.9976 15.7456 18C15.3314 18.0024 14.9976 18.3418 15 18.758Z" fill="#0A090B"/>
</g>
<defs>
<filter id="filter0_d_1153_286" x="0.557422" y="0.39856" width="31.142" height="33.1676" filterUnits="userSpaceOnUse" color-interpolation-filters="sRGB">
<feFlood flood-opacity="0" result="BackgroundImageFix"/>
<feColorMatrix in="SourceAlpha" type="matrix" values="0 0 0 0 0 0 0 0 0 0 0 0 0 0 0 0 0 0 127 0" result="hardAlpha"/>
<feOffset dy="1"/>
<feGaussianBlur stdDeviation="0.4"/>
<feColorMatrix type="matrix" values="0 0 0 0 0 0 0 0 0 0 0 0 0 0 0 0 0 0 0.5 0"/>
<feBlend mode="normal" in2="BackgroundImageFix" result="effect1_dropShadow_1153_286"/>
<feBlend mode="normal" in="SourceGraphic" in2="effect1_dropShadow_1153_286" result="shape"/>
</filter>
</defs>
</svg>
