<svg width="32" height="32" viewBox="0 0 25 26" fill="none" xmlns="http://www.w3.org/2000/svg">
<path d="M2 22.5143C1.99997 22.7904 2.2238 23.0143 2.49994 23.0143C2.77609 23.0144 2.99997 22.7905 3 22.5144L2 22.5143ZM2.50042 18.7639L3.00042 18.764L2.50042 18.7639ZM13.75 15.5143C14.0261 15.5143 14.25 15.2905 14.25 15.0143C14.25 14.7382 14.0261 14.5143 13.75 14.5143V15.5143ZM22.1465 18.4929C22.3417 18.6882 22.6583 18.6882 22.8536 18.4929C23.0488 18.2976 23.0488 17.981 22.8536 17.7858L22.1465 18.4929ZM18.8761 13.8083C18.6808 13.613 18.3642 13.613 18.169 13.8083C17.9737 14.0036 17.9737 14.3202 18.169 14.5154L18.8761 13.8083ZM18.1691 17.7857C17.9738 17.9809 17.9738 18.2975 18.1691 18.4928C18.3643 18.6881 18.6809 18.6881 18.8762 18.4928L18.1691 17.7857ZM22.8537 14.5153C23.0489 14.3201 23.0489 14.0035 22.8537 13.8082C22.6584 13.6129 22.3418 13.6129 22.1466 13.8082L22.8537 14.5153ZM14.5 6.26434C14.5 8.05927 13.0449 9.51434 11.25 9.51434V10.5143C13.5972 10.5143 15.5 8.61155 15.5 6.26434H14.5ZM11.25 9.51434C9.45507 9.51434 8 8.05927 8 6.26434H7C7 8.61155 8.90279 10.5143 11.25 10.5143V9.51434ZM8 6.26434C8 4.46942 9.45507 3.01434 11.25 3.01434V2.01434C8.90279 2.01434 7 3.91713 7 6.26434H8ZM11.25 3.01434C13.0449 3.01434 14.5 4.46942 14.5 6.26434H15.5C15.5 3.91713 13.5972 2.01434 11.25 2.01434V3.01434ZM3 22.5144L3.00042 18.764L2.00042 18.7639L2 22.5143L3 22.5144ZM6.25042 14.5143C3.9034 14.5143 2.00069 16.4168 2.00042 18.7639L3.00042 18.764C3.00062 16.9692 4.45564 15.5143 6.25042 15.5143V14.5143ZM6.25042 15.5143H13.75V14.5143H6.25042V15.5143ZM22.8536 17.7858L20.8648 15.797L20.1577 16.5042L22.1465 18.4929L22.8536 17.7858ZM20.8648 15.797L18.8761 13.8083L18.169 14.5154L20.1577 16.5042L20.8648 15.797ZM18.8762 18.4928L20.8648 16.5042L20.1577 15.797L18.1691 17.7857L18.8762 18.4928ZM20.8648 16.5042L22.8537 14.5153L22.1466 13.8082L20.1577 15.797L20.8648 16.5042Z" fill="#FF0000"/>
</svg>
