<svg width="83" height="38" viewBox="0 0 83 38" fill="none" xmlns="http://www.w3.org/2000/svg">
<path d="M17.7522 26.955L10 19M10 19L17.7522 11.045M10 19H27.033M37 7.74996L37 30.25C37 33.9779 33.9779 37 30.25 37H7.75C4.02208 37 1 33.9779 1 30.25V7.74996C1 4.02206 4.02208 1 7.75 1H30.25C33.9779 1 37 4.02206 37 7.74996Z" stroke="#FFF6F9" stroke-width="1" stroke-linecap="round" stroke-linejoin="round"/>
<path d="M65.2478 11.045L73 19M73 19L65.2478 26.955M73 19H55.967M46 30.25L46 7.74996C46 4.02206 49.0221 1 52.75 1L75.25 1C78.9779 1 82 4.02206 82 7.74996V30.25C82 33.9779 78.9779 37 75.25 37H52.75C49.0221 37 46 33.9779 46 30.25Z" stroke="#FFF6F9" stroke-width="1" stroke-linecap="round" stroke-linejoin="round"/>
</svg>
