<svg xmlns="http://www.w3.org/2000/svg" xmlns:xlink="http://www.w3.org/1999/xlink" width="303" zoomAndPan="magnify" viewBox="0 0 227.25 219" height="292" preserveAspectRatio="xMidYMid meet" version="1.0"><defs><g/><clipPath id="df997684b5"><path d="M 5 0.359375 L 169 0.359375 L 169 198 L 5 198 Z M 5 0.359375 " clip-rule="nonzero"/></clipPath><clipPath id="49d434ffca"><path d="M 0 46.679688 L 117.3125 -2.1875 L 188.3125 168.257812 L 71 217.121094 Z M 0 46.679688 " clip-rule="nonzero"/></clipPath><clipPath id="d5bbf9c813"><path d="M 0 46.679688 L 117.3125 -2.1875 L 188.3125 168.257812 L 71 217.121094 Z M 0 46.679688 " clip-rule="nonzero"/></clipPath></defs><g clip-path="url(#df997684b5)"><g clip-path="url(#49d434ffca)"><g clip-path="url(#d5bbf9c813)"><path fill="#7daa48" d="M 18.644531 76.417969 L 75.980469 52.535156 L 62.496094 91.652344 L 72.792969 116.375 L 94.097656 107.496094 C 108.808594 101.371094 125.699219 108.328125 131.828125 123.035156 C 137.953125 137.746094 130.996094 154.636719 116.289062 160.765625 C 101.578125 166.890625 84.6875 159.933594 78.558594 145.226562 L 46.597656 158.539062 C 60.078125 190.898438 97.242188 206.207031 129.601562 192.726562 C 161.960938 179.246094 177.265625 142.085938 163.789062 109.722656 C 153.792969 85.730469 130.777344 71.113281 106.355469 70.652344 L 122.160156 24.800781 L 111.863281 0.0820312 L 5.328125 44.460938 Z M 18.644531 76.417969 " fill-opacity="1" fill-rule="nonzero"/></g></g></g><g fill="#7daa48" fill-opacity="1"><g transform="translate(89.953105, 65.132869)"><g><path d="M 0.9375 0 L 0.9375 -5.375 L 1.6875 -5.375 L 1.6875 -4.53125 L 1.796875 -4.5 C 2.046875 -5.113281 2.515625 -5.421875 3.203125 -5.421875 C 3.566406 -5.421875 3.84375 -5.351562 4.03125 -5.21875 L 3.828125 -4.546875 L 3.71875 -4.53125 C 3.519531 -4.625 3.300781 -4.671875 3.0625 -4.671875 C 2.632812 -4.671875 2.304688 -4.507812 2.078125 -4.1875 C 1.847656 -3.875 1.734375 -3.359375 1.734375 -2.640625 L 1.734375 0 Z M 0.9375 0 "/></g></g></g></svg>